<svg id="Layer_1" data-name="Layer 1" xmlns="http://www.w3.org/2000/svg" viewBox="0 0 51.52 58.67"><defs><style>.cls-1{fill:#e49425;}.cls-2{fill:#1f5060;}.cls-3{fill:#1e5060;}.cls-25,.cls-4{fill:#1f5361;}.cls-5{fill:#3c393a;}.cls-26,.cls-6{fill:#225262;}.cls-7{fill:#393637;}.cls-8{fill:#215161;}.cls-9{fill:#43bed6;}.cls-10{fill:#45bcd5;}.cls-11{fill:#43bcd4;}.cls-12{fill:#1c4f5f;}.cls-13{fill:#f3f8f9;}.cls-14{fill:#42bfd8;}.cls-15{fill:#255463;}.cls-16{fill:#da4d26;}.cls-17{fill:#48bcd3;}.cls-18{fill:#78bdcc;}.cls-19{fill:#f1eff1;}.cls-20{fill:#f6f5f7;}.cls-21{fill:#f9f6f7;}.cls-22{fill:#f1748e;}.cls-23{fill:#45b4cb;}.cls-24{fill:#2d5b6a;}.cls-24,.cls-25,.cls-26{opacity:0.2;}.cls-27{fill:#f6fbfc;}.cls-28{fill:#fff;}</style></defs><title>young-coders-academy-new-technologies-robot</title><g id="iCON"><path class="cls-1" d="M36.57,26l3.06,0a2.23,2.23,0,0,1,2.54,2.52c0,.23,0,.46,0,.69q0,2.64,0,5.28c0,1.86,0,3.71,0,5.57,0,2.61,0,5.22,0,7.83a2.16,2.16,0,0,1-2.42,2.43l-3.25,0h-13l-3.45,0a2.07,2.07,0,0,1-2.23-2.22q0-6.42,0-12.85c0-.25,0-.5,0-.75q0-2.64,0-5.28c0-.33,0-.67,0-1A2.12,2.12,0,0,1,20,26c1.12,0,2.25,0,3.37,0Zm-6.49,3.75H23.18a1.46,1.46,0,0,0-1.67,1.65q0,6.8,0,13.6a1.52,1.52,0,0,0,1.67,1.68h13.6A1.47,1.47,0,0,0,38.44,45q0-6.83,0-13.66c0-1.11-.5-1.61-1.6-1.61Z" transform="translate(-4.24 -0.66)"/><path class="cls-1" d="M33,8.84l4.86,0c1.5,0,2.08.58,2.09,2.06,0,.35,0,.71,0,1.06q0,3.63,0,7.26c0,.37,0,.75,0,1.12A1.6,1.6,0,0,1,38.26,22l-1.75,0h-13l-1.69,0A1.59,1.59,0,0,1,20.1,20.3c0-.35,0-.71,0-1.06q0-3.62,0-7.25c0-.44,0-.87,0-1.31a1.63,1.63,0,0,1,1.82-1.81c1.56,0,3.12,0,4.68,0l.44,0Zm-3,8.37c-1.73,0-3.47,0-5.2,0a1.33,1.33,0,0,0-1.44,1.38A1.35,1.35,0,0,0,24.75,20c3.51,0,7,0,10.52,0a1.8,1.8,0,0,0,1.07-.53,1.17,1.17,0,0,0,.2-1.4,1.33,1.33,0,0,0-1.29-.82ZM25.2,16a2.17,2.17,0,1,0,0-4.33,2.16,2.16,0,0,0,0,4.33Zm9.6,0a2.17,2.17,0,1,0-2.16-2.19A2.15,2.15,0,0,0,34.8,16Z" transform="translate(-4.24 -0.66)"/><path class="cls-2" d="M17.83,29.25q0,2.64,0,5.28c-6.18-1.44-10.25-5.17-12-11.28a26.5,26.5,0,0,1-.54-4c.52,0,1,.08,1.56.09,1.19,0,2.37,0,3.56,0A10.37,10.37,0,0,0,17.83,29.25Z" transform="translate(-4.24 -0.66)"/><path class="cls-3" d="M42.2,34.52q0-2.64,0-5.28a10.39,10.39,0,0,0,7.4-9.89l.75,0,4.37-.09a15.18,15.18,0,0,1-8.87,14A26.78,26.78,0,0,1,42.2,34.52Z" transform="translate(-4.24 -0.66)"/><path class="cls-4" d="M37.67,56.27H22.3l0-2H23.4l8.75,0c1.48,0,3,0,4.43,0l1.1,0Z" transform="translate(-4.24 -0.66)"/><path class="cls-5" d="M37.67,56.27l0-1.91c0-.44,0-.88,0-1.31a1.65,1.65,0,0,1,1.63-1.71A1.61,1.61,0,0,1,41,53c0,1.54,0,3.09,0,4.63a1.65,1.65,0,0,1-1.64,1.7,1.7,1.7,0,0,1-1.66-1.76C37.69,57.14,37.68,56.7,37.67,56.27Z" transform="translate(-4.24 -0.66)"/><path class="cls-6" d="M6,17.14a3.84,3.84,0,0,1-.61-6L6.54,12.4c-.74,1.37-.65,2.42.3,3.17a2.14,2.14,0,0,0,2.71-.08,2.21,2.21,0,0,0,.2-3.07L10.9,11.2c1.78,1.46,1.47,4.45-.6,5.93-.53,0-1.06.13-1.59.12C7.81,17.25,6.91,17.18,6,17.14Z" transform="translate(-4.24 -0.66)"/><path class="cls-7" d="M22.28,54.33l0,2c0,.5,0,1,0,1.5a1.63,1.63,0,0,1-3.25,0q-.05-2.47,0-4.95a1.57,1.57,0,0,1,1.62-1.51,1.6,1.6,0,0,1,1.64,1.55C22.3,53.37,22.28,53.85,22.28,54.33Z" transform="translate(-4.24 -0.66)"/><path class="cls-8" d="M49.79,17.22a3.93,3.93,0,0,1-1.19-5.49c.13-.19.28-.36.46-.59l1,1.18a8.21,8.21,0,0,0-.31,2,2.18,2.18,0,0,0,.74,1.24,2.06,2.06,0,0,0,2.7,0c.91-.77,1-1.82.2-3.14l1.18-1.12a3.54,3.54,0,0,1,1.06,3.44,4.14,4.14,0,0,1-1.78,2.55Z" transform="translate(-4.24 -0.66)"/><path class="cls-9" d="M23.5,22h13c.58.57.57.75,0,1.36h-13C23,22.81,23,22.52,23.5,22Z" transform="translate(-4.24 -0.66)"/><path class="cls-10" d="M23.54,50.37h13c.61.53.61.74,0,1.35H23.44C22.95,51.09,23,50.81,23.54,50.37Z" transform="translate(-4.24 -0.66)"/><path class="cls-11" d="M36.57,26H23.42c-.46-.57-.45-.78.12-1.35l5.19,0,7.69,0C37.06,25.17,37.09,25.43,36.57,26Z" transform="translate(-4.24 -0.66)"/><path class="cls-11" d="M36.58,54.34c-1.48,0-3,0-4.43,0l-8.75,0c-.44-.6-.42-.78.14-1.35l10.32,0c.85,0,1.71,0,2.56,0C37.07,53.54,37.1,53.75,36.58,54.34Z" transform="translate(-4.24 -0.66)"/><path class="cls-12" d="M36.42,53c-.85,0-1.71,0-2.56,0L23.54,53c-.58-.4-.6-.67-.1-1.29H36.5C37.11,52.26,37.08,52.63,36.42,53Z" transform="translate(-4.24 -0.66)"/><path class="cls-12" d="M36.42,24.67l-7.69,0-5.19,0c-.6-.42-.61-.76,0-1.26h13C37.11,23.93,37.09,24.28,36.42,24.67Z" transform="translate(-4.24 -0.66)"/><path class="cls-13" d="M6,17.14c.9,0,1.8.11,2.7.12.53,0,1.06-.08,1.59-.12,0,.05.05.14.09.15a1,1,0,0,1,.87,1c0,.58-.4.83-.86,1-1.19,0-2.37,0-3.56,0-.52,0-1-.06-1.56-.09-.86-.88-.69-1.6.46-1.95A1.25,1.25,0,0,0,6,17.14Z" transform="translate(-4.24 -0.66)"/><path class="cls-13" d="M49.79,17.22H53.9a5.53,5.53,0,0,1,.6.12c.87.27,1,1.08.21,1.89l-4.37.09-.75,0c-.47-.21-.89-.49-.87-1.08S49.27,17.41,49.79,17.22Z" transform="translate(-4.24 -0.66)"/><path class="cls-14" d="M18.49,18.47a7.81,7.81,0,0,1-1.75-.71,2.66,2.66,0,0,1-.89-3,2.73,2.73,0,0,1,2.63-1.92Q18.49,15.64,18.49,18.47Z" transform="translate(-4.24 -0.66)"/><path class="cls-14" d="M41.55,12.81a2.8,2.8,0,0,1,0,5.61Q41.55,15.61,41.55,12.81Z" transform="translate(-4.24 -0.66)"/><path class="cls-15" d="M18.49,18.47q0-2.83,0-5.66l.05-.82h1.55q0,3.62,0,7.25H18.49Z" transform="translate(-4.24 -0.66)"/><path class="cls-12" d="M39.95,19.24q0-3.63,0-7.26h1.51l0,.83q0,2.8,0,5.6l0,.83Z" transform="translate(-4.24 -0.66)"/><path class="cls-16" d="M29.55,4.46c-1.1-.54-1.55-1.2-1.45-2.09A1.91,1.91,0,0,1,31.83,2a1.88,1.88,0,0,1-.89,2.2c-.16.09-.34.17-.5.25ZM30,1c-.89,0-1.37.25-1.4.73s.52.84,1.3.9h.19c.72-.07,1.31-.48,1.27-.89S30.81,1.05,30,1Z" transform="translate(-4.24 -0.66)"/><path class="cls-17" d="M27.92,8.26a2.26,2.26,0,0,1,1.63-1.32h.9A2.1,2.1,0,0,1,32,8.26Z" transform="translate(-4.24 -0.66)"/><path class="cls-2" d="M27.92,8.26H33c0,.23,0,.4,0,.58H27V8.26Z" transform="translate(-4.24 -0.66)"/><path class="cls-15" d="M30.44,6.94h-.9V4.46h.9Z" transform="translate(-4.24 -0.66)"/><path class="cls-18" d="M41.5,18.41q0-2.8,0-5.6h.06q0,2.8,0,5.61Z" transform="translate(-4.24 -0.66)"/><path class="cls-16" d="M30.08,29.76h6.77c1.1,0,1.6.51,1.6,1.61q0,6.83,0,13.66a1.47,1.47,0,0,1-1.66,1.65H23.18A1.52,1.52,0,0,1,21.52,45q0-6.8,0-13.6a1.46,1.46,0,0,1,1.67-1.65Zm6.72,5.18H23.23v6.54H36.8Zm-2.48-2.69a1.21,1.21,0,1,0-1.23,1.21A1.2,1.2,0,0,0,34.31,32.25Zm-3.24,0a1.21,1.21,0,0,0-2.42,0,1.23,1.23,0,0,0,1.23,1.22A1.2,1.2,0,0,0,31.07,32.21Zm-4.19,1.21a1.2,1.2,0,0,0,1.26-1.18,1.24,1.24,0,0,0-2.48,0A1.19,1.19,0,0,0,26.88,33.42Z" transform="translate(-4.24 -0.66)"/><path class="cls-19" d="M30,17.21h5.26a1.33,1.33,0,0,1,1.29.82,1.17,1.17,0,0,1-.2,1.4,1.8,1.8,0,0,1-1.07.53c-3.51,0-7,0-10.52,0a1.35,1.35,0,0,1-1.4-1.38,1.33,1.33,0,0,1,1.44-1.38C26.53,17.19,28.26,17.21,30,17.21Zm-4,1.46h0a4.63,4.63,0,0,0,0-.87c0-.14-.22-.24-.34-.36-.12.12-.33.23-.34.36a12.1,12.1,0,0,0,0,1.61c0,.12.22.33.3.31A.55.55,0,0,0,26,19.4,3,3,0,0,0,26,18.66Zm6.54-.07h0a3.83,3.83,0,0,0,0-.8.55.55,0,0,0-.35-.33c-.08,0-.31.18-.32.29a14.11,14.11,0,0,0,0,1.67c0,.11.23.32.31.3a.54.54,0,0,0,.36-.32A3.77,3.77,0,0,0,32.53,18.59Zm-3.26,0a3.35,3.35,0,0,0,0-.74c0-.14-.21-.26-.33-.38-.13.11-.35.22-.36.34a11,11,0,0,0,0,1.61c0,.13.23.23.35.35.11-.12.3-.23.33-.38A4.1,4.1,0,0,0,29.27,18.56Zm-2.88,0a4.17,4.17,0,0,0,0,.8c0,.14.21.25.32.38.12-.12.33-.23.34-.36a11.13,11.13,0,0,0,0-1.61c0-.12-.23-.23-.35-.35-.11.13-.28.25-.31.39A3.47,3.47,0,0,0,26.39,18.56Zm9.41,0a3.91,3.91,0,0,0,0-.8.56.56,0,0,0-.35-.34c-.08,0-.31.18-.32.29a12.82,12.82,0,0,0,0,1.67c0,.12.24.22.37.33.1-.13.27-.25.3-.4A3.53,3.53,0,0,0,35.8,18.59Zm-10.9,0a4.34,4.34,0,0,0,0-.8c0-.15-.2-.27-.3-.4-.13.13-.36.26-.37.4a8.15,8.15,0,0,0,0,1.49c0,.15.22.29.34.43.12-.14.29-.27.33-.43A2.62,2.62,0,0,0,24.9,18.63Zm8-.06a3.19,3.19,0,0,0,0,.74c0,.16.22.29.33.43.12-.14.34-.27.35-.43a8.06,8.06,0,0,0,0-1.49c0-.14-.24-.27-.37-.4-.11.13-.28.25-.31.4A3.58,3.58,0,0,0,32.92,18.57Zm-2.57,0h0a3.92,3.92,0,0,0,0-.8c0-.14-.22-.25-.34-.37-.12.12-.33.23-.33.36a12.45,12.45,0,0,0,0,1.61c0,.12.22.34.28.32a.56.56,0,0,0,.37-.31A3.64,3.64,0,0,0,30.35,18.6Zm4.35,0h0a3.17,3.17,0,0,0,0-.74c0-.16-.22-.28-.34-.42-.11.13-.3.25-.31.39a10.75,10.75,0,0,0,0,1.55c0,.13.22.24.33.36.11-.13.27-.24.31-.39A3.56,3.56,0,0,0,34.69,18.6Zm-6.53,0h0a3.93,3.93,0,0,0,0-.8c0-.13-.22-.23-.34-.35-.1.11-.29.21-.3.33a12.44,12.44,0,0,0,0,1.61c0,.12.22.23.34.35.1-.13.27-.25.3-.4A3.63,3.63,0,0,0,28.16,18.6Zm3.26,0h0a4.36,4.36,0,0,0,0-.8c0-.15-.2-.26-.3-.39-.12.11-.33.22-.34.35a12.54,12.54,0,0,0,0,1.61c0,.12.19.22.29.33.12-.12.31-.21.34-.35A3.26,3.26,0,0,0,31.43,18.64Z" transform="translate(-4.24 -0.66)"/><path class="cls-20" d="M25.2,16a2.17,2.17,0,1,1,2.18-2.18A2.16,2.16,0,0,1,25.2,16Zm1.6-2.15a1.6,1.6,0,0,0-1.61-1.64,1.63,1.63,0,0,0,0,3.25A1.61,1.61,0,0,0,26.8,13.86Z" transform="translate(-4.24 -0.66)"/><path class="cls-21" d="M34.8,16a2.17,2.17,0,0,1,0-4.34,2.17,2.17,0,1,1,0,4.34Zm0-.53a1.63,1.63,0,1,0-1.62-1.64A1.63,1.63,0,0,0,34.8,15.48Z" transform="translate(-4.24 -0.66)"/><path class="cls-22" d="M30,1c.77,0,1.33.31,1.36.73s-.55.82-1.27.89h-.19c-.79-.06-1.33-.43-1.3-.9S29.16,1,30,1Z" transform="translate(-4.24 -0.66)"/><path class="cls-23" d="M36.8,34.94v6.54H23.23V34.94ZM23.58,41.11H36.4V35.32H23.58Z" transform="translate(-4.24 -0.66)"/><path class="cls-11" d="M31.07,32.21a1.2,1.2,0,0,1-1.19,1.25,1.23,1.23,0,0,1-1.23-1.22,1.21,1.21,0,0,1,2.42,0Z" transform="translate(-4.24 -0.66)"/><path class="cls-1" d="M26.88,33.42a1.19,1.19,0,0,1-1.22-1.22,1.24,1.24,0,0,1,2.48,0A1.2,1.2,0,0,1,26.88,33.42Z" transform="translate(-4.24 -0.66)"/><path class="cls-24" d="M26,18.66a3,3,0,0,1,0,.74.55.55,0,0,1-.37.31c-.08,0-.29-.19-.3-.31a12.1,12.1,0,0,1,0-1.61c0-.13.22-.24.34-.36.12.12.32.23.34.36a4.63,4.63,0,0,1,0,.87Z" transform="translate(-4.24 -0.66)"/><path class="cls-24" d="M32.53,18.59a3.77,3.77,0,0,1,0,.8.54.54,0,0,1-.36.32c-.08,0-.3-.19-.31-.3a14.11,14.11,0,0,1,0-1.67c0-.11.24-.31.32-.29a.55.55,0,0,1,.35.33,3.83,3.83,0,0,1,0,.8Z" transform="translate(-4.24 -0.66)"/><path class="cls-24" d="M29.27,18.56a4.06,4.06,0,0,1,0,.81c0,.14-.21.25-.33.38-.12-.12-.34-.23-.35-.35a11,11,0,0,1,0-1.61c0-.12.23-.23.36-.34.11.13.29.24.33.38A3.32,3.32,0,0,1,29.27,18.56Z" transform="translate(-4.24 -0.66)"/><path class="cls-24" d="M26.39,18.56a3.5,3.5,0,0,1,0-.74c0-.15.2-.26.31-.39.12.12.34.23.35.35a11.13,11.13,0,0,1,0,1.61c0,.13-.22.24-.34.36-.11-.12-.29-.24-.32-.38A4.2,4.2,0,0,1,26.39,18.56Z" transform="translate(-4.24 -0.66)"/><path class="cls-24" d="M35.8,18.59a3.58,3.58,0,0,1,0,.74c0,.15-.19.27-.3.4-.13-.11-.36-.21-.37-.33a12.82,12.82,0,0,1,0-1.67c0-.11.24-.31.32-.29a.56.56,0,0,1,.35.34A4,4,0,0,1,35.8,18.59Z" transform="translate(-4.24 -0.66)"/><path class="cls-24" d="M24.9,18.63a2.64,2.64,0,0,1,0,.68c0,.16-.22.29-.33.43-.12-.14-.33-.28-.34-.43a8.15,8.15,0,0,1,0-1.49c0-.14.24-.27.37-.4.1.13.27.26.3.4A4.36,4.36,0,0,1,24.9,18.63Z" transform="translate(-4.24 -0.66)"/><path class="cls-24" d="M32.92,18.57a3.55,3.55,0,0,1,0-.74c0-.15.2-.27.31-.4.13.13.36.25.37.4a8.06,8.06,0,0,1,0,1.49c0,.15-.23.28-.35.43-.12-.14-.29-.27-.33-.43A3.18,3.18,0,0,1,32.92,18.57Z" transform="translate(-4.24 -0.66)"/><path class="cls-24" d="M30.35,18.6a3.64,3.64,0,0,1,0,.8.56.56,0,0,1-.37.31c-.07,0-.28-.2-.28-.32a12.45,12.45,0,0,1,0-1.61c0-.13.22-.24.33-.36.12.12.31.23.34.37a3.92,3.92,0,0,1,0,.8Z" transform="translate(-4.24 -0.66)"/><path class="cls-25" d="M34.69,18.6a3.56,3.56,0,0,1,0,.74c0,.15-.2.26-.31.39-.12-.12-.32-.23-.33-.36a10.75,10.75,0,0,1,0-1.55c0-.14.2-.26.31-.39.12.14.3.26.34.42a3.17,3.17,0,0,1,0,.74Z" transform="translate(-4.24 -0.66)"/><path class="cls-26" d="M28.16,18.6a3.63,3.63,0,0,1,0,.74c0,.15-.2.26-.3.4-.12-.12-.33-.23-.34-.35a12.44,12.44,0,0,1,0-1.61c0-.12.19-.22.3-.33.12.12.31.21.34.35a3.93,3.93,0,0,1,0,.8Z" transform="translate(-4.24 -0.66)"/><path class="cls-25" d="M31.43,18.64a3.26,3.26,0,0,1,0,.74c0,.14-.22.24-.34.35-.1-.11-.29-.22-.29-.33a12.54,12.54,0,0,1,0-1.61c0-.12.22-.23.34-.35.11.13.27.25.3.39a4.36,4.36,0,0,1,0,.8Z" transform="translate(-4.24 -0.66)"/><path class="cls-9" d="M26.8,13.86a1.61,1.61,0,0,1-1.63,1.62,1.63,1.63,0,0,1,0-3.25A1.6,1.6,0,0,1,26.8,13.86Zm-2.39.1c.14.55.53.81,1,.6a1.08,1.08,0,0,0,.52-.84c0-.5-.43-.72-1-.61C24.25,13.08,24.11,13.28,24.42,14Z" transform="translate(-4.24 -0.66)"/><path class="cls-9" d="M34.8,15.48a1.63,1.63,0,1,1,0-3.26,1.63,1.63,0,0,1,0,3.26Zm-.19-2.37c-.23.07-.53.08-.67.23s.07.41.12.63a.71.71,0,0,0,1,.62.7.7,0,0,0,.55-.85C35.48,13.18,35.11,13,34.6,13.11Z" transform="translate(-4.24 -0.66)"/><path class="cls-15" d="M25,13.11c.52-.11.93.11,1,.61a1.08,1.08,0,0,1-.52.84c-.49.21-.88-.05-1-.6.22,0,.57,0,.64-.15S25,13.35,25,13.11Z" transform="translate(-4.24 -0.66)"/><path class="cls-20" d="M25,13.11c0,.24.15.53.05.7s-.42.1-.64.15C24.11,13.28,24.25,13.08,25,13.11Z" transform="translate(-4.24 -0.66)"/><path class="cls-6" d="M34.6,13.11c.51-.08.87.07,1,.62a.7.7,0,0,1-.55.85.71.71,0,0,1-1-.62c.22-.06.54-.06.64-.2S34.64,13.34,34.6,13.11Z" transform="translate(-4.24 -0.66)"/><path class="cls-27" d="M34.6,13.11c0,.23.18.52.09.66s-.42.14-.64.2c0-.22-.2-.53-.12-.63S34.37,13.18,34.6,13.11Z" transform="translate(-4.24 -0.66)"/><path class="cls-28" d="M25.07,40V36.36h9.81V40Z" transform="translate(-4.24 -0.66)"/></g></svg>