<svg id="Layer_1" data-name="Layer 1" xmlns="http://www.w3.org/2000/svg" viewBox="0 0 50.47 52.86"><defs><style>.cls-1{fill:#169bc8;}.cls-2{fill:#4d9b47;}.cls-3{fill:#da4d26;}.cls-4{fill:#e59525;}.cls-5{fill:#fff;}</style></defs><title>young-coders-academy-computational-thinking-math</title><path class="cls-1" d="M55.23,30.95c0,.54,0,1,0,1.51q0,7.57,0,15.14c0,5.14-3.51,8.83-8.4,8.83H30.89V30.95ZM49.89,42.39H36.08V44.7H49.89Z" transform="translate(-4.77 -3.57)"/><path class="cls-2" d="M30.88,29.15V3.57h16c4.88,0,8.38,3.77,8.36,8.88s0,10.5,0,15.75c0,.3,0,.6,0,.95Zm5.17-10.83H49.88V16H36.05Zm8.49,3.74a1.58,1.58,0,1,0-1.6,1.63A1.61,1.61,0,0,0,44.55,22.07ZM43,11.09a1.61,1.61,0,0,0-1.6,1.64,1.58,1.58,0,1,0,3.16,0A1.61,1.61,0,0,0,43,11.09Z" transform="translate(-4.77 -3.57)"/><path class="cls-3" d="M4.85,30.94H29.19V56.38c-.25,0-.51,0-.77,0-5.13,0-10.27,0-15.4,0A8.23,8.23,0,0,1,4.81,48c-.06-5.51,0-11,0-16.52A5.35,5.35,0,0,1,4.85,30.94Zm6,14.17h5.4v5.57h2.13V45.06h5.32V42.79H18.34V37.22H16.18v5.61H10.83Z" transform="translate(-4.77 -3.57)"/><path class="cls-4" d="M29.22,3.57V29.14H4.83c0-.28,0-.56,0-.83q0-7.91,0-15.83c0-5.25,3.48-8.91,8.48-8.91h16ZM23.79,24l-5.07-6.73L23,11.56a15.62,15.62,0,0,1-1.73,0,1.6,1.6,0,0,0-1.64.83c-.75,1.08-1.59,2.1-2.43,3.19-.88-1.25-1.68-2.4-2.5-3.55-.13-.19-.35-.42-.54-.44-.76,0-1.53,0-2.43,0L16,17.23,10.74,24a11.08,11.08,0,0,1,1.45,0,1.94,1.94,0,0,0,2.07-1c.92-1.38,2-2.66,3-4,1.21,1.56,2.35,3.06,3.52,4.53a1.2,1.2,0,0,0,.67.49C22.16,24,22.89,24,23.79,24Z" transform="translate(-4.77 -3.57)"/><path class="cls-5" d="M49.89,42.39V44.7H36.08V42.39Z" transform="translate(-4.77 -3.57)"/><path class="cls-5" d="M36.05,18.32V16H49.88v2.32Z" transform="translate(-4.77 -3.57)"/><path class="cls-5" d="M44.55,22.07a1.58,1.58,0,1,1-3.16,0,1.58,1.58,0,1,1,3.16,0Z" transform="translate(-4.77 -3.57)"/><path class="cls-5" d="M43,11.09a1.66,1.66,0,0,1,0,3.31,1.63,1.63,0,0,1-1.57-1.67A1.61,1.61,0,0,1,43,11.09Z" transform="translate(-4.77 -3.57)"/><path class="cls-5" d="M10.83,45.11V42.84h5.35V37.22h2.16v5.57h5.33v2.27H18.36v5.63H16.23V45.11Z" transform="translate(-4.77 -3.57)"/><path class="cls-5" d="M23.79,24c-.89,0-1.62,0-2.34,0a1.2,1.2,0,0,1-.67-.49c-1.17-1.48-2.31-3-3.52-4.53-1,1.37-2.07,2.65-3,4a1.94,1.94,0,0,1-2.07,1,11.08,11.08,0,0,0-1.45,0L16,17.23l-4.23-5.66c.9,0,1.67,0,2.43,0,.19,0,.4.25.54.44.82,1.14,1.63,2.3,2.5,3.55.84-1.09,1.67-2.11,2.43-3.19a1.6,1.6,0,0,1,1.64-.83,15.62,15.62,0,0,0,1.73,0l-4.34,5.67Z" transform="translate(-4.77 -3.57)"/></svg>