<svg id="Layer_1" data-name="Layer 1" xmlns="http://www.w3.org/2000/svg" viewBox="0 0 56.8 58.77"><defs><style>.cls-1{fill:#1698bc;}.cls-2{fill:#eaa74d;}.cls-3,.cls-7{fill:#fff;}.cls-4{fill:#109bc8;}.cls-5{fill:#4d9b47;stroke:#fff;stroke-miterlimit:10;stroke-width:2px;}.cls-6{fill:#4b8944;}.cls-7{font-size:11.71px;font-family:CoolveticaRg-Regular, Coolvetica;letter-spacing:-0.05em;}.cls-8{letter-spacing:-0.04em;}.cls-9{letter-spacing:0em;}</style></defs><title>young-coders-academy-web-safety-shield</title><g id="iCON"><path class="cls-1" d="M56.26,30.69v3c0,.12,0,.23,0,.35a23.33,23.33,0,0,1-.72,4.88A27,27,0,0,1,31.24,59.27a34.57,34.57,0,0,1-5.08-.05,22.69,22.69,0,0,1-6-1.38,26.74,26.74,0,0,1-16-14.92,26,26,0,0,1-2-7.82c0-.4-.06-.8-.09-1.21q0-1.74,0-3.48c0-.1,0-.2,0-.3.08-.69.12-1.39.23-2.08A26.66,26.66,0,0,1,9.9,13.22a26.7,26.7,0,0,1,17.29-8,26.25,26.25,0,0,1,8.34.67,27.29,27.29,0,0,1,19,16.74A24.66,24.66,0,0,1,56.11,29C56.17,29.56,56.21,30.12,56.26,30.69ZM33.15,24.87l-.09.13.29.16c.12.08.24.17.36.26a.56.56,0,0,1-.25,1c-.27,0-.55.08-.82.1A.63.63,0,0,0,32,27c-.08.25-.15.51-.23.77a.84.84,0,0,0,.4,1c.47.32.5.58.21,1.08-.06.09-.13.18-.18.28-.23.4-.46.81-.69,1.22a1.16,1.16,0,0,1-.28.37,4.4,4.4,0,0,0-1.34,1.92,1.09,1.09,0,0,0-.07.48c0,.38.07.75.09,1.12s0,.72,0,1.08a1.19,1.19,0,0,0,.36.81c.27.28.5.6.75.9a2,2,0,0,0,.3.31c.23.18.46.34.71.5a.78.78,0,0,0,.37.16c.5,0,1,0,1.49,0a2,2,0,0,0,1.27-.38.3.3,0,0,1,.37,0,4,4,0,0,0,1,.42c.43.07.58,0,.57.7a1.17,1.17,0,0,1-.06.41,1.21,1.21,0,0,0,.19,1.18c.21.32.45.63.68.93a1,1,0,0,1,.22.77,1.43,1.43,0,0,0,.05.62.59.59,0,0,1-.09.57,1.87,1.87,0,0,0-.25,1.66c.21.75.44,1.5.67,2.24s.43,1.36.65,2a.45.45,0,0,0,.43.33,3,3,0,0,0,.52,0,3.64,3.64,0,0,0,2.68-2.23,3.69,3.69,0,0,1,.51-.77.88.88,0,0,0,.26-1,.53.53,0,0,1,.15-.62c.3-.3.59-.61.91-.89a1.64,1.64,0,0,0,.52-1.5c-.06-.52-.14-1-.17-1.56a.89.89,0,0,1,.17-.55c.41-.51.87-1,1.27-1.49.56-.73,1.11-1.47,1.62-2.23a2.44,2.44,0,0,0,.29-.9c0-.23-.08-.28-.28-.16a1,1,0,0,1-.31.17,8.61,8.61,0,0,1-1.23.18c-.11,0-.26-.19-.34-.33s.12-.19.2-.26a.85.85,0,0,1,.28-.11,9.06,9.06,0,0,0,3.09-1.71,3.27,3.27,0,0,0,.73-1c.17-.32.06-.48-.23-.69a1.65,1.65,0,0,1-.37-.4c-.22-.31-.3-.35-.67-.23a3.41,3.41,0,0,1-.58.17.43.43,0,0,1-.28-.14c-.14-.13-.25-.28-.37-.42s-.39-.41-.57-.63a.79.79,0,0,1-.08-.29l.07-.06a1.67,1.67,0,0,1,.32.21,2,2,0,0,0,1.4.57,4.56,4.56,0,0,1,.62.1c.25.05.5.14.76.17s.55,0,.83,0a2.53,2.53,0,0,1,1.82.92.63.63,0,0,1,.15.32.28.28,0,0,0,.31.28.61.61,0,0,1,.57.37c.26.62.5,1.24.73,1.87a3.54,3.54,0,0,1,.11.65h.1a26.11,26.11,0,0,0-6.82-21.94l-.12.16a6.61,6.61,0,0,0-2.05-2.14,2.59,2.59,0,0,0,.18.79c.07.17.19.31.28.48s.05.36-.22.32a7.51,7.51,0,0,1-1.11-.22A1.81,1.81,0,0,1,44.1,11.1a1.85,1.85,0,0,0,.09-.23c.06-.24-.13-.32-.28-.38a.34.34,0,0,0-.31.1,1.44,1.44,0,0,0-.26,1c.05.45,0,.92.07,1.37a1.71,1.71,0,0,0,.06.46c0,.11.12.26.22.29.4.12.81.22,1.21.31a2.1,2.1,0,0,0,.39,0c.23,0,.29.14.3.35s-.12.23-.28.24a2.87,2.87,0,0,0-.37.11c-.08,0-.18.07-.23,0s-.33,0-.47.11l-.4.34c-.34.29-.37.28-.61-.09-.05-.08-.16-.12-.25-.18-.06.09-.16.19-.16.28,0,.25.05.49.07.74s0,.22,0,.33l-.07,0a1.77,1.77,0,0,1-.25-.23,2.71,2.71,0,0,1-.26-.42,1.35,1.35,0,0,0-1.11-.8,4.88,4.88,0,0,1-.7-.15.54.54,0,0,1-.44-.4.36.36,0,0,0-.24-.19,1.46,1.46,0,0,0-.47,0,2.93,2.93,0,0,0-1.86,1,1.77,1.77,0,0,0-.36.69c-.11.32-.14.67-.24,1a2.69,2.69,0,0,1-1.22,1.77.84.84,0,0,0-.43,1,4.06,4.06,0,0,0,.21.65c.18.4.43.45.78.16.12-.1.23-.2.36-.32a2.44,2.44,0,0,1,.49,1.35c.44.09.59,0,.75-.39a2.71,2.71,0,0,1,.33-.72.65.65,0,0,0,0-.9.79.79,0,0,1-.11-.83c.23-.52.46-1,.71-1.55,0-.08.18-.12.28-.17a1,1,0,0,1,.14.35,1.61,1.61,0,0,1-.12.45c-.07.22-.16.43-.22.65a.63.63,0,0,0,.45.82,5.24,5.24,0,0,0,.7.16c.2,0,.4.06.6.11s.14.1.21.15-.13.16-.21.18a1.82,1.82,0,0,1-.43.08c-.54.05-.55,0-.5.58,0,.15,0,.29-.18.3s-.37.18-.36.44a.67.67,0,0,1-.5.71,11.07,11.07,0,0,1-1.23.31c-.58.11-.84-.1-.91-.69l-.05-.45h-.1c0,.18,0,.37-.07.54a1.47,1.47,0,0,1-.19.61,7.75,7.75,0,0,1-1,1c-.2.16-.38.28-.33.57a.28.28,0,0,1-.08.23c-.35.27-.69.54-1.06.77A1.29,1.29,0,0,1,33.15,24.87ZM10.61,34.42a1,1,0,0,0-1,.71.59.59,0,0,1-.63.4,1.21,1.21,0,0,1-1.21-1A3.66,3.66,0,0,1,8,32.29a.84.84,0,0,1,.82-.54c.3,0,.61,0,.91,0a.6.6,0,0,0,.55-.24.67.67,0,0,1,.42-.22,1.25,1.25,0,0,1,1.16.76,7.86,7.86,0,0,0,.49.95c0,.08.19.11.29.16,0-.11.11-.23.09-.33a6.12,6.12,0,0,0-.26-.93c-.23-.61-.2-.86.3-1.29.32-.27.69-.5,1-.77a.83.83,0,0,0,.31-.43A4.06,4.06,0,0,1,15,27.63a.78.78,0,0,1,.47-.24.52.52,0,0,0,.43-.3l.21-.42c.23-.47.41-.61.89-.41a1.19,1.19,0,0,0,1-.12c.18-.08.36-.14.54-.2.35-.12.41-.33.14-.59a3.62,3.62,0,0,0-.51-.37c-.16-.11-.28-.21-.14-.42s0-.23-.11-.3a2.93,2.93,0,0,1-.35-.24l0-.11a1.8,1.8,0,0,1,.54,0,1.62,1.62,0,0,0,1.44-.21,4.72,4.72,0,0,1,.66-.28l.07.09-1,1.33,0,.07a1.08,1.08,0,0,1,.9.39.38.38,0,0,0,.56-.09.88.88,0,0,0,.13-.79.25.25,0,0,0-.17-.15c-.2,0-.25-.16-.26-.33,0-.41,0-.83-.05-1.24a1.65,1.65,0,0,0-.4-1.17.83.83,0,0,1-.2-.5c0-.41,0-.83,0-1.24,0-.17,0-.35,0-.52h-.09a1.74,1.74,0,0,1-.16.27,4.2,4.2,0,0,1-.55.56.44.44,0,0,1-.4,0c-.07,0-.09-.25-.05-.37a4.12,4.12,0,0,1,.25-.55c.11-.25.06-.34-.19-.43a.51.51,0,0,1-.25-.22.9.9,0,0,0-.86-.47c-.33,0-.34.32-.42.54a2,2,0,0,1-.08.29q-.24.41-.52.79a1.4,1.4,0,0,1-.24.22c.4.81.4.81-.29,1.37l-.06.05a2,2,0,0,0-.7,1,2.14,2.14,0,0,1-.24.5c-.06.09-.18.13-.27.19,0-.1-.13-.21-.13-.31a5.49,5.49,0,0,1,.09-.82.47.47,0,0,0-.15-.48c-.36-.33-.69-.69-1-1a.8.8,0,0,1-.22-.81,2.63,2.63,0,0,1,.89-1.49c.45-.39.9-.79,1.36-1.17.26-.22.55-.41.82-.6a2,2,0,0,1,.28-.13l-.53,1.43c.4-.06.71-.1,1-.16s.37-.23.19-.5-.22-.31-.38-.54c.33,0,.59,0,.85-.1a.38.38,0,0,0,.26-.17c.25-.61.48-1.23.71-1.86a.39.39,0,0,1,.63-.22,1.41,1.41,0,0,1,.29,1.77c-.18.21-.37.41-.56.61s-.3.32-.59.2-.42.12-.44.34.13.27.32.3a.78.78,0,0,1,.43.21,7.08,7.08,0,0,1,.68.83.22.22,0,0,0,.3.1.91.91,0,0,0,.75-1.25s0-.06,0-.08.07-.28.11-.42l.27.27A.27.27,0,0,1,21,17c.08.17.2.18.33.06s.28-.29.41-.44a.27.27,0,0,0,0-.37,1.58,1.58,0,0,1-.11-.46.85.85,0,0,0-.09-.33c-.22-.27-.22-.32,0-.61a.81.81,0,0,0,.17-.85,5.81,5.81,0,0,1-.47-.73,1.06,1.06,0,0,1-.15-.49c0-.17,0-.35,0-.52a.57.57,0,0,0-.6-.66h-.37c0-.23-.2-.27-.37-.19-.69.32-1.35.69-1.54,1.53a.71.71,0,0,1-.15.29c-.15.18-.18.32.1.39.13,0,.22.12.14.27A3.33,3.33,0,0,1,17.25,15c0-.09,0-.15,0-.18a.64.64,0,0,0-.06-.79.41.41,0,0,1,0-.35c.1-.21.26-.39.36-.59s.22-.53.36-.77a1.22,1.22,0,0,1,.8-.63,2.36,2.36,0,0,0,.63-.42,8.64,8.64,0,0,1-.84-.27.57.57,0,0,0-.83.24,17.5,17.5,0,0,0-1,1.47,2.73,2.73,0,0,1-.67,1,8,8,0,0,0-.74.73.7.7,0,0,1-1.15-.08c-.06-.09-.11-.31-.08-.33s.32-.18.43-.14a.88.88,0,0,0,.72,0c.18-.07.27-.13.26-.32a2,2,0,0,1,.41-1.2c.29-.45.58-.9.86-1.35a1.56,1.56,0,0,0,.11-.28l-.06-.06a3.26,3.26,0,0,0-.44.17c-.27.14-.52.32-.78.47s-.29.12-.41-.12l.21-.1c-.31-.3-.08-.46.07-.64s.12-.18.1-.21a.45.45,0,0,0-.25-.15.39.39,0,0,0-.26.06c-.48.33-1,.65-1.42,1a.42.42,0,0,0-.09.32,1.07,1.07,0,0,1-.32,1,.65.65,0,0,0-.24.58,1.39,1.39,0,0,1-.11.4,1.28,1.28,0,0,1-.42-.16,1.88,1.88,0,0,1-.31-.45,3.41,3.41,0,0,1-.15-.32c-.19.15-.36.27-.51.41a27,27,0,0,0-5.47,7,26.35,26.35,0,0,0-2.94,9.45,14.41,14.41,0,0,0,0,2.12c0,.22.19.42.22.64a3.79,3.79,0,0,0,.8,1.7,1.65,1.65,0,0,0,.26.24L4.41,34l-.86-2.37.11-.05a3.78,3.78,0,0,1,.26.34c.43.71.87,1.41,1.29,2.13.17.3.26.65.41,1a1.56,1.56,0,0,0,.38.54,4.93,4.93,0,0,0,1.7.77q1.06.31,2.1.66a2.14,2.14,0,0,1,1.07.79,4.11,4.11,0,0,0,1.82,1.2.35.35,0,0,0,.13,0l.09-.29a1.31,1.31,0,0,1,.74,1.58c-.11.26-.3.49-.41.75a.81.81,0,0,0-.08.51,3,3,0,0,1,.14,1.33.6.6,0,0,0,.21.54,4.89,4.89,0,0,1,.7.75,5.82,5.82,0,0,0,2.06,1.84,2.8,2.8,0,0,1,1.28,1.4c.14.35.24.71.36,1.07.29.83.58,1.66.86,2.5a2.81,2.81,0,0,1,.22.79,2.11,2.11,0,0,0,.41,1.23,1.23,1.23,0,0,1,.29.67,1.05,1.05,0,0,0,.57,1,.38.38,0,0,1,.2.38.87.87,0,0,0,.12.44,13.09,13.09,0,0,0,1.33,1.78,2,2,0,0,0,1.41.54.55.55,0,0,0-.11-.26A2.77,2.77,0,0,1,22.52,56a1,1,0,0,0-.3-.53.58.58,0,0,1-.22-.5,3.55,3.55,0,0,1,0-.41c.08-.35.21-.7-.29-.88a.13.13,0,0,1,0-.26c.24,0,.23-.16.21-.33s.06-.19.18-.25.32-.2.35-.33a1.32,1.32,0,0,0,0-.69c-.07-.21-.06-.32.15-.41a1.27,1.27,0,0,0,.16-.11.42.42,0,0,0,.22-.58.55.55,0,0,1,.07-.35,2.28,2.28,0,0,0,.21-1.57.57.57,0,0,1,.25-.67c.12-.07.23-.16.35-.22a2.15,2.15,0,0,1,.56-.26.44.44,0,0,0,.4-.36,8.4,8.4,0,0,0,.13-.85,9.71,9.71,0,0,1,.55-3.25.48.48,0,0,0-.17-.57,2.79,2.79,0,0,0-1.64-.9,6.2,6.2,0,0,1-2.18-.82,1.09,1.09,0,0,1-.37-.47,2.07,2.07,0,0,0-1.38-1.19A2.09,2.09,0,0,1,18,37.73a.15.15,0,0,0,0-.07,7,7,0,0,1-.74.25,4.69,4.69,0,0,1-.66.06.59.59,0,0,1-.54-.21,1,1,0,0,0-.39-.22c-.16-.06-.34-.08-.5-.14a.42.42,0,0,0-.56.15,1.53,1.53,0,0,1-1.74.69l-.28,0c-.67-.06-.81-.2-.86-.86,0-.34-.06-.67-.08-1-.32,0-.63,0-.93-.08-.53-.06-.61-.23-.34-.68A1.69,1.69,0,0,0,10.61,34.42ZM27.45,6.55c.21-.39.16-.47-.29-.48h-.22c-1.22.18-2.43.4-3.65.55a1.73,1.73,0,0,0-1.57,1.29c-.07.22-.18.42-.29.68l.68-.07-.55.5a1.47,1.47,0,0,0-.24.22c-.1.15-.29.36-.25.47s.28.26.45.36a4.34,4.34,0,0,1,.41.21.31.31,0,0,0,.48,0c.06-.06.1-.14.15-.19.61-.62,1.18-1.29,1.84-1.85a6.65,6.65,0,0,1,1.38-.71l.11,0c-.12.28-.22.56-.35.81a.58.58,0,0,1-.3.22,4.92,4.92,0,0,1-.66.18.59.59,0,0,0-.51.53,1.27,1.27,0,0,1-.25.57,1.5,1.5,0,0,0-.22,1l.54-.08a.61.61,0,0,1,.72.58,4.73,4.73,0,0,1-.35,2.21,2.41,2.41,0,0,0-.23.68.87.87,0,0,0,.1.57.33.33,0,0,1-.06.52,2.19,2.19,0,0,0-.41.44,2.27,2.27,0,0,0-.4.94,15.78,15.78,0,0,0,.15,2.19,1.24,1.24,0,0,0,.64.86c.06,0,.22,0,.25,0,.33-.5.64-1,1-1.51v0a2.58,2.58,0,0,1,.34-.51,4.09,4.09,0,0,1,.65-.46l1.34-.81a.46.46,0,0,1,.21-.07,2.77,2.77,0,0,0,1.91-1A1,1,0,0,0,30.17,14a.58.58,0,0,1,.22-.83.74.74,0,0,0,.5-.51,17,17,0,0,0,.5-1.93,5.5,5.5,0,0,1,.78-2c.07-.12.22-.18.32-.28a2,2,0,0,0,.39-.5c.1-.22,0-.32-.25-.32s-.4,0-.61,0a.8.8,0,0,1-.24-.1,1,1,0,0,1,.12-.26c.31-.35.32-.54,0-.84a1.2,1.2,0,0,0-.48-.25,2.31,2.31,0,0,0-1.82.18,1.48,1.48,0,0,1-.4.18,2.9,2.9,0,0,1-.46,0l0-.08L28.28,7C28.18,6.28,27.71,6.72,27.45,6.55Zm5.47,17.83.1,0c.14-.12.28-.25.43-.35a2.7,2.7,0,0,1,.69-.41c.38-.11.45-.16.35-.56a1.44,1.44,0,0,0-.17-.37c-.21-.35-.44-.7-.65-1.05a1,1,0,0,1-.07-.36,2,2,0,0,0-.06-.49c-.11-.28-.34-.29-.54-.07a.85.85,0,0,0,0,1.17c.09.09.22.17.26.28s.08.34,0,.42a2,2,0,0,0-.39,1.24C32.9,24,32.91,24.21,32.91,24.38ZM47.64,43.67l-.07,0c-.09.14-.19.28-.29.42a4.07,4.07,0,0,1-.75,1,2.06,2.06,0,0,0-.68,1c-.1.23-.23.46-.35.69a.55.55,0,0,0-.08.23c0,.2.37.53.61.58a.42.42,0,0,0,.53-.33c.33-.92.66-1.85,1-2.78A3.9,3.9,0,0,0,47.64,43.67ZM18.42,8.53a.74.74,0,0,0-.17,0,2.18,2.18,0,0,1-.84.29c-.33,0-.67.3-1,.51a.51.51,0,0,0-.13.43c0,.08.23.16.35.16a3.82,3.82,0,0,0,.68-.08c.45-.07.89-.16,1.07-.67l.11,0a2.74,2.74,0,0,0,.76,1.52,2.53,2.53,0,0,0,.12-.54,1.22,1.22,0,0,1,.29-.84A3,3,0,0,0,19.87,9c-.39-.15-.72-.34-1.12-.09a1.87,1.87,0,0,1-.51.12Zm18.84,1.7a.9.9,0,0,0,.17.11l.42.11a1.61,1.61,0,0,0-.09-.39c-.35-.66-.46-.56.22-1.05.24-.18.23-.33,0-.51s-.82,0-1.1.34a.68.68,0,0,1-.5.32c-.12,0-.32.13-.32.21a1.19,1.19,0,0,0,.37,1,.41.41,0,0,1,.18.32c0,.08.12.2.21.23s.19-.08.23-.15A4.67,4.67,0,0,0,37.27,10.23Zm-5.94,6.85c-.6-.05-1.18-.11-1.76-.15a.29.29,0,0,0-.22.18,1,1,0,0,0,.93,1.29h.06a.92.92,0,0,0,1-.81A4.31,4.31,0,0,0,31.33,17.08ZM20.69,9.76c0-.06-.05-.24-.13-.26a.4.4,0,0,0-.33.13,2.75,2.75,0,0,0-.41.55.52.52,0,0,0,.06.62,1.19,1.19,0,0,0,1.06.43.7.7,0,0,0,.61-.45c.14-.35.08-.46-.28-.53l-.3,0C20.75,10.16,20.62,10.07,20.69,9.76ZM14.21,34.87s-.07-.11-.12-.13c-.56-.28-1.11-.57-1.69-.81a1.11,1.11,0,0,0-1.06.25.78.78,0,0,0,.34.09,1.78,1.78,0,0,1,1.36.55A1.07,1.07,0,0,0,14.21,34.87ZM32.67,21.93c-.3.12-.54.21-.76.32a.3.3,0,0,0-.13.22,3.86,3.86,0,0,0,0,.77c.06.34.27.4.52.15A1.67,1.67,0,0,0,32.67,21.93Zm-12-13.46a.59.59,0,0,0,.8-.33.19.19,0,0,0,0-.15.69.69,0,0,1-.28-.62s-.11-.11-.17-.11a1,1,0,0,0-.7,1.23l.71-.6L21,8Zm-4.8,27a1.07,1.07,0,0,0-1.8,0A3.76,3.76,0,0,0,15.83,35.5Zm-1.92-1.62c0-.34-.08-.52-.35-.57Zm2.73,1.64c-.17-.26-.33-.22-.52.1Zm-3.16.2,0-.16-.36,0a1.21,1.21,0,0,0,0,.16Zm11.18,20.9-.44.1,0,.14.4-.15A.62.62,0,0,0,24.66,56.62Z" transform="translate(-2.1 -5.12)"/><path class="cls-2" d="M33.15,24.87a1.29,1.29,0,0,0,.48-.08c.37-.23.72-.5,1.06-.77a.28.28,0,0,0,.08-.23c-.05-.29.13-.41.33-.57a7.75,7.75,0,0,0,1-1,1.47,1.47,0,0,0,.19-.61c0-.18.05-.36.07-.54h.1l.05.45c.07.59.33.8.91.69a11.07,11.07,0,0,0,1.23-.31.67.67,0,0,0,.5-.71c0-.26.07-.43.36-.44s.2-.15.18-.3c0-.53,0-.53.5-.58a1.82,1.82,0,0,0,.43-.08c.08,0,.14-.12.21-.18s-.13-.13-.21-.15-.4-.07-.6-.11a5.24,5.24,0,0,1-.7-.16.63.63,0,0,1-.45-.82c.05-.22.15-.43.22-.65a1.61,1.61,0,0,0,.12-.45,1,1,0,0,0-.14-.35c-.09.06-.24.09-.28.17-.25.51-.48,1-.71,1.55a.79.79,0,0,0,.11.83.65.65,0,0,1,0,.9,2.71,2.71,0,0,0-.33.72c-.16.39-.31.48-.75.39a2.44,2.44,0,0,0-.49-1.35c-.13.12-.24.23-.36.32-.35.28-.6.24-.78-.16a4.06,4.06,0,0,1-.21-.65.84.84,0,0,1,.43-1,2.69,2.69,0,0,0,1.22-1.77c.09-.33.13-.67.24-1a1.77,1.77,0,0,1,.36-.69,2.93,2.93,0,0,1,1.86-1,1.46,1.46,0,0,1,.47,0,.36.36,0,0,1,.24.19.54.54,0,0,0,.44.4,4.88,4.88,0,0,0,.7.15,1.35,1.35,0,0,1,1.11.8,2.71,2.71,0,0,0,.26.42,1.77,1.77,0,0,0,.25.23l.07,0c0-.11,0-.22,0-.33s-.07-.49-.07-.74c0-.09.11-.19.16-.28.08.06.2.1.25.18.23.36.27.37.61.09l.4-.34c.14-.11.27-.22.47-.11s.16,0,.23,0a2.87,2.87,0,0,1,.37-.11c.16,0,.29,0,.28-.24s-.07-.34-.3-.35a2.1,2.1,0,0,1-.39,0c-.41-.09-.82-.18-1.21-.31-.1,0-.18-.18-.22-.29a1.71,1.71,0,0,1-.06-.46c0-.46,0-.92-.07-1.37a1.44,1.44,0,0,1,.26-1,.34.34,0,0,1,.31-.1c.15.06.34.14.28.38a1.85,1.85,0,0,1-.09.23,1.81,1.81,0,0,0,1.18,2.56,7.51,7.51,0,0,0,1.11.22c.27,0,.34-.08.22-.32s-.21-.31-.28-.48a2.59,2.59,0,0,1-.18-.79,6.61,6.61,0,0,1,2.05,2.14l.12-.16a26.11,26.11,0,0,1,6.82,21.94h-.1a3.54,3.54,0,0,0-.11-.65c-.23-.63-.47-1.25-.73-1.87a.61.61,0,0,0-.57-.37.28.28,0,0,1-.31-.28.63.63,0,0,0-.15-.32,2.53,2.53,0,0,0-1.82-.92c-.28,0-.56,0-.83,0s-.51-.12-.76-.17a4.56,4.56,0,0,0-.62-.1,2,2,0,0,1-1.4-.57,1.67,1.67,0,0,0-.32-.21l-.07.06a.79.79,0,0,0,.08.29c.18.22.38.42.57.63s.24.3.37.42a.43.43,0,0,0,.28.14,3.41,3.41,0,0,0,.58-.17c.36-.12.45-.08.67.23a1.65,1.65,0,0,0,.37.4c.29.21.4.37.23.69a3.27,3.27,0,0,1-.73,1,9.06,9.06,0,0,1-3.09,1.71.85.85,0,0,0-.28.11c-.09.07-.23.23-.2.26s.23.33.34.33a8.61,8.61,0,0,0,1.23-.18,1,1,0,0,0,.31-.17c.2-.12.32-.07.28.16a2.44,2.44,0,0,1-.29.9c-.51.76-1.06,1.51-1.62,2.23-.4.52-.87,1-1.27,1.49a.89.89,0,0,0-.17.55c0,.52.1,1,.17,1.56a1.64,1.64,0,0,1-.52,1.5c-.31.28-.6.59-.91.89a.53.53,0,0,0-.15.62.88.88,0,0,1-.26,1,3.69,3.69,0,0,0-.51.77,3.64,3.64,0,0,1-2.68,2.23,3,3,0,0,1-.52,0,.45.45,0,0,1-.43-.33c-.22-.68-.44-1.36-.65-2s-.46-1.49-.67-2.24a1.87,1.87,0,0,1,.25-1.66.59.59,0,0,0,.09-.57,1.43,1.43,0,0,1-.05-.62,1,1,0,0,0-.22-.77c-.23-.31-.47-.61-.68-.93a1.21,1.21,0,0,1-.19-1.18,1.17,1.17,0,0,0,.06-.41c0-.65-.15-.62-.57-.7a4,4,0,0,1-1-.42.3.3,0,0,0-.37,0,2,2,0,0,1-1.27.38c-.5,0-1,0-1.49,0a.78.78,0,0,1-.37-.16c-.24-.16-.48-.32-.71-.5A2,2,0,0,1,31,38c-.25-.3-.48-.62-.75-.9a1.19,1.19,0,0,1-.36-.81c0-.36,0-.72,0-1.08s-.07-.75-.09-1.12a1.09,1.09,0,0,1,.07-.48,4.4,4.4,0,0,1,1.34-1.92,1.16,1.16,0,0,0,.28-.37c.24-.4.46-.81.69-1.22.05-.1.13-.18.18-.28.29-.49.26-.76-.21-1.08a.84.84,0,0,1-.4-1c.08-.25.14-.51.23-.77a.63.63,0,0,1,.62-.45c.27,0,.55-.06.82-.1a.56.56,0,0,0,.25-1c-.11-.09-.23-.18-.36-.26L33.05,25ZM40,27.57c.2.18.38.33.55.5a.33.33,0,0,1,.05.47c-.16.2-.81.12-1-.09A5.06,5.06,0,0,0,39,27.8c-.19-.17-.26-.13-.33.12a1.58,1.58,0,0,1-.63.88.44.44,0,0,1-.59-.17c-.1-.19,0-.32.22-.45a.53.53,0,0,0,.24-.28.42.42,0,0,0-.19-.5c-.29-.18-.57-.37-.87-.53s-.38-.2-.56,0c0,0-.15,0-.23,0s-.44,0-.66,0a.63.63,0,0,0-.4.15,4.8,4.8,0,0,0-.75,1,1.77,1.77,0,0,1-.84.91l-.34.19a.17.17,0,0,0,.15,0,2.92,2.92,0,0,0,.48-.2,5.71,5.71,0,0,1,3.14-.48c.24,0,.34.13.36.36s0,.62.06.95a1.72,1.72,0,0,1,1.27.54.86.86,0,0,0,.25.17c.15.06.32.11.48.16a3,3,0,0,0,.06-.47c0-.38.07-.47.45-.39s1,.22,1.47.35a2.08,2.08,0,0,0,1.88-.34,1.12,1.12,0,0,0,.35-1.34l-.73.26a1.48,1.48,0,0,1-1.46-.23,1.68,1.68,0,0,1-.66-.95c-.11-.4-.25-.44-.57-.17Zm3.61,3.66a.7.7,0,0,0-.15.74,9.41,9.41,0,0,0,.43.86c.21.4.43.78.64,1.18s.35.75.56,1.1a2.38,2.38,0,0,0,.45.52c.07.06.2.06.3.09s.09-.19.07-.28a3.16,3.16,0,0,0-.24-.78c-.4-.75-.84-1.48-1.26-2.22-.09-.17-.17-.35-.28-.51S43.81,31.49,43.62,31.23ZM44,26.89c.37,0,.57-.17.62-.41s-.16-.42-.38-.52a1.41,1.41,0,0,1-.87-.93c0-.09-.23-.23-.27-.21s-.11.24,0,.38.09.1.11.16a.44.44,0,0,1,0,.25.64.64,0,0,1-1,.23.28.28,0,0,0-.46,0,1.51,1.51,0,0,0-.34.43.51.51,0,0,0,0,.4c0,.07.21.09.31.08a1.36,1.36,0,0,0,.47-.16.81.81,0,0,1,.76,0C43.38,26.7,43.7,26.78,44,26.89ZM41.9,17.66a3.21,3.21,0,0,1-.15-.42.4.4,0,0,1,0-.27s.15,0,.23,0,.18,0,.22-.08a1.45,1.45,0,0,0,.17-.34c.08-.19,0-.3-.2-.26a4.38,4.38,0,0,0-.71.21.36.36,0,0,0-.18.22A.87.87,0,0,0,41.9,17.66Zm-4.39,8.22c.13.52,1,1.06,1.31.89A2.84,2.84,0,0,0,37.51,25.89Z" transform="translate(-2.1 -5.12)"/><path class="cls-2" d="M10.61,34.42a1.69,1.69,0,0,1-.24,1.15c-.27.45-.19.62.34.68.3,0,.6.05.93.08,0,.34.06.68.08,1,0,.66.19.8.86.86l.28,0a1.53,1.53,0,0,0,1.74-.69.42.42,0,0,1,.56-.15c.16.06.34.08.5.14a1,1,0,0,1,.39.22.59.59,0,0,0,.54.21,4.69,4.69,0,0,0,.66-.06,7,7,0,0,0,.74-.25.15.15,0,0,1,0,.07,2.09,2.09,0,0,0,1.76,1.5,2.07,2.07,0,0,1,1.38,1.19,1.09,1.09,0,0,0,.37.47,6.2,6.2,0,0,0,2.18.82,2.79,2.79,0,0,1,1.64.9.48.48,0,0,1,.17.57A9.71,9.71,0,0,0,25,46.43a8.4,8.4,0,0,1-.13.85.44.44,0,0,1-.4.36,2.15,2.15,0,0,0-.56.26c-.12.06-.23.15-.35.22a.57.57,0,0,0-.25.67,2.28,2.28,0,0,1-.21,1.57.55.55,0,0,0-.07.35.42.42,0,0,1-.22.58,1.27,1.27,0,0,1-.16.11c-.2.08-.22.19-.15.41a1.32,1.32,0,0,1,0,.69c0,.13-.21.27-.35.33S22,52.9,22,53s0,.29-.21.33a.13.13,0,0,0,0,.26c.5.18.37.53.29.88a3.55,3.55,0,0,0,0,.41.58.58,0,0,0,.22.5,1,1,0,0,1,.3.53,2.77,2.77,0,0,0,.68,1.54.55.55,0,0,1,.11.26,2,2,0,0,1-1.41-.54,13.09,13.09,0,0,1-1.33-1.78.87.87,0,0,1-.12-.44.38.38,0,0,0-.2-.38,1.05,1.05,0,0,1-.57-1,1.23,1.23,0,0,0-.29-.67A2.11,2.11,0,0,1,19,51.7a2.81,2.81,0,0,0-.22-.79c-.28-.83-.57-1.67-.86-2.5-.12-.36-.22-.72-.36-1.07a2.8,2.8,0,0,0-1.28-1.4,5.82,5.82,0,0,1-2.06-1.84,4.89,4.89,0,0,0-.7-.75.6.6,0,0,1-.21-.54,3,3,0,0,0-.14-1.33.81.81,0,0,1,.08-.51c.11-.26.3-.49.41-.75a1.31,1.31,0,0,0-.74-1.58l-.09.29a.35.35,0,0,1-.13,0,4.11,4.11,0,0,1-1.82-1.2,2.14,2.14,0,0,0-1.07-.79q-1-.34-2.1-.66A4.93,4.93,0,0,1,6,35.51,1.56,1.56,0,0,1,5.62,35c-.15-.31-.24-.66-.41-1-.41-.72-.85-1.42-1.29-2.13a3.78,3.78,0,0,0-.26-.34l-.11.05L4.41,34,4.32,34a1.65,1.65,0,0,1-.26-.24,3.79,3.79,0,0,1-.8-1.7c0-.22-.21-.43-.22-.64a14.41,14.41,0,0,1,0-2.12A26.35,26.35,0,0,1,6,19.86a27,27,0,0,1,5.47-7c.15-.14.33-.26.51-.41a3.41,3.41,0,0,0,.15.32,1.88,1.88,0,0,0,.31.45,1.28,1.28,0,0,0,.42.16,1.39,1.39,0,0,0,.11-.4.65.65,0,0,1,.24-.58,1.07,1.07,0,0,0,.32-1,.42.42,0,0,1,.09-.32c.46-.35.94-.68,1.42-1a.39.39,0,0,1,.26-.06.45.45,0,0,1,.25.15s0,.15-.1.21-.38.35-.07.64l-.21.1c.11.24.26.2.41.12s.52-.32.78-.47a3.26,3.26,0,0,1,.44-.17l.06.06a1.56,1.56,0,0,1-.11.28c-.28.45-.56.91-.86,1.35a2,2,0,0,0-.41,1.2c0,.18-.08.25-.26.32a.88.88,0,0,1-.72,0c-.11,0-.3.06-.43.14s0,.23.08.33a.7.7,0,0,0,1.15.08,8,8,0,0,1,.74-.73,2.73,2.73,0,0,0,.67-1,17.5,17.5,0,0,1,1-1.47.57.57,0,0,1,.83-.24,8.64,8.64,0,0,0,.84.27,2.36,2.36,0,0,1-.63.42,1.22,1.22,0,0,0-.8.63c-.14.24-.23.52-.36.77s-.26.38-.36.59a.41.41,0,0,0,0,.35.64.64,0,0,1,.06.79s0,.09,0,.18a3.33,3.33,0,0,0,1.07-1.06c.09-.14,0-.23-.14-.27-.28-.08-.25-.21-.1-.39a.71.71,0,0,0,.15-.29c.19-.84.84-1.21,1.54-1.53.18-.08.34,0,.37.19h.37a.57.57,0,0,1,.6.66c0,.17,0,.35,0,.52a1.06,1.06,0,0,0,.15.49,5.81,5.81,0,0,0,.47.73.81.81,0,0,1-.17.85c-.22.29-.22.34,0,.61a.85.85,0,0,1,.09.33,1.58,1.58,0,0,0,.11.46.27.27,0,0,1,0,.37c-.14.15-.27.3-.41.44S21,17.2,21,17a.27.27,0,0,0,0-.07l-.27-.27c0,.14-.08.28-.11.42s0,.05,0,.08a.91.91,0,0,1-.75,1.25.22.22,0,0,1-.3-.1,7.08,7.08,0,0,0-.68-.83.78.78,0,0,0-.43-.21c-.2,0-.35-.05-.32-.3s.25-.43.44-.34.43,0,.59-.2.38-.4.56-.61a1.41,1.41,0,0,0-.29-1.77.39.39,0,0,0-.63.22c-.23.62-.46,1.24-.71,1.86a.38.38,0,0,1-.26.17c-.26,0-.52.06-.85.1.16.23.27.38.38.54s.12.44-.19.5-.61.1-1,.16l.53-1.43a2,2,0,0,0-.28.13c-.28.2-.56.39-.82.6-.46.38-.91.78-1.36,1.17a2.63,2.63,0,0,0-.89,1.49.8.8,0,0,0,.22.81c.35.34.68.7,1,1a.47.47,0,0,1,.15.48,5.49,5.49,0,0,0-.09.82c0,.1.08.21.13.31.09-.06.22-.11.27-.19a2.14,2.14,0,0,0,.24-.5,2,2,0,0,1,.7-1l.06-.05c.69-.56.69-.56.29-1.37a1.4,1.4,0,0,0,.24-.22q.27-.39.52-.79a2,2,0,0,0,.08-.29c.09-.22.09-.51.42-.54a.9.9,0,0,1,.86.47.51.51,0,0,0,.25.22c.24.09.29.18.19.43a4.12,4.12,0,0,0-.25.55c0,.12,0,.33.05.37a.44.44,0,0,0,.4,0,4.2,4.2,0,0,0,.55-.56,1.74,1.74,0,0,0,.16-.27h.09c0,.17,0,.35,0,.52,0,.41,0,.83,0,1.24a.83.83,0,0,0,.2.5,1.65,1.65,0,0,1,.4,1.17c0,.41,0,.83.05,1.24,0,.17.06.3.26.33a.25.25,0,0,1,.17.15.88.88,0,0,1-.13.79.38.38,0,0,1-.56.09,1.08,1.08,0,0,0-.9-.39l0-.07,1-1.33-.07-.09a4.72,4.72,0,0,0-.66.28,1.62,1.62,0,0,1-1.44.21,1.8,1.8,0,0,0-.54,0l0,.11a2.93,2.93,0,0,0,.35.24c.14.07.21.16.11.3s0,.31.14.42a3.62,3.62,0,0,1,.51.37c.27.25.21.47-.14.59-.18.06-.37.12-.54.2a1.19,1.19,0,0,1-1,.12c-.48-.2-.66-.05-.89.41l-.21.42a.52.52,0,0,1-.43.3.78.78,0,0,0-.47.24,4.06,4.06,0,0,0-.93,1.82.83.83,0,0,1-.31.43c-.33.27-.69.49-1,.77-.5.42-.53.67-.3,1.29a6.12,6.12,0,0,1,.26.93c0,.1-.06.22-.09.33-.1-.05-.24-.08-.29-.16a7.86,7.86,0,0,1-.49-.95,1.25,1.25,0,0,0-1.16-.76.67.67,0,0,0-.42.22.6.6,0,0,1-.55.24c-.3,0-.61,0-.91,0a.84.84,0,0,0-.82.54,3.66,3.66,0,0,0-.27,2.26,1.21,1.21,0,0,0,1.21,1,.59.59,0,0,0,.63-.4A1,1,0,0,1,10.61,34.42ZM13,26.32c.29-.2.45-.61.35-.8s-.18-.12-.29-.13-.15.09-.15.13C13,25.77,13,26,13,26.32ZM10.1,14.46c0,.34.07.43.28.4a.86.86,0,0,0,.27-.15l-.39-.47ZM12,26.12a.83.83,0,0,0-.2.87A.77.77,0,0,0,12,26.12Zm.64-1.53-.48.3C12.45,25,12.59,24.93,12.61,24.59Z" transform="translate(-2.1 -5.12)"/><path class="cls-2" d="M27.45,6.55c.26.18.73-.27.84.42l.38-.53,0,.08a2.9,2.9,0,0,0,.46,0,1.48,1.48,0,0,0,.4-.18,2.31,2.31,0,0,1,1.82-.18,1.2,1.2,0,0,1,.48.25c.36.3.36.49,0,.84a1,1,0,0,0-.12.26.8.8,0,0,0,.24.1c.2,0,.4,0,.61,0s.35.1.25.32a2,2,0,0,1-.39.5c-.1.11-.25.17-.32.28a5.5,5.5,0,0,0-.78,2,17,17,0,0,1-.5,1.93.74.74,0,0,1-.5.51.58.58,0,0,0-.22.83,1,1,0,0,1-.24,1.35,2.77,2.77,0,0,1-1.91,1,.46.46,0,0,0-.21.07l-1.34.81a4.09,4.09,0,0,0-.65.46,2.58,2.58,0,0,0-.34.51v0c-.32.51-.63,1-1,1.51,0,0-.19.05-.25,0a1.24,1.24,0,0,1-.64-.86,15.78,15.78,0,0,1-.15-2.19,2.27,2.27,0,0,1,.4-.94,2.19,2.19,0,0,1,.41-.44.33.33,0,0,0,.06-.52.87.87,0,0,1-.1-.57,2.41,2.41,0,0,1,.23-.68,4.73,4.73,0,0,0,.35-2.21.61.61,0,0,0-.72-.58l-.54.08a1.5,1.5,0,0,1,.22-1A1.27,1.27,0,0,0,24,9.24a.59.59,0,0,1,.51-.53,4.92,4.92,0,0,0,.66-.18.58.58,0,0,0,.3-.22c.14-.25.23-.52.35-.81l-.11,0a6.65,6.65,0,0,0-1.38.71c-.66.56-1.23,1.22-1.84,1.85-.06.06-.1.14-.15.19a.31.31,0,0,1-.48,0,4.34,4.34,0,0,0-.41-.21c-.17-.11-.4-.21-.45-.36s.15-.32.25-.47A1.47,1.47,0,0,1,21.54,9l.55-.5-.68.07c.11-.26.22-.47.29-.68a1.73,1.73,0,0,1,1.57-1.29c1.22-.15,2.44-.36,3.65-.55h.22C27.61,6.08,27.66,6.16,27.45,6.55Zm-4.6,1.91L22.77,8c-.06,0-.14.05-.16.1S22.58,8.36,22.85,8.46Z" transform="translate(-2.1 -5.12)"/><path class="cls-2" d="M32.91,24.38c0-.18,0-.35,0-.53a2,2,0,0,1,.39-1.24c.07-.08,0-.29,0-.42s-.18-.18-.26-.28a.85.85,0,0,1,0-1.17c.2-.22.42-.2.54.07a2,2,0,0,1,.06.49,1,1,0,0,0,.07.36c.2.36.43.7.65,1.05a1.44,1.44,0,0,1,.17.37c.1.4,0,.45-.35.56a2.7,2.7,0,0,0-.69.41c-.15.1-.29.23-.43.35Z" transform="translate(-2.1 -5.12)"/><path class="cls-3" d="M47.64,43.67a3.9,3.9,0,0,1-.1.72c-.31.93-.64,1.85-1,2.78a.42.42,0,0,1-.53.33c-.24-.05-.61-.38-.61-.58a.55.55,0,0,1,.08-.23c.11-.23.24-.45.35-.69a2.06,2.06,0,0,1,.68-1,4.07,4.07,0,0,0,.75-1c.1-.14.19-.28.29-.42Z" transform="translate(-2.1 -5.12)"/><path class="cls-2" d="M18.42,8.53l-.18.53a1.87,1.87,0,0,0,.51-.12c.4-.25.73-.06,1.12.09a3,3,0,0,1-.18.27,1.22,1.22,0,0,0-.29.84,2.53,2.53,0,0,1-.12.54,2.74,2.74,0,0,1-.76-1.52l-.11,0c-.18.51-.62.6-1.07.67a3.82,3.82,0,0,1-.68.08c-.13,0-.34-.09-.35-.16a.51.51,0,0,1,.13-.43c.31-.21.65-.51,1-.51a2.18,2.18,0,0,0,.84-.29A.74.74,0,0,1,18.42,8.53Z" transform="translate(-2.1 -5.12)"/><path class="cls-2" d="M37.27,10.23a4.67,4.67,0,0,1-.24.53c0,.07-.18.17-.23.15s-.21-.15-.21-.23a.41.41,0,0,0-.18-.32,1.19,1.19,0,0,1-.37-1c0-.08.21-.2.32-.21a.68.68,0,0,0,.5-.32c.28-.34.73-.62,1.1-.34s.26.33,0,.51c-.68.49-.57.39-.22,1.05a1.61,1.61,0,0,1,.09.39l-.42-.11A.9.9,0,0,1,37.27,10.23Z" transform="translate(-2.1 -5.12)"/><path class="cls-2" d="M31.33,17.08a4.31,4.31,0,0,1,0,.51.92.92,0,0,1-1,.81h-.06a1,1,0,0,1-.93-1.29.29.29,0,0,1,.22-.18C30.15,17,30.73,17,31.33,17.08Z" transform="translate(-2.1 -5.12)"/><path class="cls-2" d="M20.69,9.76c-.07.31.06.4.28.42l.3,0c.37.07.43.18.28.53a.7.7,0,0,1-.61.45,1.19,1.19,0,0,1-1.06-.43.52.52,0,0,1-.06-.62,2.75,2.75,0,0,1,.41-.55.4.4,0,0,1,.33-.13C20.64,9.52,20.67,9.7,20.69,9.76Z" transform="translate(-2.1 -5.12)"/><path class="cls-2" d="M14.21,34.87A1.07,1.07,0,0,1,13,34.82a1.78,1.78,0,0,0-1.36-.55.78.78,0,0,1-.34-.09,1.11,1.11,0,0,1,1.06-.25c.58.24,1.13.53,1.69.81C14.14,34.76,14.17,34.82,14.21,34.87Z" transform="translate(-2.1 -5.12)"/><path class="cls-2" d="M32.67,21.93a1.67,1.67,0,0,1-.33,1.47c-.25.25-.46.19-.52-.15a3.86,3.86,0,0,1,0-.77.3.3,0,0,1,.13-.22C32.14,22.14,32.38,22.06,32.67,21.93Z" transform="translate(-2.1 -5.12)"/><path class="cls-2" d="M20.64,8.48,21,8l-.06-.06-.71.6a1,1,0,0,1,.7-1.23c.05,0,.17.07.17.11a.69.69,0,0,0,.28.62.19.19,0,0,1,0,.15A.59.59,0,0,1,20.64,8.48Z" transform="translate(-2.1 -5.12)"/><path class="cls-2" d="M15.83,35.5a3.76,3.76,0,0,1-1.8,0A1.07,1.07,0,0,1,15.83,35.5Z" transform="translate(-2.1 -5.12)"/><path class="cls-2" d="M13.91,33.88l-.35-.57C13.84,33.36,14,33.54,13.91,33.88Z" transform="translate(-2.1 -5.12)"/><path class="cls-2" d="M16.64,35.53l-.52.1C16.32,35.31,16.47,35.27,16.64,35.53Z" transform="translate(-2.1 -5.12)"/><path class="cls-2" d="M13.49,35.72l-.35,0a1.21,1.21,0,0,1,0-.16l.36,0Z" transform="translate(-2.1 -5.12)"/><path class="cls-3" d="M24.66,56.62a.62.62,0,0,1,0,.1l-.4.15,0-.14Z" transform="translate(-2.1 -5.12)"/><path class="cls-4" d="M40,27.57l.1-.11c.32-.27.47-.24.57.17a1.68,1.68,0,0,0,.66.95,1.48,1.48,0,0,0,1.46.23l.73-.26a1.12,1.12,0,0,1-.35,1.34,2.08,2.08,0,0,1-1.88.34q-.73-.19-1.47-.35c-.38-.08-.46,0-.45.39a3,3,0,0,1-.06.47c-.16-.05-.33-.09-.48-.16a.86.86,0,0,1-.25-.17,1.72,1.72,0,0,0-1.27-.54c0-.33,0-.64-.06-.95s-.11-.36-.36-.36a5.71,5.71,0,0,0-3.14.48,2.92,2.92,0,0,1-.48.2.17.17,0,0,1-.15,0l.34-.19a1.77,1.77,0,0,0,.84-.91,4.8,4.8,0,0,1,.75-1,.63.63,0,0,1,.4-.15c.22,0,.44,0,.66,0s.2,0,.23,0c.18-.23.38-.14.56,0s.58.36.87.53a.42.42,0,0,1,.19.5.53.53,0,0,1-.24.28c-.23.13-.32.26-.22.45a.44.44,0,0,0,.59.17,1.58,1.58,0,0,0,.63-.88c.07-.25.14-.29.33-.12a5.06,5.06,0,0,1,.59.65c.16.21.81.29,1,.09a.33.33,0,0,0-.05-.47C40.38,27.9,40.2,27.75,40,27.57Zm-3.26,0c0-.35-.15-.58-.31-.56a.48.48,0,0,0-.23.54c.06.15.23.25.35.38Z" transform="translate(-2.1 -5.12)"/><path class="cls-4" d="M43.62,31.23c.2.26.37.47.53.7s.18.34.28.51c.42.74.86,1.47,1.26,2.22a3.16,3.16,0,0,1,.24.78c0,.08,0,.18-.07.28s-.23,0-.3-.09a2.38,2.38,0,0,1-.45-.52c-.21-.35-.37-.74-.56-1.1s-.43-.79-.64-1.18a9.41,9.41,0,0,1-.43-.86A.7.7,0,0,1,43.62,31.23Z" transform="translate(-2.1 -5.12)"/><path class="cls-4" d="M44,26.89c-.32-.1-.65-.19-1-.31a.81.81,0,0,0-.76,0,1.36,1.36,0,0,1-.47.16c-.1,0-.27,0-.31-.08a.51.51,0,0,1,0-.4,1.51,1.51,0,0,1,.34-.43.28.28,0,0,1,.46,0,.64.64,0,0,0,1-.23.44.44,0,0,0,0-.25c0-.06-.08-.1-.11-.16s-.14-.29,0-.38.25.11.27.21a1.41,1.41,0,0,0,.87.93c.22.1.45.2.38.52S44.39,26.84,44,26.89Z" transform="translate(-2.1 -5.12)"/><path class="cls-4" d="M41.9,17.66a.87.87,0,0,1-.58-1,.36.36,0,0,1,.18-.22,4.38,4.38,0,0,1,.71-.21c.2,0,.28.06.2.26a1.45,1.45,0,0,1-.17.34c0,.05-.14.06-.22.08s-.21,0-.23,0a.4.4,0,0,0,0,.27A3.21,3.21,0,0,0,41.9,17.66Z" transform="translate(-2.1 -5.12)"/><path class="cls-4" d="M37.51,25.89a2.84,2.84,0,0,1,1.31.89C38.46,26.95,37.64,26.41,37.51,25.89Z" transform="translate(-2.1 -5.12)"/><path class="cls-4" d="M13,26.32c0-.3-.08-.55-.09-.8,0,0,.11-.14.15-.13s.24.06.29.13S13.33,26.12,13,26.32Z" transform="translate(-2.1 -5.12)"/><path class="cls-4" d="M10.1,14.46l.17-.22.39.47a.86.86,0,0,1-.27.15C10.17,14.89,10.11,14.81,10.1,14.46Z" transform="translate(-2.1 -5.12)"/><path class="cls-4" d="M12,26.12a.77.77,0,0,1-.2.87A.83.83,0,0,1,12,26.12Z" transform="translate(-2.1 -5.12)"/><path class="cls-4" d="M12.61,24.59c0,.34-.16.43-.48.3Z" transform="translate(-2.1 -5.12)"/><path class="cls-4" d="M22.85,8.46c-.27-.1-.32-.22-.25-.37s.11-.07.16-.1Z" transform="translate(-2.1 -5.12)"/><path class="cls-3" d="M36.75,27.59l-.19.36c-.12-.12-.28-.23-.35-.38a.48.48,0,0,1,.23-.54C36.59,27,36.71,27.24,36.75,27.59Z" transform="translate(-2.1 -5.12)"/><path class="cls-5" d="M40,24.41a64.13,64.13,0,0,0-15,2.42l-.6.16-.05.82A44.63,44.63,0,0,0,24.91,39a36.11,36.11,0,0,0,7.26,16.16,36.49,36.49,0,0,0,5.66,5.65,22,22,0,0,0,2.89,2,1,1,0,0,0,1-.11c.71-.48,1.82-1.3,2.63-1.94A36.72,36.72,0,0,0,49.9,55.2a35.33,35.33,0,0,0,5.51-9.68A39.66,39.66,0,0,0,57.8,34.47c.08-1.18.1-1.73.1-3.29a25.39,25.39,0,0,0-.18-3.91,1.6,1.6,0,0,0-.1-.32s-1.38-.41-2.32-.66A53.6,53.6,0,0,0,41.25,24.4Z" transform="translate(-2.1 -5.12)"/><path class="cls-6" d="M41,24.84l.07,37.64a1.48,1.48,0,0,0,.73-.17c.7-.47,1.78-1.27,2.57-1.9A35.94,35.94,0,0,0,49.88,55a34.59,34.59,0,0,0,5.4-9.48,38.82,38.82,0,0,0,2.34-10.82c.08-1.15.1-1.69.1-3.22a24.86,24.86,0,0,0-.17-3.82,1.57,1.57,0,0,0-.09-.31s-1.35-.4-2.27-.64a55.86,55.86,0,0,0-13.72-1.82Z" transform="translate(-2.1 -5.12)"/><text class="cls-7" transform="translate(28.3 36.38)">Y<tspan class="cls-8" x="6.39" y="0">C</tspan><tspan class="cls-9" x="12.99" y="0">A</tspan></text></g></svg>