<svg id="Layer_1" data-name="Layer 1" xmlns="http://www.w3.org/2000/svg" viewBox="0 0 52.51 63.35"><defs><style>.cls-1{fill:#f3f8f9;}.cls-2{fill:#f4b440;}.cls-3{fill:#f4b139;}.cls-4{fill:#b2b2b2;}.cls-5{fill:#b3b1b1;}.cls-6{fill:#979797;}.cls-7{fill:#f4b441;}.cls-8{fill:#f5b23c;}.cls-9{fill:#f5b33e;}.cls-10{fill:#4b9dd6;}.cls-11{fill:#f9f9f9;}.cls-12{fill:#f05930;}.cls-13{fill:#4a9ad4;}.cls-14{fill:#597585;}</style></defs><title>young-coders-academy-bulb</title><g id="iCON"><path class="cls-1" d="M33,62.59a2.88,2.88,0,0,1-1.49,3.09h-3.1A2.9,2.9,0,0,1,27,62.59Z" transform="translate(-3.75 -2.32)"/><path class="cls-2" d="M30.42,2.32a28.27,28.27,0,0,1,.39,3c0,.24-.53.7-.81.7s-.82-.46-.81-.7a28.43,28.43,0,0,1,.39-3Z" transform="translate(-3.75 -2.32)"/><path class="cls-3" d="M21.18,52.68a17.27,17.27,0,0,0-4.95-11.59A18.71,18.71,0,0,1,31.14,9.7c7.63.54,13.21,4.45,16.12,11.53,3,7.29,1.68,14.1-3.6,20a17.07,17.07,0,0,0-4.83,11.49l-3.57,0-.07-.27c0-3.7.06-7.4.05-11.09,0-4.73,0-9.45-.07-14.18l-2.48-3.71L30,19.21l-2.68,4.23-2.48,3.71,0,25.27-.07.28ZM45.93,27.43a14.73,14.73,0,0,0-5.09-10.72,32.48,32.48,0,0,0-6.12-3.56,1.83,1.83,0,0,0-1.67.63c-.4.7.11,1.31.92,1.54.27.08.53.18.79.28a12.89,12.89,0,0,1,7.62,7.23,52,52,0,0,1,1.3,5.26c.16.56.69,1.35,1.13,1.41.93.13,1.2-.67,1.15-1.52C46,27.81,45.94,27.62,45.93,27.43ZM30.17,15.29c.81-.73,1.67-1.13,1.76-1.67.17-1-.77-1.23-1.61-1.26s-1.75.19-1.65,1.21C28.72,14.08,29.47,14.52,30.17,15.29Z" transform="translate(-3.75 -2.32)"/><path class="cls-4" d="M33,62.59H27a6.82,6.82,0,0,1-5.29-4.78H38.34A6.89,6.89,0,0,1,33,62.59Z" transform="translate(-3.75 -2.32)"/><path class="cls-5" d="M35.25,52.7l3.57,0q0,1.44,0,2.87H21.17q0-1.44,0-2.87l3.57,0L29,52.62h2Z" transform="translate(-3.75 -2.32)"/><path class="cls-6" d="M21.17,55.55H38.83l-.49,2.26H21.66Z" transform="translate(-3.75 -2.32)"/><path class="cls-7" d="M54.82,27.75a1.64,1.64,0,0,1,.75.09c.29.13.71.51.68.73a1.2,1.2,0,0,1-.68.86,4.51,4.51,0,0,1-1.93.06c-.39-.08-.69-.56-1-.85a7.24,7.24,0,0,1,1-.87C53.86,27.65,54.2,27.75,54.82,27.75Z" transform="translate(-3.75 -2.32)"/><path class="cls-7" d="M5.57,27.73a2.85,2.85,0,0,1,1.1.09,1.37,1.37,0,0,1,.67.87c0,.23-.37.7-.62.74a7.42,7.42,0,0,1-2.21,0,1.13,1.13,0,0,1-.76-.79c0-.28.41-.67.73-.84A3,3,0,0,1,5.57,27.73Z" transform="translate(-3.75 -2.32)"/><path class="cls-8" d="M19.29,8.29c-.24.32-.38.71-.61.77a1.13,1.13,0,0,1-1-.17,9.35,9.35,0,0,1-1.2-2c-.1-.23.14-.72.37-.92a.86.86,0,0,1,.84,0C18.27,6.66,18.75,7.46,19.29,8.29Z" transform="translate(-3.75 -2.32)"/><path class="cls-8" d="M40.68,8.33c.57-.86,1.08-1.68,1.68-2.44.1-.13.69-.08.84.09a1.12,1.12,0,0,1,.27,1,8.46,8.46,0,0,1-1.13,1.92,1.14,1.14,0,0,1-1,.24C41.13,9,41,8.66,40.68,8.33Z" transform="translate(-3.75 -2.32)"/><path class="cls-8" d="M10.95,16.92c-.59.43-1,.91-1.19.83a14.05,14.05,0,0,1-2.49-1.44c-.12-.09,0-.94.23-1a1.71,1.71,0,0,1,1.25.12A24.31,24.31,0,0,1,10.95,16.92Z" transform="translate(-3.75 -2.32)"/><path class="cls-8" d="M50.37,17.93c-.32-.23-.72-.36-.79-.59a1.11,1.11,0,0,1,.16-1,9.39,9.39,0,0,1,2-1.21,1.11,1.11,0,0,1,.93.35.87.87,0,0,1,0,.85C52,16.91,51.2,17.38,50.37,17.93Z" transform="translate(-3.75 -2.32)"/><path class="cls-9" d="M10.57,40.36c-.06.71-2.33,2.06-2.93,1.77a.76.76,0,0,1-.4-.36c-.42-1.48,1-1.43,1.72-1.91.32-.22,1,.07,1.51.16C10.53,40,10.55,40.27,10.57,40.36Z" transform="translate(-3.75 -2.32)"/><path class="cls-8" d="M50,39.11c1.19.78,2,1.28,2.77,1.86.14.11.1.65,0,.85s-.63.44-.81.35a9.74,9.74,0,0,1-2.23-1.39C49.47,40.63,49.8,39.9,50,39.11Z" transform="translate(-3.75 -2.32)"/><path class="cls-10" d="M29,52.62l-4.26.09.07-.28a10.55,10.55,0,0,0,.25-1.61c0-7.21,0-14.41,0-21.62a12.52,12.52,0,0,1,.25-1.78l3.69.81Z" transform="translate(-3.75 -2.32)"/><path class="cls-10" d="M35.25,52.7,31,52.62V28.24l3.69-.81a12.53,12.53,0,0,1,.25,1.78c0,7.21,0,14.41,0,21.62a10.56,10.56,0,0,0,.25,1.61Z" transform="translate(-3.75 -2.32)"/><path class="cls-11" d="M34.66,27.43,31,28.24H29l-3.69-.81-.5-.27,2.48-3.71a4.6,4.6,0,0,0,5.38,0l2.48,3.71Z" transform="translate(-3.75 -2.32)"/><path class="cls-12" d="M32.69,23.44a4.6,4.6,0,0,1-5.38,0L30,19.21Z" transform="translate(-3.75 -2.32)"/><path class="cls-13" d="M24.83,27.15l.5.27a12.52,12.52,0,0,0-.25,1.78c0,7.21,0,14.41,0,21.62a10.55,10.55,0,0,1-.25,1.61Z" transform="translate(-3.75 -2.32)"/><path class="cls-13" d="M34.66,27.43l.5-.27c0,4.73.06,9.45.07,14.18,0,3.7,0,7.4-.05,11.09a10.56,10.56,0,0,1-.25-1.61c0-7.21,0-14.41,0-21.62A12.53,12.53,0,0,0,34.66,27.43Z" transform="translate(-3.75 -2.32)"/><path class="cls-14" d="M29,28.24h2q0,12.19,0,24.38H29Z" transform="translate(-3.75 -2.32)"/></g></svg>