<svg id="Layer_1" data-name="Layer 1" xmlns="http://www.w3.org/2000/svg" viewBox="0 0 58.65 56.45"><defs><style>.cls-1{fill:#5eaad1;}.cls-2{fill:#882b79;}.cls-3{fill:#e22a29;}.cls-4{fill:#e89c42;}</style></defs><title>young-coders-academy-logical-thinking-puzzle</title><path class="cls-1" d="M.68,1.78V25.5h8.9l-.41,1.24a3.56,3.56,0,0,0,3.38,4.69h0a3.56,3.56,0,0,0,3.38-4.69L15.5,25.5h8.9V16.6L23.16,17a3.56,3.56,0,0,1-4.69-3.38h0a3.56,3.56,0,0,1,4.69-3.38l1.24.41V1.78Z" transform="translate(-0.68 -1.78)"/><path class="cls-2" d="M24.4,25.5V16.6L23.16,17a3.56,3.56,0,0,1-4.69-3.38h0a3.56,3.56,0,0,1,4.69-3.38l1.24.41V1.78H48.12V25.5h-8.9l.41-1.24a3.56,3.56,0,0,0-3.38-4.69h0a3.56,3.56,0,0,0-3.38,4.69l.41,1.24H24.4Z" transform="translate(-0.68 -1.78)"/><path class="cls-3" d="M.68,25.5h8.9l-.41,1.24a3.56,3.56,0,0,0,3.38,4.69h0a3.56,3.56,0,0,0,3.38-4.69L15.5,25.5h8.9v8.9L23.16,34a3.56,3.56,0,0,0-4.69,3.38h0a3.56,3.56,0,0,0,4.69,3.38l1.24-.41v8.9H.68Z" transform="translate(-0.68 -1.78)"/><path class="cls-4" d="M59.32,58.22V34.5h-8.9l.41-1.24a3.56,3.56,0,0,0-3.38-4.69h0a3.56,3.56,0,0,0-3.38,4.69l.41,1.24H35.6v8.9L34.36,43a3.56,3.56,0,0,0-4.69,3.38h0a3.56,3.56,0,0,0,4.69,3.38l1.24-.41v8.9Z" transform="translate(-0.68 -1.78)"/></svg>