<svg id="Layer_1" data-name="Layer 1" xmlns="http://www.w3.org/2000/svg" viewBox="0 0 58.59 51.48"><defs><style>.cls-1{fill:#e59525;}.cls-2{fill:#445a64;}.cls-3{fill:#546e7a;}.cls-4{fill:#dec3af;opacity:0.8;}.cls-5{fill:#a76b2a;opacity:0.7;}.cls-6{fill:#ccd5d9;}.cls-7{fill:#fcfdff;}.cls-8{fill:#169bc8;}.cls-9{fill:#f2b473;}.cls-10{fill:#f3a557;}</style></defs><title>young-coders-academy-critical-thinking-true-false</title><g id="iCON"><g id="dOWN"><path class="cls-1" d="M18.6,36v2a1.91,1.91,0,0,1,.06.23,11.44,11.44,0,0,0,3.52,6.68,17.93,17.93,0,0,0,4.24,3.07,24.7,24.7,0,0,0,6.83,2.4,31,31,0,0,0,6.16.56.9.9,0,0,1,.48.21c.69.52,1.34,1.09,2.06,1.57a20.32,20.32,0,0,0,7.32,3c1.84.38,2.87-.59,1.65-1.49a8.13,8.13,0,0,1-3.05-4.43.22.22,0,0,1,.16-.32c.47-.17.93-.35,1.39-.53a18.25,18.25,0,0,0,7.19-5A11.09,11.09,0,0,0,59,39.53c.14-.52.23-1,.34-1.57V36c0-.1,0-.2-.06-.31a10.06,10.06,0,0,0-.78-2.77,12.9,12.9,0,0,0-3-4.14,17.94,17.94,0,0,0-3.64-2.65,24.72,24.72,0,0,0-7.56-2.65,30.08,30.08,0,0,0-7.76-.37,26.46,26.46,0,0,0-7.78,1.8,18.9,18.9,0,0,0-7.07,4.72,10.55,10.55,0,0,0-2.32,3.72c-.29.86-.47,1.76-.69,2.65Z" transform="translate(-0.7 -4.26)"/><path class="cls-2" d="M50,34.53H47.51a.6.6,0,0,0-.67.63c0,.22,0,.45,0,.67q0,1.57,0,3.14H50Z" transform="translate(-0.7 -4.26)"/><path class="cls-3" d="M50,39H46.84v3.81a.65.65,0,0,0,.73.63H50Z" transform="translate(-0.7 -4.26)"/><path class="cls-4" d="M35.38,36.44l-.71,2.62c-.17.64-.33,1.28-.51,1.91a1.91,1.91,0,0,0,1.32,2.38,2.57,2.57,0,0,0,.57.07h3c-.12.23-.23.43-.34.63-.21.41-.43.82-.62,1.24a1.87,1.87,0,0,0,1,2.49,1.22,1.22,0,0,0,1.46-.48,13.32,13.32,0,0,0,.7-1.38,2.44,2.44,0,0,1,1.08-1.2,13.28,13.28,0,0,0,2.2-1.65c.31-.26.66-.49,1-.73q0-1.69,0-3.37v-.64a2.52,2.52,0,0,1-1.28-.48c-.34-.26-.69-.5-1-.77a2.83,2.83,0,0,0-1.89-.65C39.38,36.45,37.38,36.44,35.38,36.44Z" transform="translate(-0.7 -4.26)"/><path class="cls-5" d="M35.38,36.44c2,0,4,0,6,0a2.83,2.83,0,0,1,1.89.65c.33.27.68.52,1,.77a2.52,2.52,0,0,0,1.28.48q0-1.28,0-2.56A3.15,3.15,0,0,1,43.83,35a9.15,9.15,0,0,0-1.24-.84,2.26,2.26,0,0,0-1-.22c-1.36,0-2.72,0-4.08,0a1.87,1.87,0,0,0-1.88,1.45C35.56,35.71,35.47,36.08,35.38,36.44Z" transform="translate(-0.7 -4.26)"/><path class="cls-6" d="M45.57,35.79q0,1.28,0,2.56V39h1.27q0-1.57,0-3.14c0-.22,0-.45,0-.67h-.63A.59.59,0,0,0,45.57,35.79Z" transform="translate(-0.7 -4.26)"/><path class="cls-7" d="M46.84,39H45.58q0,1.69,0,3.37a.77.77,0,0,0,.83.44,4.19,4.19,0,0,1,.43,0Z" transform="translate(-0.7 -4.26)"/></g><g id="uP"><path class="cls-8" d="M46,18.72v2.17a2.13,2.13,0,0,0-.07.26A12.72,12.72,0,0,1,42,28.58,19.94,19.94,0,0,1,37.27,32a27.47,27.47,0,0,1-7.6,2.67,34.48,34.48,0,0,1-6.86.63,1,1,0,0,0-.53.24c-.77.58-1.5,1.22-2.29,1.75a22.61,22.61,0,0,1-8.14,3.3C9.79,41,8.65,39.92,10,38.92A9,9,0,0,0,13.41,34a.25.25,0,0,0-.18-.35c-.52-.19-1-.38-1.55-.59a20.3,20.3,0,0,1-8-5.58,12.33,12.33,0,0,1-2.59-4.83c-.15-.58-.25-1.17-.38-1.75V18.7c0-.11.05-.23.07-.34a11.19,11.19,0,0,1,.87-3.08A14.35,14.35,0,0,1,5,10.67,20,20,0,0,1,9,7.72a27.5,27.5,0,0,1,8.41-2.94,33.45,33.45,0,0,1,8.63-.41,29.43,29.43,0,0,1,8.66,2,21,21,0,0,1,7.86,5.25,11.74,11.74,0,0,1,2.59,4.14c.33,1,.52,2,.77,2.95Z" transform="translate(-0.7 -4.26)"/><path class="cls-2" d="M11.85,27.06h3.33a.8.8,0,0,0,.89-.84c0-.3,0-.59,0-.89q0-2.08,0-4.16h-4.2Z" transform="translate(-0.7 -4.26)"/><path class="cls-3" d="M11.85,21.17h4.22V16.12a.87.87,0,0,0-1-.84H11.85Z" transform="translate(-0.7 -4.26)"/><path class="cls-9" d="M31.26,24.54l.94-3.47c.23-.85.43-1.7.68-2.54a2.53,2.53,0,0,0-1.75-3.15,3.41,3.41,0,0,0-.75-.09h-4c.16-.3.31-.57.45-.84.28-.55.57-1.09.82-1.65a2.48,2.48,0,0,0-1.37-3.3,1.61,1.61,0,0,0-1.94.63A17.65,17.65,0,0,0,23.39,12,3.24,3.24,0,0,1,22,13.55,17.6,17.6,0,0,0,19,15.73c-.41.35-.87.65-1.31,1q0,2.24,0,4.47l0,.85a3.35,3.35,0,0,1,1.69.64c.45.34.92.67,1.35,1a3.76,3.76,0,0,0,2.51.87C26,24.52,28.61,24.54,31.26,24.54Z" transform="translate(-0.7 -4.26)"/><path class="cls-10" d="M31.26,24.54c-2.65,0-5.3,0-8,0a3.76,3.76,0,0,1-2.51-.87c-.44-.36-.9-.69-1.35-1A3.35,3.35,0,0,0,17.75,22q0,1.69,0,3.39a4.18,4.18,0,0,1,2.31,1.09A12.12,12.12,0,0,0,21.7,27.6a3,3,0,0,0,1.29.29c1.8,0,3.61,0,5.41,0A2.47,2.47,0,0,0,30.89,26C31,25.5,31.14,25,31.26,24.54Z" transform="translate(-0.7 -4.26)"/><path class="cls-6" d="M17.75,25.4q0-1.69,0-3.39l0-.85H16q0,2.08,0,4.16c0,.3,0,.59,0,.89h.83A.79.79,0,0,0,17.75,25.4Z" transform="translate(-0.7 -4.26)"/><path class="cls-7" d="M16.07,21.17h1.67q0-2.24,0-4.47a1,1,0,0,0-1.09-.58,5.56,5.56,0,0,1-.58,0Z" transform="translate(-0.7 -4.26)"/></g></g></svg>