<svg id="Layer_1" data-name="Layer 1" xmlns="http://www.w3.org/2000/svg" viewBox="0 0 59.7 47.22"><defs><style>.cls-1{fill:#95a1ab;}.cls-2{fill:#1f5060;}.cls-3{fill:#65a95d;}.cls-4{fill:#994a8d;}.cls-5{fill:#faaa41;}.cls-6{fill:#adacac;}.cls-7{fill:#a7a7a7;}.cls-8{fill:#aeadad;}.cls-9{fill:#dc775f;}.cls-10{fill:#e1e1e1;}</style></defs><title>young-coders-academy-programming-computer</title><g id="iCON"><path class="cls-1" d="M58.18,46.81a1.24,1.24,0,0,0,.63-1.73l-2.89-8.76a.66.66,0,0,1,0-.15,2.58,2.58,0,0,1,.29.47c1.17,3.24,2.32,6.49,3.51,9.73.39,1.05-.05,1.58-1,2a3.68,3.68,0,0,1-1.39.27q-27.37,0-54.74,0a2.87,2.87,0,0,1-2.15-.81.94.94,0,0,1-.26-1c.4-1.2.8-2.4,1.19-3.6.8-2.41,1.6-4.83,2.42-7.24.08-.24.33-.42.49-.62l-2.11,7c-.3,1-.59,2-.91,3a1.21,1.21,0,0,0,.41,1.39,5,5,0,0,0,1.78.69l.38,0,.42,0H55.86l.42,0A10.84,10.84,0,0,0,58.18,46.81Z" transform="translate(-0.15 -1.38)"/><path class="cls-2" d="M58.81,45.08l-2.89-8.76a.66.66,0,0,1,0-.15c-.22-.66-.48-1.3-.66-2a1.55,1.55,0,0,0-1.73-1.31A2.68,2.68,0,0,0,55,30.39q0-13.14,0-26.28a2.54,2.54,0,0,0-2.7-2.7H42.19l-34.51,0A2.5,2.5,0,0,0,5.1,3.95c0,.62,0,1.24,0,1.87q0,12.27,0,24.53a2.58,2.58,0,0,0,1.22,2.33l.34.21H6.31a1.41,1.41,0,0,0-1.6,1.2c-.13.41-.26.81-.39,1.22l-2.11,7c-.3,1-.59,2-.91,3a1.21,1.21,0,0,0,.41,1.39,3.27,3.27,0,0,0,1.78.69l.38,0,.42,0H55.86l.42,0h.25a9.77,9.77,0,0,0,1.64-.52A1.24,1.24,0,0,0,58.81,45.08ZM7.37,4,52.79,4s0,16.8,0,25.11l-45.39.1ZM52.65,36H48.82a.38.38,0,0,1-.28-.19c-.17-.36-.31-.73-.48-1.17h3.65a.37.37,0,0,1,.41.25C52.28,35.26,52.45,35.6,52.65,36Zm-5.21,0H44.57c-1.28,0-1.28,0-1.55-1.34l.32,0c1.08,0,2.17,0,3.25,0A.39.39,0,0,1,47,35C47.16,35.3,47.3,35.63,47.44,36ZM25.29,31.71V30.14h9.57v1.57ZM26.53,36h-4V34.68h3.94ZM7.23,34.84a.32.32,0,0,1,.24-.17h3.64s0,0,.09.06L10.92,36h-4C7,35.6,7.1,35.21,7.23,34.84Zm-.79,2.56a.35.35,0,0,1,.26-.19H10.6l-.32,1.49H6.07C6.2,38.23,6.3,37.81,6.44,37.39Zm2.39,7.3H4.22c.16-.56.32-1.11.49-1.66,0-.05.14-.11.21-.11h4.3Zm.75-3.1H5.18c.14-.5.27-1,.42-1.45A.33.33,0,0,1,5.85,40H9.93Zm5.2,3.1H10.17l.35-1.75H15Zm.48-3.1H10.86L11.18,40h4.28Zm.45-2.9H11.5l.29-1.47H15.9ZM16.12,36h-4l.26-1.31h3.94Zm4.81,5.6h-4.4l.18-1.6H21Zm.22-2.91H16.94c0-.43.07-.85.14-1.25a.36.36,0,0,1,.26-.23c1.27,0,2.55,0,3.82,0ZM21.32,36h-4l.15-1.33h3.93Zm5.25,5.6H22.25V40h4.32ZM22.4,38.68V37.21h4.1l.08,1.47Zm5.21-4h3.94L31.72,36h-4Zm.1,2.53h4.11L32,38.69H27.8Zm.2,4.37L27.81,40H32.1l.2,1.58Zm4.8-6.93h3.66c.2,0,.3,0,.33.26s.15.71.23,1.08h-4Zm.47,3.72c0-.38-.1-.76-.16-1.16h4.11l.31,1.46-.28,0c-1.2,0-2.4,0-3.6,0C33.3,38.71,33.19,38.65,33.17,38.38Zm.41,3.21L33.35,40h4.3L38,41.59Zm4.32-6.9.31,0c1.1,0,2.19,0,3.29,0a.38.38,0,0,1,.44.35c.07.32.18.64.28,1h-4Zm.53,2.54a3.06,3.06,0,0,1,.31,0h3.48c.23,0,.35.06.4.3.09.39.22.77.34,1.19H38.78Zm1,4.37L39,40h4.3l.47,1.59Zm4.76-3.1c-.15-.41-.27-.83-.42-1.31h.52c1.08,0,2.17,0,3.25,0a.41.41,0,0,1,.47.33c.12.38.28.75.45,1.19h-4A.33.33,0,0,1,44.15,38.5Zm1,2.76c-.15-.42-.35-.83-.54-1.28H50l-1-2.79h1c1,0,1.91,0,2.87,0a.44.44,0,0,1,.34.2c.52,1.35,1,2.71,1.53,4.06a.51.51,0,0,1,0,.14H45.64A.47.47,0,0,1,45.11,41.26ZM46,44.69l-.56-1.75,4.2,0a.34.34,0,0,1,.39.27c.17.5.37,1,.57,1.51Zm10.27,0c-1.33,0-2.66,0-4,0a.4.4,0,0,1-.46-.3c-.17-.48-.38-1-.59-1.5h4.29a.39.39,0,0,1,.28.18c.26.51.49,1,.75,1.58Z" transform="translate(-0.15 -1.38)"/><path class="cls-3" d="M44.49,44.7l-28.31,0s.12-1,.23-1.63a.42.42,0,0,1,.22-.18c.1,0,17.86,0,26.75,0,.32,0,.49.08.58.39S44.3,44.19,44.49,44.7Z" transform="translate(-0.15 -1.38)"/><path class="cls-4" d="M44.56,40H50l-1-2.79h1c1,0,1.91,0,2.87,0a.44.44,0,0,1,.34.2c.52,1.35,1,2.71,1.53,4.06a.51.51,0,0,1,0,.14H45.64a.47.47,0,0,1-.53-.36C45,40.84,44.76,40.44,44.56,40Z" transform="translate(-0.15 -1.38)"/><path class="cls-5" d="M25.29,31.71V30.14h9.57v1.57Z" transform="translate(-0.15 -1.38)"/><path class="cls-6" d="M51.23,42.92h4.29a.39.39,0,0,1,.28.18c.26.51.49,1,.75,1.58l-.28,0c-1.33,0-2.66,0-4,0a.4.4,0,0,1-.46-.3C51.64,43.93,51.44,43.46,51.23,42.92Z" transform="translate(-0.15 -1.38)"/><path class="cls-6" d="M15,42.94l-.24,1.75H10.17l.35-1.75Z" transform="translate(-0.15 -1.38)"/><path class="cls-6" d="M50.6,44.69H46l-.56-1.75,4.2,0a.34.34,0,0,1,.39.27C50.2,43.68,50.4,44.16,50.6,44.69Z" transform="translate(-0.15 -1.38)"/><path class="cls-6" d="M9.22,42.92l-.4,1.77H4.22c.16-.56.32-1.11.49-1.66,0-.05.14-.11.21-.11Z" transform="translate(-0.15 -1.38)"/><path class="cls-6" d="M9.93,40l-.35,1.61H5.18c.14-.5.27-1,.42-1.45A.33.33,0,0,1,5.85,40Z" transform="translate(-0.15 -1.38)"/><path class="cls-6" d="M37.65,40,38,41.59h-4.4L33.35,40Z" transform="translate(-0.15 -1.38)"/><path class="cls-6" d="M16.54,41.59l.18-1.6H21l-.08,1.6Z" transform="translate(-0.15 -1.38)"/><path class="cls-6" d="M43.32,40l.47,1.59H39.4L39,40Z" transform="translate(-0.15 -1.38)"/><path class="cls-6" d="M10.86,41.59,11.18,40h4.28l-.2,1.59Z" transform="translate(-0.15 -1.38)"/><path class="cls-6" d="M26.57,40v1.58H22.25V40Z" transform="translate(-0.15 -1.38)"/><path class="cls-6" d="M27.81,40H32.1l.2,1.58H27.9Z" transform="translate(-0.15 -1.38)"/><path class="cls-7" d="M33,37.21h4.11l.31,1.46-.28,0c-1.2,0-2.4,0-3.6,0-.26,0-.36-.06-.38-.34S33.07,37.62,33,37.21Z" transform="translate(-0.15 -1.38)"/><path class="cls-7" d="M31.82,37.22,32,38.69H27.8l-.09-1.47Z" transform="translate(-0.15 -1.38)"/><path class="cls-7" d="M6.07,38.69c.13-.46.24-.88.38-1.29a.35.35,0,0,1,.26-.19H10.6l-.32,1.49Z" transform="translate(-0.15 -1.38)"/><path class="cls-7" d="M48.43,38.71h-4a.33.33,0,0,1-.23-.2c-.15-.41-.27-.83-.42-1.31h.52c1.08,0,2.17,0,3.25,0a.41.41,0,0,1,.47.33C48.1,37.9,48.26,38.26,48.43,38.71Z" transform="translate(-0.15 -1.38)"/><path class="cls-7" d="M38.78,38.67l-.34-1.44a3.06,3.06,0,0,1,.31,0h3.48c.23,0,.35.06.4.3.09.39.22.77.34,1.19Z" transform="translate(-0.15 -1.38)"/><path class="cls-7" d="M22.4,38.68V37.21h4.1l.08,1.47Z" transform="translate(-0.15 -1.38)"/><path class="cls-7" d="M11.5,38.69l.29-1.47H15.9l-.19,1.47Z" transform="translate(-0.15 -1.38)"/><path class="cls-7" d="M21.16,37.19v1.49H16.94c0-.43.07-.85.14-1.25a.36.36,0,0,1,.26-.23C18.61,37.19,19.88,37.19,21.16,37.19Z" transform="translate(-0.15 -1.38)"/><path class="cls-8" d="M26.53,36h-4V34.68h3.94Z" transform="translate(-0.15 -1.38)"/><path class="cls-8" d="M47.44,36H44.57c-1.28,0-1.28,0-1.55-1.34l.32,0c1.08,0,2.17,0,3.25,0A.39.39,0,0,1,47,35C47.16,35.3,47.3,35.63,47.44,36Z" transform="translate(-0.15 -1.38)"/><path class="cls-8" d="M16.29,34.68,16.12,36h-4l.26-1.31Z" transform="translate(-0.15 -1.38)"/><path class="cls-8" d="M31.55,34.69,31.72,36h-4l-.09-1.31Z" transform="translate(-0.15 -1.38)"/><path class="cls-8" d="M32.9,36l-.19-1.34h3.66c.2,0,.3,0,.33.26s.15.71.23,1.08Z" transform="translate(-0.15 -1.38)"/><path class="cls-8" d="M38.21,36l-.31-1.3.31,0c1.1,0,2.19,0,3.29,0a.38.38,0,0,1,.44.35c.07.32.18.64.28,1Z" transform="translate(-0.15 -1.38)"/><path class="cls-9" d="M11.2,34.72,10.92,36h-4c.11-.4.21-.79.33-1.16a.32.32,0,0,1,.24-.17h3.64S11.15,34.69,11.2,34.72Z" transform="translate(-0.15 -1.38)"/><path class="cls-8" d="M17.45,34.67h3.93L21.32,36h-4Z" transform="translate(-0.15 -1.38)"/><path class="cls-8" d="M52.65,36H48.82a.38.38,0,0,1-.28-.19c-.17-.36-.31-.73-.48-1.17h3.65a.37.37,0,0,1,.41.25C52.28,35.26,52.45,35.6,52.65,36Z" transform="translate(-0.15 -1.38)"/><path class="cls-10" d="M3.87,47.33l-.38,0Z" transform="translate(-0.15 -1.38)"/></g></svg>