<svg id="Layer_1" data-name="Layer 1" xmlns="http://www.w3.org/2000/svg" viewBox="0 0 56.45 56.45"><defs><style>.cls-1{fill:#5eaad1;}.cls-2{fill:#882b79;}.cls-3{fill:#e89c42;}.cls-4{fill:#e93836;}</style></defs><title>young-coders-academy-creative-thinking-puzzle</title><g id="iCON"><path class="cls-1" d="M30,7.42H21.53l.39,1.18a3.39,3.39,0,0,1-3.22,4.46h0A3.39,3.39,0,0,1,15.49,8.6l.39-1.18H7.42v8.47l-1.18-.39a3.39,3.39,0,0,0-4.46,3.22h0a3.39,3.39,0,0,0,4.46,3.22l1.18-.39V30H30Z" transform="translate(-1.77 -1.77)"/><path class="cls-2" d="M52.58,52.58H44.11l.39-1.18a3.39,3.39,0,0,0-3.22-4.46h0a3.39,3.39,0,0,0-3.22,4.46l.39,1.18H30V30H52.58v8.47l1.18-.39a3.39,3.39,0,0,1,4.46,3.22h0a3.39,3.39,0,0,1-4.46,3.22l-1.18-.39v8.47Z" transform="translate(-1.77 -1.77)"/><path class="cls-3" d="M52.58,7.42v8.47l-1.18-.39a3.39,3.39,0,0,0-4.46,3.22h0a3.39,3.39,0,0,0,4.46,3.22l1.18-.39V30H30V7.42h8.47l-.39-1.18a3.39,3.39,0,0,1,3.22-4.46h0a3.39,3.39,0,0,1,3.22,4.46l-.39,1.18h8.47Z" transform="translate(-1.77 -1.77)"/><path class="cls-4" d="M7.42,30v8.47l1.18-.39a3.39,3.39,0,0,1,4.46,3.22h0A3.39,3.39,0,0,1,8.6,44.51l-1.18-.39v8.47h8.47l-.39,1.18a3.39,3.39,0,0,0,3.22,4.46h0a3.39,3.39,0,0,0,3.22-4.46l-.39-1.18H30V30Z" transform="translate(-1.77 -1.77)"/></g></svg>