<svg id="Layer_1" data-name="Layer 1" xmlns="http://www.w3.org/2000/svg" viewBox="0 0 103.01 72.28"><defs><style>.cls-1{fill:#e9e9e9;}.cls-2{fill:#7aa5af;}</style></defs><title>yca-logo</title><path class="cls-1" d="M104,73.64h0A20.42,20.42,0,0,1,86.32,63.42L50.52,1.36A20.42,20.42,0,0,1,68.2,11.58Z" transform="translate(-1 -1.36)"/><path class="cls-1" d="M51.54,52.44H26.92C12.25,52.44.29,40.25,1,25.59A25.53,25.53,0,0,1,26.27,1.38h.17A20.41,20.41,0,0,1,44,11.59H26.27A15.32,15.32,0,0,0,11.24,26,15.53,15.53,0,0,0,26.86,42.22l7.24,0A20.12,20.12,0,0,1,51.54,52.44Z" transform="translate(-1 -1.36)"/><path class="cls-2" d="M67.52,52.44h0A20.42,20.42,0,0,1,49.83,42.23L26.27,1.37A20.42,20.42,0,0,1,44,11.59Z" transform="translate(-1 -1.36)"/></svg>