<svg id="Layer_1" data-name="Layer 1" xmlns="http://www.w3.org/2000/svg" xmlns:xlink="http://www.w3.org/1999/xlink" viewBox="0 0 609.96 451.63"><defs><style>.cls-1{fill:#08639a;opacity:0.7;}.cls-2{fill:url(#linear-gradient);}.cls-3{fill:url(#linear-gradient-2);}.cls-4{fill:#80dbf2;}.cls-5{fill:#e5b28c;}.cls-6{fill:#096161;}.cls-7{fill:#fff;}.cls-8{fill:#5214cc;}.cls-9{fill:#e54607;}.cls-10{fill:#c27361;}.cls-11{fill:#073a4c;}.cls-12{fill:#54695c;}.cls-13{fill:#0a8c6c;}.cls-14{fill:url(#linear-gradient-3);}.cls-15{fill:url(#linear-gradient-4);}.cls-16{fill:url(#linear-gradient-5);}.cls-17{fill:url(#linear-gradient-6);}.cls-18{fill:url(#linear-gradient-7);}.cls-19{fill:url(#linear-gradient-8);}.cls-20{fill:url(#linear-gradient-9);}.cls-21{fill:#e1eafa;}.cls-22{fill:#3c009a;}.cls-23{fill:url(#linear-gradient-10);}.cls-24{fill:#efefef;}.cls-25{fill:url(#linear-gradient-11);}.cls-26{fill:url(#linear-gradient-12);}.cls-27{fill:#00abd6;}.cls-28{fill:url(#linear-gradient-13);}.cls-29{fill:#e5941e;}.cls-30{fill:#383739;}.cls-31{fill:url(#linear-gradient-14);}.cls-32{fill:url(#linear-gradient-15);}.cls-33{fill:url(#linear-gradient-16);}</style><linearGradient id="linear-gradient" x1="516.55" y1="148.12" x2="614.98" y2="148.12" gradientUnits="userSpaceOnUse"><stop offset="0" stop-color="#b8e4ea"/><stop offset="0.27" stop-color="#7fbad0"/><stop offset="0.8" stop-color="#08639a"/><stop offset="0.89" stop-color="#09609e"/><stop offset="0.98" stop-color="#0d56ac"/><stop offset="1" stop-color="#0e53af"/></linearGradient><linearGradient id="linear-gradient-2" x1="603.2" y1="150.14" x2="528.33" y2="106.92" gradientUnits="userSpaceOnUse"><stop offset="0" stop-color="#08639a"/><stop offset="0.09" stop-color="#117bb2"/><stop offset="0.27" stop-color="#20a3db"/><stop offset="0.41" stop-color="#2abcf4"/><stop offset="0.5" stop-color="#2dc5fd"/><stop offset="0.62" stop-color="#2ec2f3"/><stop offset="0.81" stop-color="#31bbd7"/><stop offset="1" stop-color="#35b3b7"/></linearGradient><linearGradient id="linear-gradient-3" x1="165.28" y1="349.33" x2="165.28" y2="335.05" xlink:href="#linear-gradient-2"/><linearGradient id="linear-gradient-4" x1="184.18" y1="358.68" x2="184.18" y2="344.4" xlink:href="#linear-gradient-2"/><linearGradient id="linear-gradient-5" x1="224.3" y1="425.22" x2="322.73" y2="425.22" xlink:href="#linear-gradient"/><linearGradient id="linear-gradient-6" x1="310.95" y1="427.25" x2="236.08" y2="384.03" xlink:href="#linear-gradient-2"/><linearGradient id="linear-gradient-7" x1="224.61" y1="52.74" x2="323.03" y2="52.74" xlink:href="#linear-gradient"/><linearGradient id="linear-gradient-8" x1="311.26" y1="54.77" x2="236.38" y2="11.54" xlink:href="#linear-gradient-2"/><linearGradient id="linear-gradient-9" x1="667.96" y1="412.22" x2="-97.97" y2="-29.99" xlink:href="#linear-gradient-2"/><linearGradient id="linear-gradient-10" x1="302" y1="254.49" x2="289.04" y2="247.01" xlink:href="#linear-gradient-2"/><linearGradient id="linear-gradient-11" x1="5.02" y1="313.66" x2="103.45" y2="313.66" xlink:href="#linear-gradient"/><linearGradient id="linear-gradient-12" x1="91.67" y1="315.69" x2="16.8" y2="272.46" xlink:href="#linear-gradient-2"/><linearGradient id="linear-gradient-13" x1="433.27" y1="184.27" x2="420.31" y2="176.79" xlink:href="#linear-gradient-2"/><linearGradient id="linear-gradient-14" x1="515.16" y1="383.48" x2="613.59" y2="383.48" xlink:href="#linear-gradient"/><linearGradient id="linear-gradient-15" x1="601.81" y1="385.51" x2="526.94" y2="342.28" xlink:href="#linear-gradient-2"/><linearGradient id="linear-gradient-16" x1="526.67" y1="353.21" x2="526.67" y2="379.72" gradientUnits="userSpaceOnUse"><stop offset="0" stop-color="#08639a"/><stop offset="0.13" stop-color="#117bb2"/><stop offset="0.39" stop-color="#20a3db"/><stop offset="0.58" stop-color="#2abcf4"/><stop offset="0.71" stop-color="#2dc5fd"/><stop offset="0.77" stop-color="#2ec2f3"/><stop offset="0.89" stop-color="#31bbd7"/><stop offset="1" stop-color="#35b3b7"/></linearGradient></defs><title>yca-coding-kids</title><g id="illustratation"><path class="cls-1" d="M550.33,189.73,392.47,98.59a26,26,0,0,0-26,0L73,268a8.89,8.89,0,0,0,0,15.4l157.86,91.14a26,26,0,0,0,26,0L550.33,205.13A8.89,8.89,0,0,0,550.33,189.73ZM438.55,204l-185,106.78a19.47,19.47,0,0,1-19.47,0l-49.36-28.5a7.58,7.58,0,0,1,0-13.13l185-106.78a19.47,19.47,0,0,1,19.47,0l49.36,28.5A7.58,7.58,0,0,1,438.55,204Z" transform="translate(-5.02 -4.18)"/><path class="cls-1" d="M518.8,153.62l40.4,23.33a13.14,13.14,0,0,0,13.14,0l40.4-23.33a4.49,4.49,0,0,0,0-7.77l-40.4-23.33a13.14,13.14,0,0,0-13.14,0l-40.4,23.33A4.49,4.49,0,0,0,518.8,153.62Z" transform="translate(-5.02 -4.18)"/><path class="cls-2" d="M565.77,156.94l-49.21-28.41v10.2a4.45,4.45,0,0,0,2.24,3.89l40.4,23.33a13.14,13.14,0,0,0,13.14,0l40.4-23.33a4.45,4.45,0,0,0,2.24-3.89v-10.2Z" transform="translate(-5.02 -4.18)"/><path class="cls-3" d="M518.8,132.42l40.4,23.33a13.14,13.14,0,0,0,13.14,0l40.4-23.33a4.49,4.49,0,0,0,0-7.77l-40.4-23.33a13.14,13.14,0,0,0-13.14,0l-40.4,23.33A4.49,4.49,0,0,0,518.8,132.42Z" transform="translate(-5.02 -4.18)"/><circle class="cls-4" cx="446.51" cy="114.26" r="4" transform="matrix(0.99, -0.14, 0.14, 0.99, -16.6, 59.24)"/><path class="cls-5" d="M473.38,81.73s-4.81,9.44-7.7,14.91c-3,5.69-16.58,19-16.58,19l-3.14-4s10.23-14.22,13.09-20.86c2.3-5.34,5.79-12.67,5.79-12.67Z" transform="translate(-5.02 -4.18)"/><path class="cls-6" d="M467.22,70.07l-7,16.41c-1,2.36.52,5.28,3.42,6.51s6.06.32,7.06-2l7-16.41C480.77,67.33,470.26,62.77,467.22,70.07Z" transform="translate(-5.02 -4.18)"/><circle class="cls-4" cx="172.98" cy="194.04" r="4" transform="translate(-48.32 334.07) rotate(-81.98)"/><path class="cls-5" d="M146.11,161.5s4.81,9.44,7.7,14.91c3,5.69,16.58,19,16.58,19l3.14-4s-10.23-14.22-13.09-20.86c-2.3-5.34-5.79-12.67-5.79-12.67Z" transform="translate(-5.02 -4.18)"/><path class="cls-7" d="M152.27,149.85l7,16.41c1,2.36-.52,5.28-3.42,6.51s-6.06.32-7.06-2l-7-16.41C138.73,147.11,149.24,142.55,152.27,149.85Z" transform="translate(-5.02 -4.18)"/><path d="M123.14,129.9c0,9.48.76,12.24-2.71,18.77s-6.47,20.25,10.4,20.25,17.63-24.25,15.22-34.8S123.14,129.9,123.14,129.9Z" transform="translate(-5.02 -4.18)"/><polygon class="cls-6" points="107.17 163.88 131.49 149.84 135.67 152.26 111.35 166.3 107.17 163.88"/><polygon class="cls-4" points="135.67 152.26 135.67 186.86 111.35 200.9 111.35 166.3 135.67 152.26"/><polygon class="cls-8" points="158.76 200.19 158.76 205.59 134.44 219.63 134.44 214.23 158.76 200.19"/><polygon class="cls-7" points="135.67 186.86 158.76 200.19 134.44 214.23 111.35 200.9 135.67 186.86"/><polygon class="cls-6" points="111.35 166.3 107.17 163.88 107.17 203.89 134.44 219.63 134.44 214.23 111.35 200.9 111.35 166.3"/><path class="cls-6" d="M142.4,212.38h0a14.68,14.68,0,0,1-15.95-13.29l-1-10.92,29.24-2.66,1,10.92A14.68,14.68,0,0,1,142.4,212.38Z" transform="translate(-5.02 -4.18)"/><path class="cls-9" d="M155.28,190.26c.53,5.78-6.75,10.13-15.56,10.66s-15.92-4.06-16.35-8.73h0l-2.06-31.34h0a16,16,0,0,1,31.9-1.93h0Z" transform="translate(-5.02 -4.18)"/><ellipse class="cls-7" cx="138.54" cy="148.67" rx="4.5" ry="8.27" transform="translate(-16.59 281.46) rotate(-89.4)"/><circle class="cls-5" cx="138.17" cy="130.21" r="11.07" transform="translate(-29.18 27.57) rotate(-12.06)"/><path class="cls-5" d="M133.82,137.09l-.11,10.58c0,1.52,2,2.78,4.6,2.81s4.64-1.19,4.65-2.71l.11-10.58Z" transform="translate(-5.02 -4.18)"/><ellipse class="cls-4" cx="130.66" cy="132.95" rx="1.92" ry="2.9" transform="translate(-33.65 31.95) rotate(-14.21)"/><path d="M134.47,127.86s14.77,3.16,14.77-2.11-5-10.54-11.42-10.54-14.69,4.15-14.69,14.69S131.12,142.46,134.47,127.86Z" transform="translate(-5.02 -4.18)"/><ellipse class="cls-5" cx="131.68" cy="134.43" rx="1.92" ry="2.9" transform="translate(-40.26 43.37) rotate(-18.1)"/><ellipse class="cls-10" cx="131.68" cy="134.43" rx="0.98" ry="1.48" transform="translate(-40.26 43.36) rotate(-18.1)"/><polygon class="cls-7" points="504.29 85.28 479.97 71.24 475.78 73.66 500.1 87.7 504.29 85.28"/><polygon class="cls-4" points="475.78 73.66 475.78 108.26 500.1 122.3 500.1 87.7 475.78 73.66"/><polygon class="cls-8" points="452.69 121.59 452.69 127 477.01 141.04 477.01 135.63 452.69 121.59"/><polygon class="cls-7" points="475.78 108.26 452.69 121.59 477.01 135.63 500.1 122.3 475.78 108.26"/><polygon class="cls-6" points="500.1 87.7 504.29 85.28 504.29 125.29 477.01 141.04 477.01 135.63 500.1 122.3 500.1 87.7"/><path class="cls-6" d="M479.1,133.79h0A14.68,14.68,0,0,0,495,120.5l1-10.92-29.24-2.66-1,10.92A14.68,14.68,0,0,0,479.1,133.79Z" transform="translate(-5.02 -4.18)"/><path class="cls-7" d="M465.19,111c-.53,5.78,6.75,10.13,15.56,10.66s15.92-4.06,16.35-8.73h0l2.06-31.34h0a16,16,0,0,0-31.9-1.93h0Z" transform="translate(-5.02 -4.18)"/><ellipse class="cls-7" cx="482.95" cy="70.07" rx="8.27" ry="4.5" transform="translate(-5.73 0.89) rotate(-0.6)"/><circle class="cls-5" cx="483.32" cy="51.61" r="11.07" transform="translate(326.82 509.29) rotate(-77.94)"/><path class="cls-5" d="M487.67,58.49l.11,10.58c0,1.52-2,2.78-4.6,2.81s-4.64-1.19-4.65-2.71l-.11-10.58Z" transform="translate(-5.02 -4.18)"/><ellipse class="cls-4" cx="490.83" cy="54.35" rx="2.9" ry="1.92" transform="translate(312.67 512.65) rotate(-75.79)"/><path d="M490.59,58.36c.6.34,1.68-.06,2.36-.67a3.74,3.74,0,0,0,.89-1.33A23.38,23.38,0,0,0,495.15,53a12,12,0,0,0-9.07-14.33c-6-1.34-12.14,2.55-13.66,7s7.81,10,16.4,4.55A10.08,10.08,0,0,1,490,53.92C490,55.31,489.67,57.83,490.59,58.36Z" transform="translate(-5.02 -4.18)"/><ellipse class="cls-5" cx="490.22" cy="54.83" rx="2.9" ry="1.92" transform="matrix(0.26, -0.97, 0.97, 0.26, 306.92, 510.58)"/><ellipse class="cls-10" cx="490.22" cy="54.83" rx="1.48" ry="0.98" transform="translate(306.93 510.58) rotate(-75.2)"/><ellipse class="cls-1" cx="343.11" cy="358.05" rx="28.14" ry="15.42"/><path class="cls-6" d="M330.65,336.79,322,330.92a4.21,4.21,0,1,0-4.71,7l8.69,5.86a4.21,4.21,0,1,0,4.71-7Z" transform="translate(-5.02 -4.18)"/><path class="cls-11" d="M363.57,347.85,330,367.25a3.16,3.16,0,0,0,3.16,5.47l33.6-19.4a3.16,3.16,0,0,0-3.16-5.47Z" transform="translate(-5.02 -4.18)"/><path class="cls-11" d="M334.18,348.18l32.45,18.74a3.16,3.16,0,0,1-3.16,5.47L331,353.65a3.16,3.16,0,1,1,3.16-5.47Z" transform="translate(-5.02 -4.18)"/><path class="cls-6" d="M348.34,340c-2.45,0-4.44,1.24-4.44,2.76v16.75c0,1.52,2,2.76,4.44,2.76s4.44-1.24,4.44-2.76V342.72C352.79,341.2,350.8,340,348.34,340Z" transform="translate(-5.02 -4.18)"/><path class="cls-12" d="M355.46,324.11s-17.34-14.38-19.53-6.53a221,221,0,0,0-4.57,21.94c0,4.29-5.56,3.55-6.22,1.26,0,0-1.53-20.61,1.39-31.59,4.25-16,32.89,5,32.89,5Z" transform="translate(-5.02 -4.18)"/><polygon class="cls-6" points="341.85 309.98 364.94 323.31 340.62 337.35 317.53 324.01 341.85 309.98"/><polygon class="cls-4" points="340.62 337.35 317.53 324.01 317.53 328.8 340.62 342.13 340.62 337.35"/><path class="cls-6" d="M311.75,346.13l-8.69-5.86a4.21,4.21,0,0,0-4.71,7l8.69,5.86a4.21,4.21,0,0,0,4.71-7Z" transform="translate(-5.02 -4.18)"/><path class="cls-12" d="M336.89,332.58s-17.72-14.38-19.91-6.53A221,221,0,0,0,312.4,348c0,4.29-5.56,3.55-6.22,1.26,0,0-1.53-20.61,1.39-31.59,4.25-16,38.58-.83,38.58-.83Z" transform="translate(-5.02 -4.18)"/><path class="cls-12" d="M344.12,335.25h0A14.68,14.68,0,0,0,360.07,322l1-10.92-29.24-2.66-1,10.92A14.68,14.68,0,0,0,344.12,335.25Z" transform="translate(-5.02 -4.18)"/><ellipse class="cls-1" cx="135.41" cy="362.4" rx="26.26" ry="15.42"/><path class="cls-13" d="M125.66,352.7l33.6,19.4a3.16,3.16,0,0,1-3.16,5.47l-33.6-19.4a3.16,3.16,0,1,1,3.16-5.47Z" transform="translate(-5.02 -4.18)"/><path class="cls-13" d="M155,353,122.6,371.77a3.16,3.16,0,0,0,3.16,5.47l32.45-18.74A3.16,3.16,0,0,0,155,353Z" transform="translate(-5.02 -4.18)"/><path class="cls-6" d="M140.88,344.81c2.45,0,4.44,1.24,4.44,2.76v16.75c0,1.52-2,2.76-4.44,2.76s-4.44-1.24-4.44-2.76V347.57C136.44,346.05,138.43,344.81,140.88,344.81Z" transform="translate(-5.02 -4.18)"/><path class="cls-6" d="M133.77,329s17.34-14.38,19.53-6.53a221,221,0,0,1,4.57,21.94c0,4.29,5.56,3.55,6.22,1.26,0,0,1.53-20.61-1.39-31.59-4.25-16-32.89,5-32.89,5Z" transform="translate(-5.02 -4.18)"/><polygon class="cls-4" points="137.34 314.82 114.25 328.16 138.57 342.2 161.66 328.87 137.34 314.82"/><polygon class="cls-6" points="138.57 342.2 161.66 328.87 161.66 333.65 138.57 346.98 138.57 342.2"/><path class="cls-14" d="M158.58,341.64l8.69-5.86a4.21,4.21,0,0,1,4.71,7l-8.69,5.86a4.21,4.21,0,0,1-4.71-7Z" transform="translate(-5.02 -4.18)"/><path class="cls-15" d="M177.48,351l8.69-5.86a4.21,4.21,0,0,1,4.71,7L182.19,358a4.21,4.21,0,0,1-4.71-7Z" transform="translate(-5.02 -4.18)"/><path class="cls-6" d="M152.72,337.44s17.34-14.38,19.53-6.53a221,221,0,0,1,4.57,21.94c0,4.29,5.56,3.55,6.22,1.26,0,0,1.53-20.61-1.39-31.59-4.25-16-38.58-.83-38.58-.83Z" transform="translate(-5.02 -4.18)"/><path class="cls-8" d="M145.11,340.11h0a14.68,14.68,0,0,1-15.95-13.29l-1-10.92,29.24-2.66,1,10.92A14.68,14.68,0,0,1,145.11,340.11Z" transform="translate(-5.02 -4.18)"/><path class="cls-1" d="M226.55,430.73l40.4,23.33a13.14,13.14,0,0,0,13.14,0l40.4-23.33a4.49,4.49,0,0,0,0-7.77l-40.4-23.33a13.14,13.14,0,0,0-13.14,0L226.55,423A4.49,4.49,0,0,0,226.55,430.73Z" transform="translate(-5.02 -4.18)"/><path class="cls-16" d="M273.52,434.05,224.3,405.64v10.2a4.45,4.45,0,0,0,2.24,3.89l40.4,23.33a13.14,13.14,0,0,0,13.14,0l40.4-23.33a4.45,4.45,0,0,0,2.24-3.89v-10.2Z" transform="translate(-5.02 -4.18)"/><path class="cls-17" d="M226.55,409.53l40.4,23.33a13.14,13.14,0,0,0,13.14,0l40.4-23.33a4.49,4.49,0,0,0,0-7.77l-40.4-23.33a13.14,13.14,0,0,0-13.14,0l-40.4,23.33A4.49,4.49,0,0,0,226.55,409.53Z" transform="translate(-5.02 -4.18)"/><path class="cls-1" d="M226.85,58.25l40.4,23.33a13.14,13.14,0,0,0,13.14,0l40.4-23.33a4.49,4.49,0,0,0,0-7.77l-40.4-23.33a13.14,13.14,0,0,0-13.14,0l-40.4,23.33A4.49,4.49,0,0,0,226.85,58.25Z" transform="translate(-5.02 -4.18)"/><path class="cls-18" d="M273.82,61.57,224.61,33.16v10.2a4.44,4.44,0,0,0,2.24,3.89l40.4,23.33a13.14,13.14,0,0,0,13.14,0l40.4-23.33A4.44,4.44,0,0,0,323,43.36V33.16Z" transform="translate(-5.02 -4.18)"/><path class="cls-19" d="M226.85,37l40.4,23.33a13.14,13.14,0,0,0,13.14,0L320.79,37a4.49,4.49,0,0,0,0-7.77L280.39,5.94a13.14,13.14,0,0,0-13.14,0l-40.4,23.33A4.49,4.49,0,0,0,226.85,37Z" transform="translate(-5.02 -4.18)"/><path class="cls-7" d="M550.33,164.76,392.47,73.62a26,26,0,0,0-26,0L73,243a8.89,8.89,0,0,0,0,15.4l157.86,91.14a26,26,0,0,0,26,0L550.33,180.16A8.89,8.89,0,0,0,550.33,164.76ZM438.55,179l-185,106.78a19.47,19.47,0,0,1-19.47,0l-49.36-28.5a7.58,7.58,0,0,1,0-13.13l185-106.78a19.47,19.47,0,0,1,19.47,0l49.36,28.5A7.58,7.58,0,0,1,438.55,179Z" transform="translate(-5.02 -4.18)"/><path class="cls-20" d="M550.33,159.67,392.47,68.52a26,26,0,0,0-26,0L73,238a8.89,8.89,0,0,0,0,15.4l157.86,91.14a26,26,0,0,0,26,0L550.33,175.06A8.89,8.89,0,0,0,550.33,159.67ZM438.55,173.93l-185,106.78a19.47,19.47,0,0,1-19.47,0l-49.36-28.5a7.58,7.58,0,0,1,0-13.13l185-106.78a19.47,19.47,0,0,1,19.47,0l49.36,28.5A7.58,7.58,0,0,1,438.55,173.93Z" transform="translate(-5.02 -4.18)"/><path class="cls-6" d="M449.49,108.34l30.78,17.77a1.88,1.88,0,0,1,0,3.26l-9,5.2a5.33,5.33,0,0,1-5.33,0l-30.78-17.77a1.88,1.88,0,0,1,0-3.26l9-5.2A5.33,5.33,0,0,1,449.49,108.34Z" transform="translate(-5.02 -4.18)"/><path class="cls-13" d="M449.49,107.18l30.78,17.77a1.88,1.88,0,0,1,0,3.26l-9,5.2a5.33,5.33,0,0,1-5.33,0l-30.78-17.77a1.88,1.88,0,0,1,0-3.26l9-5.2A5.33,5.33,0,0,1,449.49,107.18Z" transform="translate(-5.02 -4.18)"/><path class="cls-6" d="M319.55,281.15l-30.78,17.77a1.88,1.88,0,0,0,0,3.26l9,5.2a5.33,5.33,0,0,0,5.33,0l30.78-17.77a1.88,1.88,0,0,0,0-3.26l-9-5.2A5.33,5.33,0,0,0,319.55,281.15Z" transform="translate(-5.02 -4.18)"/><path class="cls-13" d="M319.55,280l-30.78,17.77a1.88,1.88,0,0,0,0,3.26l9,5.2a5.33,5.33,0,0,0,5.33,0l30.78-17.77a1.88,1.88,0,0,0,0-3.26l-9-5.2A5.33,5.33,0,0,0,319.55,280Z" transform="translate(-5.02 -4.18)"/><path class="cls-13" d="M410.35,68.1l43.94,25.37a6.85,6.85,0,0,1,3.42,5.93v32.53a3.1,3.1,0,0,1-4.64,2.68l-43.94-25.37a6.85,6.85,0,0,1-3.42-5.93V70.79A3.1,3.1,0,0,1,410.35,68.1Z" transform="translate(-5.02 -4.18)"/><path class="cls-7" d="M408.7,69.05l43.94,25.37a6.85,6.85,0,0,1,3.42,5.93v32.53a3.1,3.1,0,0,1-4.64,2.68L407.48,110.2a6.85,6.85,0,0,1-3.42-5.93V71.74A3.1,3.1,0,0,1,408.7,69.05Z" transform="translate(-5.02 -4.18)"/><polygon class="cls-7" points="424.92 120.24 434.02 125.5 425.17 130.61 416.07 125.35 424.92 120.24"/><polygon class="cls-21" points="416.07 125.35 425.17 130.61 425.17 132.28 416.07 127.02 416.07 125.35"/><polygon class="cls-13" points="423.72 133.12 423.72 106.85 425.17 106.01 425.17 130.61 434.02 125.5 434.02 127.17 423.72 133.12"/><polygon class="cls-13" points="416.07 100.75 425.17 106.01 423.72 106.85 414.62 101.59 416.07 100.75"/><polygon class="cls-7" points="414.62 101.59 423.72 106.85 423.72 133.12 414.62 127.86 414.62 101.59"/><polygon class="cls-4" points="187.9 280.24 197.01 285.5 187.9 290.75 178.8 285.5 187.9 280.24"/><polygon class="cls-13" points="197.01 285.5 197.01 260.92 198.46 260.08 198.46 286.35 187.9 292.44 187.9 290.75 197.01 285.5"/><polygon class="cls-22" points="189.35 254.82 198.46 260.08 197.01 260.92 187.9 255.66 189.35 254.82"/><polygon class="cls-4" points="187.9 255.66 197.01 260.92 197.01 285.5 187.9 280.24 187.9 255.66"/><polygon class="cls-4" points="178.8 285.5 178.8 287.19 187.9 292.44 187.9 290.75 178.8 285.5"/><path class="cls-13" d="M176.94,222.18l43.94,25.37a6.85,6.85,0,0,1,3.42,5.93V286a3.1,3.1,0,0,1-4.64,2.68l-43.94-25.37a6.85,6.85,0,0,1-3.42-5.93V224.86A3.1,3.1,0,0,1,176.94,222.18Z" transform="translate(-5.02 -4.18)"/><path class="cls-6" d="M222.66,254.43a6.85,6.85,0,0,0-3.42-5.93l-43.94-25.37a3.1,3.1,0,0,0-4.64,2.68v29.08l52,30Z" transform="translate(-5.02 -4.18)"/><path class="cls-4" d="M174.08,264.27,218,289.64a3.1,3.1,0,0,0,4.64-2.68v-2l-52-30v3.45A6.85,6.85,0,0,0,174.08,264.27Z" transform="translate(-5.02 -4.18)"/><path class="cls-7" d="M185.77,237,207,249.26a3.32,3.32,0,0,1,1.66,2.87v15.75a1.5,1.5,0,0,1-2.25,1.3l-21.28-12.28a3.32,3.32,0,0,1-1.66-2.87V238.27A1.5,1.5,0,0,1,185.77,237Z" transform="translate(-5.02 -4.18)"/><path class="cls-6" d="M171.1,287.72l30.78,17.77a1.88,1.88,0,0,1,0,3.26l-9,5.2a5.33,5.33,0,0,1-5.33,0l-30.78-17.77a1.88,1.88,0,0,1,0-3.26l9-5.2A5.33,5.33,0,0,1,171.1,287.72Z" transform="translate(-5.02 -4.18)"/><path class="cls-13" d="M171.1,286.56l30.78,17.77a1.88,1.88,0,0,1,0,3.26l-9,5.2a5.33,5.33,0,0,1-5.33,0L156.76,295a1.88,1.88,0,0,1,0-3.26l9-5.2A5.33,5.33,0,0,1,171.1,286.56Z" transform="translate(-5.02 -4.18)"/><polygon class="cls-4" points="289.77 274.86 280.67 280.12 289.77 285.37 298.88 280.12 289.77 274.86"/><polygon class="cls-13" points="280.67 280.12 280.67 255.54 279.22 254.7 279.22 280.97 289.77 287.06 289.77 285.37 280.67 280.12"/><polygon class="cls-22" points="288.32 249.44 279.22 254.7 280.67 255.54 289.77 250.28 288.32 249.44"/><polygon class="cls-4" points="289.77 250.28 280.67 255.54 280.67 280.12 289.77 274.86 289.77 250.28"/><polygon class="cls-4" points="298.88 280.12 298.88 281.81 289.77 287.06 289.77 285.37 298.88 280.12"/><path class="cls-13" d="M310.78,216.8l-43.94,25.37a6.85,6.85,0,0,0-3.42,5.93v32.53a3.1,3.1,0,0,0,4.64,2.68L312,257.94a6.85,6.85,0,0,0,3.42-5.93V219.48A3.1,3.1,0,0,0,310.78,216.8Z" transform="translate(-5.02 -4.18)"/><path class="cls-6" d="M265.06,249a6.85,6.85,0,0,1,3.42-5.93l43.94-25.37a3.1,3.1,0,0,1,4.64,2.68v29.08l-52,30Z" transform="translate(-5.02 -4.18)"/><path class="cls-4" d="M313.64,258.89,269.7,284.26a3.1,3.1,0,0,1-4.64-2.68v-2l52-30V253A6.85,6.85,0,0,1,313.64,258.89Z" transform="translate(-5.02 -4.18)"/><path class="cls-23" d="M302.07,240.55l-13.47,7.77a2.1,2.1,0,0,0-1,1.82v10a1,1,0,0,0,1.42.82l13.47-7.77a2.1,2.1,0,0,0,1-1.82v-10A1,1,0,0,0,302.07,240.55Z" transform="translate(-5.02 -4.18)"/><path class="cls-7" d="M295.43,235.57l-20.05,11.58a3.13,3.13,0,0,0-1.56,2.71V264.7a1.41,1.41,0,0,0,2.12,1.22L296,254.35a3.13,3.13,0,0,0,1.56-2.71V236.79A1.41,1.41,0,0,0,295.43,235.57Z" transform="translate(-5.02 -4.18)"/><path class="cls-6" d="M177.23,186.07l-30.78,17.77a1.88,1.88,0,0,0,0,3.26l9,5.2a5.33,5.33,0,0,0,5.33,0l30.78-17.77a1.88,1.88,0,0,0,0-3.26l-9-5.2A5.33,5.33,0,0,0,177.23,186.07Z" transform="translate(-5.02 -4.18)"/><path class="cls-4" d="M177.23,184.91l-30.78,17.77a1.88,1.88,0,0,0,0,3.26l9,5.2a5.33,5.33,0,0,0,5.33,0l30.78-17.77a1.88,1.88,0,0,0,0-3.26l-9-5.2A5.33,5.33,0,0,0,177.23,184.91Z" transform="translate(-5.02 -4.18)"/><path class="cls-4" d="M217.47,147.17l-43.94,25.37a6.85,6.85,0,0,0-3.42,5.93V211a3.1,3.1,0,0,0,4.64,2.68l43.94-25.37a6.85,6.85,0,0,0,3.42-5.93V149.85A3.1,3.1,0,0,0,217.47,147.17Z" transform="translate(-5.02 -4.18)"/><path class="cls-24" d="M219.12,148.12l-43.94,25.37a6.85,6.85,0,0,0-3.42,5.93v32.53a3.1,3.1,0,0,0,4.64,2.68l43.94-25.37a6.85,6.85,0,0,0,3.42-5.93V150.8A3.1,3.1,0,0,0,219.12,148.12Z" transform="translate(-5.02 -4.18)"/><polygon class="cls-4" points="192.87 199.3 183.76 204.56 192.61 209.67 201.72 204.41 192.87 199.3"/><polygon class="cls-21" points="201.72 204.41 192.61 209.67 192.61 211.34 201.72 206.08 201.72 204.41"/><polygon class="cls-4" points="194.06 212.18 194.06 185.91 192.61 185.07 192.61 209.67 183.76 204.56 183.76 206.23 194.06 212.18"/><polygon class="cls-4" points="201.72 179.81 192.61 185.07 194.06 185.91 203.16 180.65 201.72 179.81"/><polygon class="cls-24" points="203.16 180.65 194.06 185.91 194.06 212.18 203.16 206.92 203.16 180.65"/><path class="cls-13" d="M296.49,117l-30.78,17.77a1.88,1.88,0,0,0,0,3.26l9,5.2a5.33,5.33,0,0,0,5.33,0l30.78-17.77a1.88,1.88,0,0,0,0-3.26l-9-5.2A5.33,5.33,0,0,0,296.49,117Z" transform="translate(-5.02 -4.18)"/><path class="cls-4" d="M296.49,115.8l-30.78,17.77a1.88,1.88,0,0,0,0,3.26l9,5.2a5.33,5.33,0,0,0,5.33,0l30.78-17.77a1.88,1.88,0,0,0,0-3.26l-9-5.2A5.33,5.33,0,0,0,296.49,115.8Z" transform="translate(-5.02 -4.18)"/><path class="cls-4" d="M336.74,78.06,292.8,103.43a6.85,6.85,0,0,0-3.42,5.93v32.53a3.1,3.1,0,0,0,4.64,2.68L338,119.2a6.85,6.85,0,0,0,3.42-5.93V80.74A3.1,3.1,0,0,0,336.74,78.06Z" transform="translate(-5.02 -4.18)"/><path class="cls-24" d="M338.38,79l-43.94,25.37a6.85,6.85,0,0,0-3.42,5.93v32.53a3.1,3.1,0,0,0,4.64,2.68l43.94-25.37a6.85,6.85,0,0,0,3.42-5.93V81.69A3.1,3.1,0,0,0,338.38,79Z" transform="translate(-5.02 -4.18)"/><polygon class="cls-4" points="312.13 130.19 303.02 135.45 311.87 140.56 320.98 135.3 312.13 130.19"/><polygon class="cls-21" points="320.98 135.3 311.87 140.56 311.87 142.23 320.98 136.98 320.98 135.3"/><polygon class="cls-4" points="313.32 143.07 313.32 116.8 311.87 115.96 311.87 140.56 303.02 135.45 303.02 137.12 313.32 143.07"/><polygon class="cls-4" points="320.98 110.7 311.87 115.96 313.32 116.8 322.43 111.54 320.98 110.7"/><polygon class="cls-24" points="322.43 111.54 313.32 116.8 313.32 143.07 322.43 137.81 322.43 111.54"/><circle class="cls-4" cx="159.3" cy="202.15" r="4" transform="translate(-40.16 29.34) rotate(-10.83)"/><path class="cls-5" d="M125.54,170.29s2.29,11.78,6.13,16.63,25.63,17.41,25.63,17.41l1.67-4.83s-18.2-12.78-20.7-18-3.74-13.42-3.74-13.42Z" transform="translate(-5.02 -4.18)"/><path class="cls-7" d="M133.45,159.73l4.34,17.3c.62,2.49-1.34,5.13-4.4,5.89s-6-.63-6.66-3.12l-4.34-17.3C120.5,154.91,131.59,152.05,133.45,159.73Z" transform="translate(-5.02 -4.18)"/><circle class="cls-5" cx="462.07" cy="126.41" r="4" transform="translate(246.09 552.32) rotate(-79.17)"/><path class="cls-5" d="M495.82,94.55s-2.29,11.78-6.13,16.63-25.63,17.41-25.63,17.41l-1.67-4.83s18.2-12.78,20.7-18,3.74-13.42,3.74-13.42Z" transform="translate(-5.02 -4.18)"/><path class="cls-6" d="M487.92,84l-4.34,17.3c-.62,2.49,1.34,5.13,4.4,5.89s6-.63,6.66-3.12L499,86.77C500.86,79.17,489.77,76.31,487.92,84Z" transform="translate(-5.02 -4.18)"/><path class="cls-1" d="M7.26,319.16l40.4,23.33a13.14,13.14,0,0,0,13.14,0l40.4-23.33a4.49,4.49,0,0,0,0-7.77L60.8,288.07a13.14,13.14,0,0,0-13.14,0L7.26,311.39A4.49,4.49,0,0,0,7.26,319.16Z" transform="translate(-5.02 -4.18)"/><path class="cls-25" d="M54.23,322.49,5,294.07v10.2a4.45,4.45,0,0,0,2.24,3.89l40.4,23.33a13.14,13.14,0,0,0,13.14,0l40.4-23.33a4.45,4.45,0,0,0,2.24-3.89v-10.2Z" transform="translate(-5.02 -4.18)"/><path class="cls-26" d="M7.26,298l40.4,23.33a13.14,13.14,0,0,0,13.14,0L101.2,298a4.49,4.49,0,0,0,0-7.77L60.8,266.86a13.14,13.14,0,0,0-13.14,0L7.26,290.19A4.49,4.49,0,0,0,7.26,298Z" transform="translate(-5.02 -4.18)"/><circle class="cls-5" cx="320.96" cy="287.42" r="4" transform="translate(-97.71 162.73) rotate(-25.6)"/><path class="cls-5" d="M356.44,285.42s-5.51,15.19-13.46,16.86c-6.3,1.32-22.58-12-22.58-12l2.9-4.21s13.21,9.9,18.6,6.46c4.9-3.13,6-10.75,6-10.75Z" transform="translate(-5.02 -4.18)"/><path class="cls-22" d="M350.28,273.76l-7,16.41c-1,2.36.52,5.28,3.42,6.51s6.06.32,7.06-2l7-16.41C363.83,271,353.32,266.47,350.28,273.76Z" transform="translate(-5.02 -4.18)"/><path class="cls-27" d="M330.22,312.47c-.53,5.78,6.75,10.13,15.56,10.66s15.92-4.06,16.35-8.73h0l2.06-31.34h0a16,16,0,1,0-31.9-1.93h0Z" transform="translate(-5.02 -4.18)"/><ellipse class="cls-7" cx="347.97" cy="271.54" rx="8.27" ry="4.5" transform="translate(-7.85 -0.51) rotate(-0.6)"/><circle class="cls-5" cx="348.34" cy="253.08" r="11.07" transform="translate(23.04 536.65) rotate(-77.94)"/><path class="cls-5" d="M352.7,260l.11,10.58c0,1.52-2,2.78-4.6,2.81s-4.64-1.19-4.65-2.71l-.11-10.58Z" transform="translate(-5.02 -4.18)"/><path d="M342.81,248c1.85,2.33-.43,5.16.48,7.84,1.29,3.8,8.94,7.18,14.22,4,5.12-3.11,4.4-10.4,4.29-11.39s-.81-6.09-5.15-9.12c-5.79-4-14.81-2.17-16.57,1.66a5.51,5.51,0,0,0,.13,4.63C341,246.95,341.93,246.86,342.81,248Z" transform="translate(-5.02 -4.18)"/><ellipse class="cls-5" cx="343.29" cy="255.82" rx="1.92" ry="2.9" transform="translate(-77.1 147.92) rotate(-22.67)"/><ellipse class="cls-10" cx="343.29" cy="255.82" rx="0.98" ry="1.48" transform="translate(-77.1 147.91) rotate(-22.67)"/><polygon class="cls-4" points="340.62 296.07 340.62 342.13 344.8 344.55 344.8 298.49 340.62 296.07"/><polygon class="cls-4" points="340.62 296.07 364.94 282.03 369.12 284.45 344.8 298.49 340.62 296.07"/><polygon class="cls-11" points="369.12 284.45 369.12 330.51 344.8 344.55 344.8 298.49 369.12 284.45"/><circle class="cls-5" cx="298.75" cy="299.81" r="4" transform="translate(-105.24 154.35) rotate(-25.6)"/><path class="cls-5" d="M337.7,292.54s-3.78,16-12.74,18.49c-6.21,1.7-26.78-8.32-26.78-8.32l2.9-4.21s18.81,6.62,22.75,1.58a33,33,0,0,0,5.34-11.15Z" transform="translate(-5.02 -4.18)"/><path class="cls-27" d="M331.54,280.88l-7,16.41c-1,2.36.52,5.28,3.42,6.51s6.06.32,7.06-2l7-16.41C345.08,278.15,334.58,273.59,331.54,280.88Z" transform="translate(-5.02 -4.18)"/><ellipse class="cls-1" cx="474.59" cy="287.91" rx="28.14" ry="15.42"/><path class="cls-6" d="M461.91,266.57l-8.69-5.86a4.21,4.21,0,0,0-4.71,7l8.69,5.86a4.21,4.21,0,1,0,4.71-7Z" transform="translate(-5.02 -4.18)"/><path class="cls-11" d="M494.84,277.63,461.23,297a3.16,3.16,0,1,0,3.16,5.47L498,283.1a3.16,3.16,0,0,0-3.16-5.47Z" transform="translate(-5.02 -4.18)"/><path class="cls-11" d="M465.45,278,497.9,296.7a3.16,3.16,0,0,1-3.16,5.47l-32.45-18.74a3.16,3.16,0,1,1,3.16-5.47Z" transform="translate(-5.02 -4.18)"/><path class="cls-6" d="M479.61,269.74c-2.45,0-4.44,1.24-4.44,2.76v16.75c0,1.52,2,2.76,4.44,2.76s4.44-1.24,4.44-2.76V272.5C484.05,271,482.07,269.74,479.61,269.74Z" transform="translate(-5.02 -4.18)"/><path class="cls-12" d="M486.73,253.9s-17.34-14.38-19.53-6.53a221,221,0,0,0-4.57,21.94c0,4.29-5.56,3.55-6.22,1.26,0,0-1.53-20.61,1.39-31.59,4.25-16,32.89,5,32.89,5Z" transform="translate(-5.02 -4.18)"/><polygon class="cls-6" points="473.11 239.75 496.2 253.09 471.89 267.13 448.8 253.79 473.11 239.75"/><polygon class="cls-4" points="471.89 267.13 448.8 253.79 448.8 258.58 471.89 271.91 471.89 267.13"/><path class="cls-6" d="M443,275.91,434.32,270a4.21,4.21,0,1,0-4.71,7l8.69,5.86a4.21,4.21,0,0,0,4.71-7Z" transform="translate(-5.02 -4.18)"/><path class="cls-12" d="M467.77,262.37s-17.34-14.38-19.53-6.53a221,221,0,0,0-4.57,21.94c0,4.29-5.56,3.55-6.22,1.26,0,0-1.53-20.61,1.39-31.59,4.25-16,38.58-.83,38.58-.83Z" transform="translate(-5.02 -4.18)"/><path class="cls-12" d="M475.39,265h0a14.68,14.68,0,0,0,15.95-13.29l1-10.92-29.24-2.66-1,10.92A14.68,14.68,0,0,0,475.39,265Z" transform="translate(-5.02 -4.18)"/><path class="cls-6" d="M450.82,210.94,420,228.71a1.88,1.88,0,0,0,0,3.26l9,5.2a5.33,5.33,0,0,0,5.33,0l30.78-17.77a1.88,1.88,0,0,0,0-3.26l-9-5.2A5.33,5.33,0,0,0,450.82,210.94Z" transform="translate(-5.02 -4.18)"/><path class="cls-13" d="M450.82,209.77,420,227.54a1.88,1.88,0,0,0,0,3.26l9,5.2a5.33,5.33,0,0,0,5.33,0l30.78-17.77a1.88,1.88,0,0,0,0-3.26l-9-5.2A5.33,5.33,0,0,0,450.82,209.77Z" transform="translate(-5.02 -4.18)"/><polygon class="cls-4" points="421.04 204.64 411.94 209.9 421.04 215.15 430.15 209.9 421.04 204.64"/><polygon class="cls-13" points="411.94 209.9 411.94 185.32 410.49 184.48 410.49 210.75 421.04 216.84 421.04 215.15 411.94 209.9"/><polygon class="cls-22" points="419.59 179.22 410.49 184.48 411.94 185.32 421.04 180.06 419.59 179.22"/><polygon class="cls-4" points="421.04 180.06 411.94 185.32 411.94 209.9 421.04 204.64 421.04 180.06"/><polygon class="cls-4" points="430.15 209.9 430.15 211.59 421.04 216.84 421.04 215.15 430.15 209.9"/><path class="cls-13" d="M442,146.58l-43.94,25.37a6.85,6.85,0,0,0-3.42,5.93v32.53a3.1,3.1,0,0,0,4.64,2.68l43.94-25.37a6.85,6.85,0,0,0,3.42-5.93V149.26A3.1,3.1,0,0,0,442,146.58Z" transform="translate(-5.02 -4.18)"/><path class="cls-6" d="M396.33,178.83a6.85,6.85,0,0,1,3.42-5.93l43.94-25.37a3.1,3.1,0,0,1,4.64,2.68v29.08l-52,30Z" transform="translate(-5.02 -4.18)"/><path class="cls-4" d="M444.91,188.67,401,214a3.1,3.1,0,0,1-4.64-2.68v-2l52-30v3.45A6.85,6.85,0,0,1,444.91,188.67Z" transform="translate(-5.02 -4.18)"/><path class="cls-28" d="M433.34,170.34l-13.47,7.77a2.1,2.1,0,0,0-1,1.82v10a1,1,0,0,0,1.42.82l13.47-7.77a2.1,2.1,0,0,0,1-1.82v-10A1,1,0,0,0,433.34,170.34Z" transform="translate(-5.02 -4.18)"/><circle class="cls-5" cx="452.23" cy="217.2" r="4" transform="translate(-54.48 212.56) rotate(-25.6)"/><path class="cls-5" d="M487.71,215.2s-5.51,15.19-13.46,16.86c-6.3,1.32-22.58-12-22.58-12l2.9-4.21s13.21,9.9,18.6,6.46c4.9-3.13,6-10.75,6-10.75Z" transform="translate(-5.02 -4.18)"/><path class="cls-22" d="M481.55,203.54l-7,16.41c-1,2.36.52,5.28,3.42,6.51s6.06.32,7.06-2L492,208C495.09,200.81,484.59,196.25,481.55,203.54Z" transform="translate(-5.02 -4.18)"/><path class="cls-29" d="M461.49,242.25C461,248,468.23,252.38,477,252.91s15.92-4.06,16.35-8.73h0l2.06-31.34h0a16,16,0,0,0-31.9-1.93h0Z" transform="translate(-5.02 -4.18)"/><ellipse class="cls-7" cx="479.24" cy="201.32" rx="8.27" ry="4.5" transform="translate(-7.11 0.86) rotate(-0.6)"/><circle class="cls-5" cx="479.61" cy="182.86" r="11.07" transform="translate(195.54 609.48) rotate(-77.94)"/><path class="cls-5" d="M484,189.74l.11,10.58c0,1.52-2,2.78-4.6,2.81s-4.64-1.19-4.65-2.71l-.11-10.58Z" transform="translate(-5.02 -4.18)"/><polygon class="cls-4" points="471.89 225.85 471.89 271.91 476.07 274.33 476.07 228.27 471.89 225.85"/><polygon class="cls-4" points="471.89 225.85 496.2 211.81 500.39 214.23 476.07 228.27 471.89 225.85"/><polygon class="cls-11" points="500.39 214.23 500.39 260.29 476.07 274.33 476.07 228.27 500.39 214.23"/><circle class="cls-5" cx="430.01" cy="229.59" r="4" transform="translate(-62.01 204.17) rotate(-25.6)"/><path class="cls-5" d="M469,222.32s-3.78,16-12.74,18.49c-6.21,1.7-26.78-8.32-26.78-8.32l2.9-4.21s18.81,6.62,22.75,1.58a33,33,0,0,0,5.34-11.15Z" transform="translate(-5.02 -4.18)"/><path class="cls-13" d="M462.81,210.66l-7,16.41c-1,2.36.52,5.28,3.42,6.51s6.06.32,7.06-2l7-16.41C476.35,207.93,465.84,203.37,462.81,210.66Z" transform="translate(-5.02 -4.18)"/><path class="cls-30" d="M474.08,177.76c1.85,2.33-.43,5.16.48,7.84,1.29,3.8,8.94,7.18,14.22,4,5.12-3.11,4.4-10.4,4.29-11.39s-.81-6.09-5.15-9.12c-5.79-4-14.81-2.17-16.57,1.66a5.51,5.51,0,0,0,.13,4.63C472.22,176.73,473.19,176.64,474.08,177.76Z" transform="translate(-5.02 -4.18)"/><circle class="cls-30" cx="466.61" cy="167.73" r="3.09"/><circle class="cls-30" cx="470.24" cy="163.55" r="3.09"/><circle class="cls-30" cx="476.12" cy="162.62" r="3.09"/><circle class="cls-30" cx="481.8" cy="164.51" r="3.09"/><circle class="cls-30" cx="486.11" cy="168.79" r="3.09"/><circle class="cls-30" cx="488.14" cy="174.42" r="3.09"/><circle class="cls-30" cx="487.42" cy="180.6" r="3.09"/><circle class="cls-30" cx="483.58" cy="185.16" r="3.09"/><ellipse class="cls-5" cx="474.56" cy="185.6" rx="1.92" ry="2.9" transform="translate(-39.89 193.09) rotate(-22.67)"/><ellipse class="cls-10" cx="474.56" cy="185.6" rx="0.98" ry="1.48" transform="translate(-39.89 193.11) rotate(-22.68)"/><circle class="cls-5" cx="168.27" cy="292.27" r="4" transform="translate(-173.04 313.53) rotate(-64.4)"/><path class="cls-5" d="M132.79,290.27s5.51,15.19,13.46,16.86c6.3,1.32,22.58-12,22.58-12l-2.9-4.21s-13.21,9.9-18.6,6.46c-4.9-3.13-6-10.75-6-10.75Z" transform="translate(-5.02 -4.18)"/><path class="cls-22" d="M138.95,278.61l7,16.41c1,2.36-.52,5.28-3.42,6.51s-6.06.32-7.06-2l-7-16.41C125.4,275.88,135.91,271.32,138.95,278.61Z" transform="translate(-5.02 -4.18)"/><circle class="cls-5" cx="140.7" cy="251.62" r="11.73"/><path class="cls-7" d="M162.21,344.4c-7.07-22.72-4.68-49.1-4.68-57.42s-9.5-13.36-16.63-13.36-16.33,3.86-16.33,11.88-7.92,38-7.92,38-1,5.71,10.27,13.57S165.32,354.39,162.21,344.4Z" transform="translate(-5.02 -4.18)"/><path class="cls-4" d="M148.18,266l-2.84,10.85c-.41,1.56-2.86,2.27-5.48,1.59s-4.41-2.51-4-4.07l2.84-10.85Z" transform="translate(-5.02 -4.18)"/><path class="cls-30" d="M145,242.67a12.76,12.76,0,0,1,5.82,1.4,12.83,12.83,0,0,1,1.3,9.77,3.68,3.68,0,0,0-3.74,6.15,12.82,12.82,0,0,1-14.46,2A12.82,12.82,0,0,1,145,242.67Z" transform="translate(-5.02 -4.18)"/><path class="cls-30" d="M148.34,260s9.93,9.67,1.36,20.75-26,5-26.49-4.14S134,266.73,132.62,259,148.34,260,148.34,260Z" transform="translate(-5.02 -4.18)"/><ellipse class="cls-5" cx="149.66" cy="256.4" rx="3.54" ry="2.35" transform="translate(-149.64 291.47) rotate(-67.33)"/><ellipse class="cls-10" cx="149.66" cy="256.4" rx="1.81" ry="1.2" transform="translate(-149.64 291.48) rotate(-67.33)"/><circle class="cls-5" cx="190.48" cy="304.66" r="4" transform="translate(-171.6 340.61) rotate(-64.4)"/><path class="cls-5" d="M151.53,297.39s3.78,16,12.74,18.49c6.21,1.7,26.78-8.32,26.78-8.32l-2.9-4.21s-18.81,6.62-22.75,1.58a33,33,0,0,1-5.34-11.15Z" transform="translate(-5.02 -4.18)"/><path class="cls-6" d="M157.69,285.73l7,16.41c1,2.36-.52,5.28-3.42,6.51s-6.06.32-7.06-2l-7-16.41C144.15,283,154.65,278.44,157.69,285.73Z" transform="translate(-5.02 -4.18)"/><polygon class="cls-6" points="138.57 300.92 138.57 346.98 134.38 349.4 134.38 303.34 138.57 300.92"/><polygon class="cls-6" points="138.57 300.92 114.25 286.88 110.07 289.3 134.38 303.34 138.57 300.92"/><polygon class="cls-7" points="110.07 289.3 110.07 335.36 134.38 349.4 134.38 303.34 110.07 289.3"/><path class="cls-1" d="M517.41,389l40.4,23.33a13.14,13.14,0,0,0,13.14,0L611.34,389a4.49,4.49,0,0,0,0-7.77l-40.4-23.33a13.14,13.14,0,0,0-13.14,0l-40.4,23.33A4.49,4.49,0,0,0,517.41,389Z" transform="translate(-5.02 -4.18)"/><path class="cls-31" d="M564.37,392.31,515.16,363.9v10.2a4.44,4.44,0,0,0,2.24,3.89l40.4,23.33a13.14,13.14,0,0,0,13.14,0L611.34,378a4.44,4.44,0,0,0,2.24-3.89V363.9Z" transform="translate(-5.02 -4.18)"/><path class="cls-32" d="M517.41,367.78l40.4,23.33a13.14,13.14,0,0,0,13.14,0l40.4-23.33a4.49,4.49,0,0,0,0-7.77l-40.4-23.33a13.14,13.14,0,0,0-13.14,0L517.41,360A4.49,4.49,0,0,0,517.41,367.78Z" transform="translate(-5.02 -4.18)"/><path class="cls-30" d="M552.15,376.93h0a14.68,14.68,0,0,0,15.95-13.29l1-10.92-29.24-2.66-1,10.92A14.68,14.68,0,0,0,552.15,376.93Z" transform="translate(-5.02 -4.18)"/><path class="cls-30" d="M507.71,403.1l-9.15,5.11a4.21,4.21,0,0,0,4.1,7.35l9.15-5.11a4.21,4.21,0,0,0-4.1-7.35Z" transform="translate(-5.02 -4.18)"/><path class="cls-30" d="M545.55,367.89s-20,5.24-24.74,13.09c-5.23,8.62-9,24.82-9,24.82,0,4.29-5.56,3.55-6.22,1.26,0,0,1.73-20.93,4.39-32,3-12.38,30-21.49,30-21.49Z" transform="translate(-5.02 -4.18)"/><path class="cls-30" d="M520.43,411.61l-9.15,5.11a4.21,4.21,0,1,0,4.1,7.35l9.15-5.11a4.21,4.21,0,0,0-4.1-7.35Z" transform="translate(-5.02 -4.18)"/><path class="cls-30" d="M558.27,376.41s-20,5.24-24.74,13.09c-5.23,8.62-9,24.82-9,24.82,0,4.29-5.56,3.55-6.22,1.26,0,0,1.73-20.93,4.39-32,3-12.38,30-21.49,30-21.49Z" transform="translate(-5.02 -4.18)"/><path class="cls-33" d="M504.13,364.88l19.06-11a5,5,0,0,1,5,0l19.93,11.51a2.18,2.18,0,0,1,0,3.77l-18.29,10.56Z" transform="translate(-5.02 -4.18)"/><circle class="cls-5" cx="519.56" cy="357.4" r="4" transform="translate(-49.81 71.82) rotate(-8.02)"/><path class="cls-5" d="M546.43,324.87s-4.81,9.44-7.7,14.91c-3,5.69-16.58,19-16.58,19l-3.14-4s10.23-14.22,13.09-20.86c2.3-5.34,5.79-12.67,5.79-12.67Z" transform="translate(-5.02 -4.18)"/><path class="cls-6" d="M540.27,313.21l-7,16.41c-1,2.36.52,5.28,3.42,6.51s6.06.32,7.06-2l7-16.41C553.82,310.47,543.31,305.92,540.27,313.21Z" transform="translate(-5.02 -4.18)"/><path class="cls-7" d="M538.24,354.15c-.53,5.78,6.75,10.13,15.56,10.66s15.92-4.06,16.35-8.73h0l2.06-31.34h0a16,16,0,1,0-31.9-1.93h0Z" transform="translate(-5.02 -4.18)"/><ellipse class="cls-7" cx="556" cy="313.21" rx="8.27" ry="4.5" transform="translate(-8.28 1.68) rotate(-0.6)"/><circle class="cls-5" cx="556.37" cy="294.75" r="11.07" transform="translate(146.83 773.05) rotate(-77.94)"/><path class="cls-5" d="M560.72,301.63l.11,10.58c0,1.52-2,2.78-4.6,2.81s-4.64-1.19-4.65-2.71l-.11-10.58Z" transform="translate(-5.02 -4.18)"/><ellipse class="cls-4" cx="563.88" cy="297.5" rx="2.9" ry="1.92" transform="translate(132.1 766.96) rotate(-75.8)"/><path d="M563.64,301.51c.6.34,1.68-.06,2.36-.67a3.74,3.74,0,0,0,.89-1.33,23.38,23.38,0,0,0,1.31-3.36,12,12,0,0,0-9.07-14.33c-6-1.34-12.14,2.55-13.66,7s7.81,10,16.4,4.55a10.08,10.08,0,0,1,1.21,3.73C563,298.45,562.72,301,563.64,301.51Z" transform="translate(-5.02 -4.18)"/><ellipse class="cls-5" cx="563.27" cy="297.97" rx="2.9" ry="1.92" transform="translate(126.23 762.21) rotate(-75.19)"/><ellipse class="cls-10" cx="563.27" cy="297.97" rx="1.48" ry="0.98" transform="translate(126.22 762.2) rotate(-75.19)"/><circle class="cls-5" cx="535.12" cy="369.56" r="4" transform="translate(66.6 821.55) rotate(-79.17)"/><path class="cls-5" d="M568.87,337.69s-2.29,11.78-6.13,16.63-25.63,17.41-25.63,17.41l-1.67-4.83s18.2-12.78,20.7-18,3.74-13.42,3.74-13.42Z" transform="translate(-5.02 -4.18)"/><path class="cls-6" d="M561,327.14l-4.34,17.3c-.62,2.49,1.34,5.13,4.4,5.89s6-.63,6.66-3.12l4.34-17.3C573.91,322.31,562.82,319.46,561,327.14Z" transform="translate(-5.02 -4.18)"/><path class="cls-7" d="M497.95,346.64l22,12.71,9.85,20.36-25.7-14.84-8-16.52A1.32,1.32,0,0,1,497.95,346.64Z" transform="translate(-5.02 -4.18)"/></g></svg>