<svg xmlns="http://www.w3.org/2000/svg" xmlns:xlink="http://www.w3.org/1999/xlink" viewBox="0 0 532.79 474.86"><defs><style>.cls-1{fill:none;}.cls-2{isolation:isolate;}.cls-3{fill:url(#linear-gradient);}.cls-4{fill:#35b3b7;}.cls-5{fill:#fff;}.cls-6{fill:url(#linear-gradient-2);}.cls-7{fill:url(#linear-gradient-3);}.cls-8{fill:url(#linear-gradient-4);}.cls-9{fill:url(#linear-gradient-5);}.cls-10{fill:url(#linear-gradient-6);}.cls-11{fill:url(#linear-gradient-7);}.cls-12{fill:url(#linear-gradient-8);}.cls-13{fill:#e9e9e9;}.cls-14{fill:#7aa5af;}.cls-15{fill:url(#linear-gradient-9);}.cls-16{fill:url(#linear-gradient-10);}.cls-17{fill:#08639a;opacity:0.7;}.cls-18{fill:url(#linear-gradient-11);}.cls-19{fill:url(#linear-gradient-12);}.cls-20{fill:url(#linear-gradient-13);}.cls-21{fill:url(#linear-gradient-14);}.cls-22{fill:url(#linear-gradient-15);}.cls-23{fill:url(#linear-gradient-16);}.cls-24{fill:url(#linear-gradient-17);}.cls-25{fill:url(#linear-gradient-18);}.cls-26{fill:url(#linear-gradient-19);}.cls-27{fill:url(#linear-gradient-20);}.cls-28{opacity:0.09;}.cls-28,.cls-46{mix-blend-mode:multiply;}.cls-29{fill:#915117;}.cls-30{fill:#c27733;}.cls-31{fill:#1e0000;}.cls-32{fill:#733904;}.cls-33{fill:#f9f9f9;}.cls-34{fill:#383739;}.cls-35{clip-path:url(#clip-path);}.cls-36{fill:#231f20;}.cls-37{clip-path:url(#clip-path-2);}.cls-38{fill:#414042;}.cls-39{clip-path:url(#clip-path-3);}.cls-40{clip-path:url(#clip-path-4);}.cls-41{clip-path:url(#clip-path-5);}.cls-42{fill:#808285;}.cls-43{fill:#c4c5c6;}.cls-44{fill:#efefef;}.cls-45{fill:#212021;}.cls-46,.cls-48{opacity:0.2;}.cls-47{fill:#58595b;}.cls-48{mix-blend-mode:hard-light;}.cls-49{fill:#d7dddd;}.cls-50{fill:#212525;}.cls-51{fill:#1c1e1f;}.cls-52{fill:#a8a8a8;}.cls-53{fill:#3f4445;}.cls-54{fill:#e6efef;}.cls-55{fill:#71fff4;}.cls-56{fill:#aaa;}.cls-57{fill:#f2f2f2;}.cls-58{fill:#505454;}.cls-59{fill:#2b2f30;}.cls-60{fill:#6c6c6c;}.cls-61{fill:#7a7a7a;}.cls-62{fill:#c9c9c9;}.cls-63{fill:#9f9f9f;}.cls-64{fill:#626262;}.cls-65{fill:#5d5d5d;}.cls-66{opacity:0.67;mix-blend-mode:screen;}.cls-67{fill:#b2d3d3;}.cls-68{fill:#585858;}.cls-69{fill:#727272;}.cls-70{fill:#7d7d7d;}.cls-71{fill:#959595;}.cls-72{fill:#4c4c4c;}.cls-73{fill:#8d8d8d;}.cls-74{fill:#d2d2d2;}.cls-75{fill:#5c6062;}.cls-76{fill:#313334;}.cls-77{fill:#c1c1c1;}.cls-78{fill:#999;}.cls-79{fill:#b5b5b5;}.cls-80{fill:#e0e0e0;}.cls-81{fill:#777;}.cls-82{fill:#595959;}.cls-83{fill:#b7b7b7;}.cls-84{fill:#706969;}.cls-85{fill:#9b9a9a;}.cls-86{fill:#b2b2b2;}.cls-87{fill:#d6d6d6;}.cls-88{fill:#d3dddd;}.cls-89{fill:#1a4548;}.cls-90{fill:#ff4133;}.cls-91{fill:#e54607;}.cls-92{fill:#7f7f7f;}.cls-93{fill:#9b9b9b;}.cls-94{fill:#fcdfa6;}.cls-95{fill:#36b898;}.cls-96{fill:#2c9b7e;}.cls-97{fill:#2b7799;}.cls-98{clip-path:url(#clip-path-6);}.cls-99{fill:#757574;}.cls-100{fill:#c8c8c7;}.cls-101{clip-path:url(#clip-path-7);}.cls-102{fill:#656564;}.cls-103{clip-path:url(#clip-path-8);}.cls-104{clip-path:url(#clip-path-9);}.cls-105{clip-path:url(#clip-path-10);}.cls-106{clip-path:url(#clip-path-11);}.cls-107{fill:#5a5a59;}.cls-108{clip-path:url(#clip-path-12);}.cls-109{clip-path:url(#clip-path-13);}.cls-110{clip-path:url(#clip-path-14);}.cls-111{fill:#3f3f3e;}.cls-112{fill:#1083c1;}.cls-113{fill:#63c5db;}.cls-114{fill:#ccc;}.cls-115{fill:#8e8e8e;}.cls-116{fill:#e5e5e5;}.cls-117{fill:#b8e4ea;}.cls-118{fill:url(#linear-gradient-21);}.cls-119{fill:url(#linear-gradient-22);}.cls-120{fill:url(#linear-gradient-23);}.cls-121{fill:#fafcfc;}.cls-122{fill:#325a7f;}.cls-123{fill:#f5f5f5;}.cls-124{fill:#54695c;}.cls-125{fill:#052049;}.cls-126{fill:#d8b08f;}.cls-127{fill:#a06433;}.cls-128{fill:#ba926e;}.cls-129{fill:#663e19;}.cls-130{fill:#6b4d34;}.cls-131{opacity:0.22;}.cls-132{fill:#3e4f44;}.cls-133{fill:#e5b28c;}.cls-134{fill:#e54c3c;}.cls-135{fill:#995710;}.cls-136{fill:#efccaf;}.cls-137{fill:#f4d5be;}.cls-138{fill:#e3e4e5;}.cls-139{fill:#2f353f;}.cls-140{fill:#db9358;}.cls-141{fill:#83b2cc;}.cls-142{fill:url(#linear-gradient-24);}.cls-143{fill:url(#linear-gradient-25);}.cls-144{fill:url(#linear-gradient-26);}.cls-145{fill:url(#linear-gradient-27);}.cls-146{fill:url(#linear-gradient-28);}.cls-147{fill:url(#linear-gradient-29);}.cls-148{fill:url(#linear-gradient-30);}.cls-149{fill:#ff5e4d;}</style><linearGradient id="linear-gradient" x1="14.51" y1="353.42" x2="312.76" y2="117.3" gradientUnits="userSpaceOnUse"><stop offset="0" stop-color="#b8e4ea"/><stop offset="0.56" stop-color="#b5e2e8"/><stop offset="0.57" stop-color="#b0dde3"/><stop offset="0.62" stop-color="#83b2bb"/><stop offset="0.67" stop-color="#5d8d99"/><stop offset="0.73" stop-color="#3e6f7d"/><stop offset="0.79" stop-color="#265867"/><stop offset="0.85" stop-color="#144758"/><stop offset="0.92" stop-color="#0a3d4f"/><stop offset="1" stop-color="#073a4c"/></linearGradient><linearGradient id="linear-gradient-2" x1="62.56" y1="319.93" x2="133.13" y2="319.93" gradientUnits="userSpaceOnUse"><stop offset="0.57" stop-color="#213766"/><stop offset="0.57" stop-color="#283a63"/><stop offset="0.57" stop-color="#3c445c"/><stop offset="0.57" stop-color="#5d5450"/><stop offset="0.57" stop-color="#8b693f"/><stop offset="0.57" stop-color="#c5852a"/><stop offset="0.57" stop-color="#e5941e"/></linearGradient><linearGradient id="linear-gradient-3" x1="112.18" y1="247.85" x2="174.16" y2="247.85" xlink:href="#linear-gradient-2"/><linearGradient id="linear-gradient-4" x1="66.05" y1="257.44" x2="105.09" y2="257.44" xlink:href="#linear-gradient-2"/><linearGradient id="linear-gradient-5" x1="66.05" y1="283.89" x2="105.09" y2="283.89" xlink:href="#linear-gradient-2"/><linearGradient id="linear-gradient-6" x1="79.42" y1="293.58" x2="105.09" y2="293.58" xlink:href="#linear-gradient-2"/><linearGradient id="linear-gradient-7" x1="66.95" y1="276.24" x2="86.8" y2="276.24" xlink:href="#linear-gradient-2"/><linearGradient id="linear-gradient-8" x1="90.6" y1="263.89" x2="105.09" y2="263.89" xlink:href="#linear-gradient-2"/><linearGradient id="linear-gradient-9" x1="241.09" y1="288.64" x2="236.37" y2="280.15" gradientUnits="userSpaceOnUse"><stop offset="0" stop-color="#dee8ff"/><stop offset="1" stop-color="#788acb"/></linearGradient><linearGradient id="linear-gradient-10" x1="326.47" y1="236.26" x2="321.95" y2="228.13" xlink:href="#linear-gradient-9"/><linearGradient id="linear-gradient-11" x1="379.72" y1="222.5" x2="368.21" y2="222.5" gradientUnits="userSpaceOnUse"><stop offset="0" stop-color="#fff"/><stop offset="1" stop-color="#e1e6f0"/></linearGradient><linearGradient id="linear-gradient-12" x1="482.39" y1="290.71" x2="482.34" y2="290.71" xlink:href="#linear-gradient-11"/><linearGradient id="linear-gradient-13" x1="182.07" y1="319.93" x2="331.38" y2="319.93" gradientUnits="userSpaceOnUse"><stop offset="0" stop-color="#b8e4ea"/><stop offset="0.27" stop-color="#7fbad0"/><stop offset="0.8" stop-color="#08639a"/><stop offset="0.89" stop-color="#09609e"/><stop offset="0.98" stop-color="#0d56ac"/><stop offset="1" stop-color="#0e53af"/></linearGradient><linearGradient id="linear-gradient-14" x1="318.15" y1="333.38" x2="195.31" y2="262.46" gradientUnits="userSpaceOnUse"><stop offset="0" stop-color="#08639a"/><stop offset="0.09" stop-color="#117bb2"/><stop offset="0.27" stop-color="#20a3db"/><stop offset="0.41" stop-color="#2abcf4"/><stop offset="0.5" stop-color="#2dc5fd"/><stop offset="0.62" stop-color="#2ec2f3"/><stop offset="0.81" stop-color="#31bbd7"/><stop offset="1" stop-color="#35b3b7"/></linearGradient><linearGradient id="linear-gradient-15" x1="108.91" y1="379.77" x2="258.23" y2="379.77" xlink:href="#linear-gradient-13"/><linearGradient id="linear-gradient-16" x1="247.17" y1="394.48" x2="96.12" y2="307.27" xlink:href="#linear-gradient-14"/><linearGradient id="linear-gradient-17" x1="35.76" y1="439.62" x2="185.07" y2="439.62" xlink:href="#linear-gradient-13"/><linearGradient id="linear-gradient-18" x1="174.28" y1="454.48" x2="23.24" y2="367.27" xlink:href="#linear-gradient-14"/><linearGradient id="linear-gradient-19" x1="239.76" y1="240.99" x2="541.39" y2="240.99" xlink:href="#linear-gradient-13"/><linearGradient id="linear-gradient-20" x1="497.66" y1="254.83" x2="283.5" y2="131.18" xlink:href="#linear-gradient-14"/><clipPath id="clip-path" transform="translate(-8.61 -7.57)"><path class="cls-1" d="M370.28,119.94a.05.05,0,0,0,0,0A.05.05,0,0,1,370.28,119.94Z"/></clipPath><clipPath id="clip-path-2" transform="translate(-8.61 -7.57)"><path class="cls-1" d="M401.73,115.73a0,0,0,0,1,0-.09A0,0,0,0,0,401.73,115.73Z"/></clipPath><clipPath id="clip-path-3" transform="translate(-8.61 -7.57)"><path class="cls-1" d="M401.8,115.75l-.08,0Z"/></clipPath><clipPath id="clip-path-4" transform="translate(-8.61 -7.57)"><path class="cls-1" d="M371.16,119.43h0l-.08,0Z"/></clipPath><clipPath id="clip-path-5" transform="translate(-8.61 -7.57)"><path class="cls-1" d="M402.65,115.2s0,0,0,0S402.67,115.21,402.65,115.2Z"/></clipPath><clipPath id="clip-path-6" transform="translate(-8.61 -7.57)"><path class="cls-1" d="M377.53,23.86a.6.6,0,0,1-.27.47l.36.21a.61.61,0,0,0,.27-.47Z"/></clipPath><clipPath id="clip-path-7" transform="translate(-8.61 -7.57)"><path class="cls-1" d="M377.52,23.77a.27.27,0,0,1,0,.09l.36.21a.28.28,0,0,0,0-.1Z"/></clipPath><clipPath id="clip-path-8" transform="translate(-8.61 -7.57)"><path class="cls-1" d="M377.89,23.83l-.36-.21a.76.76,0,0,1,0,.15l.36.21A.63.63,0,0,0,377.89,23.83Z"/></clipPath><clipPath id="clip-path-9" transform="translate(-8.61 -7.57)"><path class="cls-1" d="M377.45,23.68a.15.15,0,0,1,.07.08l.36.21C377.85,23.89,377.53,23.73,377.45,23.68Z"/></clipPath><clipPath id="clip-path-10" transform="translate(-8.61 -7.57)"><path class="cls-1" d="M377.81,23.89l-.36-.21a.19.19,0,0,0-.2,0l.36.21A.19.19,0,0,1,377.81,23.89Z"/></clipPath><clipPath id="clip-path-11" transform="translate(-8.61 -7.57)"><path class="cls-1" d="M378.1,23.11a1.86,1.86,0,0,0-.57-.28l.36.21A.48.48,0,0,1,378.1,23.11Z"/></clipPath><clipPath id="clip-path-12" transform="translate(-8.61 -7.57)"><path class="cls-1" d="M376.25,25.46l.36.21a.62.62,0,0,1-.27-.39l-.36-.21A.63.63,0,0,0,376.25,25.46Z"/></clipPath><clipPath id="clip-path-13" transform="translate(-8.61 -7.57)"><path class="cls-1" d="M376.93,23.54l-.36-.21a2.44,2.44,0,0,0-.58,1.11l.36.21A2.44,2.44,0,0,1,376.93,23.54Z"/></clipPath><clipPath id="clip-path-14" transform="translate(-8.61 -7.57)"><path class="cls-1" d="M371.88,27.34l.36.21c-.18-.1,0-.52.19-.65l-.36-.21C371.85,26.82,371.7,27.24,371.88,27.34Z"/></clipPath><linearGradient id="linear-gradient-21" x1="390.47" y1="27.54" x2="405.74" y2="27.54" gradientUnits="userSpaceOnUse"><stop offset="0" stop-color="#35b3b7"/><stop offset="0.37" stop-color="#27a69e"/><stop offset="1" stop-color="#0a8c6c"/></linearGradient><linearGradient id="linear-gradient-22" x1="390.47" y1="30.91" x2="405.74" y2="30.91" xlink:href="#linear-gradient-21"/><linearGradient id="linear-gradient-23" x1="390.47" y1="36.53" x2="397.8" y2="36.53" xlink:href="#linear-gradient-21"/><linearGradient id="linear-gradient-24" x1="337.11" y1="67.7" x2="352.38" y2="67.7" xlink:href="#linear-gradient-21"/><linearGradient id="linear-gradient-25" x1="341.08" y1="70.85" x2="348.41" y2="70.85" xlink:href="#linear-gradient-21"/><linearGradient id="linear-gradient-26" x1="337.58" y1="73.67" x2="352.85" y2="73.67" xlink:href="#linear-gradient-21"/><linearGradient id="linear-gradient-27" x1="333.44" y1="79.73" x2="348.72" y2="79.73" xlink:href="#linear-gradient-21"/><linearGradient id="linear-gradient-28" x1="332.78" y1="66.6" x2="348.06" y2="66.6" xlink:href="#linear-gradient-21"/><linearGradient id="linear-gradient-29" x1="333.44" y1="82.85" x2="348.72" y2="82.85" xlink:href="#linear-gradient-21"/><linearGradient id="linear-gradient-30" x1="337.58" y1="86.34" x2="344.77" y2="86.34" xlink:href="#linear-gradient-21"/></defs><title>yca-about-us-inspired-kid</title><g class="cls-2"><g id="Layer_1" data-name="Layer 1"><g id="steps"><path class="cls-3" d="M23.11,408.87l7.23-12.53L108.82,351l92.5-53.41A17.44,17.44,0,0,0,210,282.52V172.61l7.1-12.3L206,153.88a6.38,6.38,0,0,0-6.44,0L17.33,259.09A17.44,17.44,0,0,0,8.61,274.2V396.78A6.38,6.38,0,0,0,12,402.44Z" transform="translate(-8.61 -7.57)"/><path class="cls-4" d="M210.7,160.31,28.47,265.52a17.44,17.44,0,0,0-8.72,15.11V403.22a6.44,6.44,0,0,0,9.66,5.58L211.64,303.59a17.44,17.44,0,0,0,8.72-15.11V165.89A6.44,6.44,0,0,0,210.7,160.31Z" transform="translate(-8.61 -7.57)"/><path class="cls-5" d="M189.82,178.47l-138,79.65a14.55,14.55,0,0,0-7.28,12.6V385.25a5.7,5.7,0,0,0,8.55,4.94l138-79.65a14.55,14.55,0,0,0,7.28-12.6V183.41A5.7,5.7,0,0,0,189.82,178.47Z" transform="translate(-8.61 -7.57)"/><path class="cls-6" d="M133.13,299.56c0-3.46-2.1-5-4.7-3.55L67.25,331.33c-2.59,1.5-4.69,5.51-4.69,9s2.1,5,4.7,3.55l61.18-35.32C131,307,133.13,303,133.13,299.56Z" transform="translate(-8.61 -7.57)"/><path class="cls-7" d="M163.72,210.16,122.36,234a20.36,20.36,0,0,0-10.18,17.63v27.85a7,7,0,0,0,10.43,6L164,261.66A20.36,20.36,0,0,0,174.15,244V216.18A7,7,0,0,0,163.72,210.16Z" transform="translate(-8.61 -7.57)"/><path class="cls-8" d="M105.09,246.17c0-1.91-1.16-2.79-2.6-2L68.65,263.74a6.22,6.22,0,0,0-2.6,5c0,1.91,1.16,2.79,2.6,2l33.84-19.54A6.22,6.22,0,0,0,105.09,246.17Z" transform="translate(-8.61 -7.57)"/><path class="cls-9" d="M105.09,272.62c0-1.91-1.16-2.79-2.6-2L68.65,290.2a6.22,6.22,0,0,0-2.6,5c0,1.91,1.16,2.79,2.6,2l33.84-19.54A6.22,6.22,0,0,0,105.09,272.62Z" transform="translate(-8.61 -7.57)"/><path class="cls-10" d="M105.09,286.17c0-1.91-1.16-2.79-2.6-2L82,296a6.22,6.22,0,0,0-2.6,5c0,1.91,1.16,2.79,2.6,2l20.47-11.82A6.22,6.22,0,0,0,105.09,286.17Z" transform="translate(-8.61 -7.57)"/><path class="cls-11" d="M86.8,270.51c0-1.91-1.16-2.79-2.6-2L69.54,277a6.22,6.22,0,0,0-2.6,5c0,1.91,1.16,2.79,2.6,2l14.66-8.46A6.22,6.22,0,0,0,86.8,270.51Z" transform="translate(-8.61 -7.57)"/><path class="cls-12" d="M105.09,259.71c0-1.91-1.16-2.79-2.6-2l-9.29,5.36a6.22,6.22,0,0,0-2.6,5c0,1.91,1.16,2.79,2.6,2l9.29-5.36A6.22,6.22,0,0,0,105.09,259.71Z" transform="translate(-8.61 -7.57)"/><path class="cls-13" d="M163.86,258.93h0c-3,1.36-5.64.63-7-1.91l-14.55-27.63a5.28,5.28,0,0,1,4.19-1.19,4.82,4.82,0,0,1,3.21,2.79Z" transform="translate(-8.61 -7.57)"/><path class="cls-13" d="M144,258l-8,4.16c-4.34,2.26-8.38-1.17-9.09-8s2-14.82,6.47-18.21l.06,0a4.52,4.52,0,0,1,3.68-.94,4.81,4.81,0,0,1,3,2.59l-6.23,4.28c-2.64,1.89-4.31,6.59-4,10.64.35,4.31,2.9,6.48,5.62,5l2.3-1.28A4.22,4.22,0,0,1,144,258Z" transform="translate(-8.61 -7.57)"/><path class="cls-14" d="M149.7,255h0c-2.67,1.39-5.12.71-6.54-1.79L133.39,236a4.55,4.55,0,0,1,3.74-1,4.81,4.81,0,0,1,3,2.59Z" transform="translate(-8.61 -7.57)"/><path class="cls-15" d="M240.19,288.05a11,11,0,0,1,.44-1.27A11,11,0,0,0,240.19,288.05Z" transform="translate(-8.61 -7.57)"/><path class="cls-16" d="M351.74,221.05a32.36,32.36,0,0,0-6.86,3l-44.62,25.76L344.88,224A32.37,32.37,0,0,1,351.74,221.05Z" transform="translate(-8.61 -7.57)"/><path class="cls-17" d="M361.07,219.68A32.36,32.36,0,0,0,344.88,224l-44.62,25.76-55,31.74a10.91,10.91,0,0,0-4.67,5.27,11,11,0,0,0-.44,1.27c0,.14-.08.28-.11.42a11,11,0,0,0,5.22,12.2L256,306.86,361.07,246.2Z" transform="translate(-8.61 -7.57)"/><path class="cls-18" d="M370.11,221a32.36,32.36,0,0,1,7.15,3A32.36,32.36,0,0,0,370.11,221Z" transform="translate(-8.61 -7.57)"/><path class="cls-19" d="M482.35,290.34c0,.25,0,.5,0,.76h0C482.38,290.84,482.37,290.59,482.35,290.34Z" transform="translate(-8.61 -7.57)"/><path class="cls-17" d="M476.85,281.51,377.26,224a32.46,32.46,0,0,0-16.19-4.34V246.2l105.06,60.66,10.71-6.19a11,11,0,0,0,5.53-9.58c0-.25,0-.51,0-.76A10.94,10.94,0,0,0,476.85,281.51Z" transform="translate(-8.61 -7.57)"/><path class="cls-5" d="M377.26,358.17l94.4-54.5-94.4-54.5a32.38,32.38,0,0,0-32.38,0l-94.4,54.5,94.4,54.5A32.38,32.38,0,0,0,377.26,358.17Z" transform="translate(-8.61 -7.57)"/><path class="cls-17" d="M184.59,347.43,268.68,396a14.77,14.77,0,0,0,14.77,0l45.41-26.22a5,5,0,0,0,0-8.74l-84.09-48.55a14.77,14.77,0,0,0-14.77,0l-45.41,26.22A5,5,0,0,0,184.59,347.43Z" transform="translate(-8.61 -7.57)"/><path class="cls-20" d="M276.07,341l-94-54.27v11.47a5,5,0,0,0,2.52,4.37l84.09,48.55a14.77,14.77,0,0,0,14.77,0l45.41-26.22a5,5,0,0,0,2.52-4.37V309.08Z" transform="translate(-8.61 -7.57)"/><path class="cls-21" d="M184.59,291.12l84.09,48.55a14.77,14.77,0,0,0,14.77,0l45.41-26.22a5,5,0,0,0,0-8.74l-84.09-48.55a14.77,14.77,0,0,0-14.77,0l-45.41,26.22A5,5,0,0,0,184.59,291.12Z" transform="translate(-8.61 -7.57)"/><path class="cls-17" d="M111.44,389.67l84.09,48.55a14.77,14.77,0,0,0,14.77,0L255.7,412a5,5,0,0,0,0-8.74l-84.09-48.55a14.77,14.77,0,0,0-14.77,0l-45.41,26.22A5,5,0,0,0,111.44,389.67Z" transform="translate(-8.61 -7.57)"/><path class="cls-22" d="M202.91,400.86l-94-54.27v11.46a5,5,0,0,0,2.52,4.37L195.53,411a14.77,14.77,0,0,0,14.77,0l45.41-26.22a5,5,0,0,0,2.52-4.37V368.92Z" transform="translate(-8.61 -7.57)"/><path class="cls-23" d="M111.44,351l84.09,48.55a14.77,14.77,0,0,0,14.77,0l45.41-26.22a5,5,0,0,0,0-8.74L171.61,316a14.77,14.77,0,0,0-14.77,0l-45.41,26.22A5,5,0,0,0,111.44,351Z" transform="translate(-8.61 -7.57)"/><path class="cls-17" d="M38.28,431.9l84.09,48.55a14.77,14.77,0,0,0,14.77,0l45.41-26.22a5,5,0,0,0,0-8.74L98.46,396.95a14.77,14.77,0,0,0-14.77,0L38.28,423.17A5,5,0,0,0,38.28,431.9Z" transform="translate(-8.61 -7.57)"/><path class="cls-24" d="M129.75,460.71l-94-54.27V417.9a5,5,0,0,0,2.52,4.37l84.09,48.55a14.77,14.77,0,0,0,14.77,0l45.41-26.22a5,5,0,0,0,2.52-4.37V428.77Z" transform="translate(-8.61 -7.57)"/><path class="cls-25" d="M38.28,410.81l84.09,48.55a14.77,14.77,0,0,0,14.77,0l45.41-26.22a5,5,0,0,0,0-8.74L98.46,375.85a14.77,14.77,0,0,0-14.77,0L38.28,402.07A5,5,0,0,0,38.28,410.81Z" transform="translate(-8.61 -7.57)"/><path class="cls-26" d="M361.07,280l-121.31-70v25.14a11,11,0,0,0,5.53,9.58l99.59,57.5a32.38,32.38,0,0,0,32.38,0l158.6-91.92a11,11,0,0,0,5.53-9.58V175.5Z" transform="translate(-8.61 -7.57)"/><path class="cls-27" d="M245.29,219.5,344.88,277a32.38,32.38,0,0,0,32.38,0l158.6-91.34a11.06,11.06,0,0,0,0-19.16L436.28,109a32.38,32.38,0,0,0-32.38,0l-158.6,91.34A11.06,11.06,0,0,0,245.29,219.5Z" transform="translate(-8.61 -7.57)"/></g><g id="Boy_learning" data-name="Boy learning"><g class="cls-28"><path d="M458,189.91l-12.47-7.25,34.52-20-59.13-34.15L280.72,209.64l59.11,34.1,63.88-36.92,12.46,7.24a16.42,16.42,0,0,0,14.91,0l26.87-15.51C462.07,196.16,462.09,192.29,458,189.91Z" transform="translate(-8.61 -7.57)"/></g><g class="cls-2"><polygon class="cls-29" points="442.01 152.61 437.76 150.14 439.11 149.36 443.36 151.83 442.01 152.61"/><polygon class="cls-30" points="442.68 156.03 438.43 153.56 437.76 150.14 442.01 152.61 442.68 156.03"/><polygon class="cls-31" points="443.36 151.83 439.11 149.36 439.1 147.1 443.35 149.57 443.36 151.83"/><polygon class="cls-29" points="441.62 150.58 437.37 148.11 439.1 147.1 443.35 149.57 441.62 150.58"/><polygon class="cls-29" points="416.58 167.29 412.33 164.82 413.28 164.27 417.53 166.74 416.58 167.29"/><polygon class="cls-29" points="417.92 164.26 413.66 161.79 437.37 148.11 441.62 150.58 417.92 164.26"/><polygon class="cls-29" points="416.58 165.03 412.33 162.56 413.66 161.79 417.92 164.26 416.58 165.03"/><polygon class="cls-32" points="443.35 149.57 443.36 151.83 442.01 152.61 417.53 166.74 416.58 167.29 416.58 165.03 417.92 164.26 441.62 150.58 443.35 149.57"/><polygon class="cls-31" points="416.58 167.29 412.33 164.82 412.33 162.56 416.58 165.03 416.58 167.29"/><polygon class="cls-29" points="432.32 102.81 428.07 100.34 429.86 99.31 434.11 101.78 432.32 102.81"/><polygon class="cls-30" points="441.62 150.58 437.37 148.11 428.07 100.34 432.32 102.81 441.62 150.58"/><polygon class="cls-32" points="434.11 99.52 444.77 154.34 442.68 156.03 442.01 152.61 443.36 151.83 443.35 149.57 441.62 150.58 432.32 102.81 434.11 101.78 434.11 99.52"/><polygon class="cls-31" points="434.11 101.78 429.86 99.31 429.86 97.05 434.11 99.52 434.11 101.78"/><polygon class="cls-29" points="425.12 106.97 420.87 104.5 422.66 103.46 426.91 105.93 425.12 106.97"/><polygon class="cls-29" points="425.11 104.71 420.86 102.24 429.86 97.05 434.11 99.52 425.11 104.71"/><polygon class="cls-31" points="425.12 106.97 420.87 104.5 420.86 102.24 425.11 104.71 425.12 106.97"/><polygon class="cls-30" points="414.79 171.65 410.54 169.18 420.86 102.24 425.11 104.71 414.79 171.65"/><polygon class="cls-32" points="425.11 104.71 425.12 106.97 426.91 105.93 417.92 164.26 416.58 165.03 416.58 167.29 417.53 166.74 416.89 170.91 414.79 171.65 425.11 104.71"/><polygon class="cls-32" points="434.11 99.52 434.11 101.78 432.32 102.81 426.91 105.93 425.12 106.97 425.11 104.71 434.11 99.52"/></g><g class="cls-2"><polygon class="cls-29" points="403.11 129.23 398.86 126.76 400.21 125.98 404.46 128.45 403.11 129.23"/><polygon class="cls-30" points="403.78 132.65 399.53 130.17 398.86 126.76 403.11 129.23 403.78 132.65"/><polygon class="cls-31" points="404.46 128.45 400.21 125.98 400.2 123.72 404.45 126.19 404.46 128.45"/><polygon class="cls-29" points="402.71 127.19 398.46 124.72 400.2 123.72 404.45 126.19 402.71 127.19"/><polygon class="cls-29" points="377.68 143.91 373.43 141.44 374.38 140.89 378.63 143.36 377.68 143.91"/><polygon class="cls-29" points="379.01 140.88 374.76 138.41 398.46 124.72 402.71 127.19 379.01 140.88"/><polygon class="cls-29" points="377.67 141.65 373.42 139.18 374.76 138.41 379.01 140.88 377.67 141.65"/><polygon class="cls-32" points="404.45 126.19 404.46 128.45 403.11 129.23 378.63 143.36 377.68 143.91 377.67 141.65 379.01 140.88 402.71 127.19 404.45 126.19"/><polygon class="cls-31" points="377.68 143.91 373.43 141.44 373.42 139.18 377.67 141.65 377.68 143.91"/><polygon class="cls-29" points="393.42 79.43 389.17 76.96 390.96 75.92 395.21 78.39 393.42 79.43"/><polygon class="cls-30" points="402.71 127.19 398.46 124.72 389.17 76.96 393.42 79.43 402.71 127.19"/><polygon class="cls-32" points="395.2 76.14 405.87 130.96 403.78 132.65 403.11 129.23 404.46 128.45 404.45 126.19 402.71 127.19 393.42 79.43 395.21 78.39 395.2 76.14"/><polygon class="cls-31" points="395.21 78.39 390.96 75.92 390.95 73.67 395.2 76.14 395.21 78.39"/><polygon class="cls-29" points="386.22 83.58 381.97 81.11 383.76 80.08 388.01 82.55 386.22 83.58"/><polygon class="cls-29" points="386.21 81.33 381.96 78.86 390.95 73.67 395.2 76.14 386.21 81.33"/><polygon class="cls-31" points="386.22 83.58 381.97 81.11 381.96 78.86 386.21 81.33 386.22 83.58"/><polygon class="cls-30" points="375.89 148.27 371.64 145.8 381.96 78.86 386.21 81.33 375.89 148.27"/><polygon class="cls-32" points="386.21 81.33 386.22 83.58 388.01 82.55 379.01 140.88 377.67 141.65 377.68 143.91 378.63 143.36 377.99 147.53 375.89 148.27 386.21 81.33"/><polygon class="cls-32" points="395.2 76.14 395.21 78.39 393.42 79.43 388.01 82.55 386.22 83.58 386.21 81.33 395.2 76.14"/></g><g class="cls-2"><polygon class="cls-29" points="342.81 208.75 338.56 206.28 339.91 205.5 344.16 207.97 342.81 208.75"/><polygon class="cls-30" points="343.48 212.17 339.23 209.7 338.56 206.28 342.81 208.75 343.48 212.17"/><polygon class="cls-31" points="344.16 207.97 339.91 205.5 339.91 203.25 344.16 205.72 344.16 207.97"/><polygon class="cls-29" points="342.42 206.72 338.17 204.25 339.91 203.25 344.16 205.72 342.42 206.72"/><polygon class="cls-29" points="317.38 223.44 313.13 220.97 314.08 220.42 318.33 222.89 317.38 223.44"/><polygon class="cls-29" points="318.72 220.4 314.47 217.93 338.17 204.25 342.42 206.72 318.72 220.4"/><polygon class="cls-29" points="317.38 221.18 313.13 218.7 314.47 217.93 318.72 220.4 317.38 221.18"/><polygon class="cls-32" points="344.16 205.72 344.16 207.97 342.81 208.75 318.33 222.89 317.38 223.44 317.38 221.18 318.72 220.4 342.42 206.72 344.16 205.72"/><polygon class="cls-31" points="317.38 223.44 313.13 220.97 313.13 218.7 317.38 221.18 317.38 223.44"/><polygon class="cls-29" points="333.13 158.95 328.87 156.48 330.66 155.45 334.92 157.92 333.13 158.95"/><polygon class="cls-30" points="342.42 206.72 338.17 204.25 328.87 156.48 333.13 158.95 342.42 206.72"/><polygon class="cls-32" points="334.91 155.66 345.58 210.48 343.48 212.17 342.81 208.75 344.16 207.97 344.16 205.72 342.42 206.72 333.13 158.95 334.92 157.92 334.91 155.66"/><polygon class="cls-31" points="334.92 157.92 330.66 155.45 330.66 153.19 334.91 155.66 334.92 157.92"/><polygon class="cls-29" points="325.92 163.11 321.67 160.64 323.46 159.6 327.71 162.07 325.92 163.11"/><polygon class="cls-29" points="325.92 160.85 321.67 158.38 330.66 153.19 334.91 155.66 325.92 160.85"/><polygon class="cls-31" points="325.92 163.11 321.67 160.64 321.67 158.38 325.92 160.85 325.92 163.11"/><polygon class="cls-30" points="315.59 227.79 311.34 225.32 321.67 158.38 325.92 160.85 315.59 227.79"/><polygon class="cls-32" points="325.92 160.85 325.92 163.11 327.71 162.07 318.72 220.4 317.38 221.18 317.38 223.44 318.33 222.89 317.69 227.06 315.59 227.79 325.92 160.85"/><polygon class="cls-32" points="334.91 155.66 334.92 157.92 333.13 158.95 327.71 162.07 325.92 163.11 325.92 160.85 334.91 155.66"/></g><g class="cls-2"><polygon class="cls-29" points="303.92 185.37 299.66 182.9 301.01 182.12 305.26 184.59 303.92 185.37"/><polygon class="cls-30" points="304.58 188.79 300.33 186.32 299.66 182.9 303.92 185.37 304.58 188.79"/><polygon class="cls-31" points="305.26 184.59 301.01 182.12 301 179.86 305.25 182.33 305.26 184.59"/><polygon class="cls-29" points="303.52 183.34 299.27 180.87 301 179.86 305.25 182.33 303.52 183.34"/><polygon class="cls-29" points="278.49 200.05 274.23 197.58 275.18 197.03 279.43 199.5 278.49 200.05"/><polygon class="cls-29" points="279.82 197.02 275.57 194.55 299.27 180.87 303.52 183.34 279.82 197.02"/><polygon class="cls-29" points="278.48 197.79 274.23 195.32 275.57 194.55 279.82 197.02 278.48 197.79"/><polygon class="cls-32" points="305.25 182.33 305.26 184.59 303.92 185.37 279.43 199.5 278.49 200.05 278.48 197.79 279.82 197.02 303.52 183.34 305.25 182.33"/><polygon class="cls-31" points="278.49 200.05 274.23 197.58 274.23 195.32 278.48 197.79 278.49 200.05"/><polygon class="cls-29" points="294.22 135.57 289.97 133.1 291.76 132.07 296.01 134.54 294.22 135.57"/><polygon class="cls-30" points="303.52 183.34 299.27 180.87 289.97 133.1 294.22 135.57 303.52 183.34"/><polygon class="cls-32" points="296.01 132.28 306.68 187.1 304.58 188.79 303.92 185.37 305.26 184.59 305.25 182.33 303.52 183.34 294.22 135.57 296.01 134.54 296.01 132.28"/><polygon class="cls-31" points="296.01 134.54 291.76 132.07 291.76 129.81 296.01 132.28 296.01 134.54"/><polygon class="cls-29" points="287.02 139.73 282.77 137.26 284.56 136.22 288.81 138.69 287.02 139.73"/><polygon class="cls-29" points="287.02 137.47 282.76 135 291.76 129.81 296.01 132.28 287.02 137.47"/><polygon class="cls-31" points="287.02 139.73 282.77 137.26 282.76 135 287.02 137.47 287.02 139.73"/><polygon class="cls-30" points="276.69 204.41 272.44 201.94 282.76 135 287.02 137.47 276.69 204.41"/><polygon class="cls-32" points="287.02 137.47 287.02 139.73 288.81 138.69 279.82 197.02 278.48 197.79 278.49 200.05 279.43 199.5 278.79 203.68 276.69 204.41 287.02 137.47"/><polygon class="cls-32" points="296.01 132.28 296.01 134.54 294.22 135.57 288.81 138.69 287.02 139.73 287.02 137.47 296.01 132.28"/></g><path class="cls-32" d="M439.74,105.48v1.3a1.42,1.42,0,0,1-.64,1.12L423.26,117c-.36.21-.65,0-.65-.37v-1.3Z" transform="translate(-8.61 -7.57)"/><path class="cls-30" d="M453.37,97.61c.36-.21.65,0,.65.37v3.72a1.42,1.42,0,0,1-.64,1.12L409,128.45c-.36.21-.65,0-.65-.37v-3.72a1.42,1.42,0,0,1,.65-1.12l13.63-7.87v1.3c0,.41.29.58.65.37l15.84-9.14a1.42,1.42,0,0,0,.64-1.12v-1.3Z" transform="translate(-8.61 -7.57)"/><path class="cls-32" d="M392.83,132.56v1.3a1.42,1.42,0,0,1-.65,1.12l-15.83,9.14c-.36.21-.65,0-.65-.37v-1.3Z" transform="translate(-8.61 -7.57)"/><path class="cls-30" d="M406.46,124.69c.36-.21.65,0,.65.37v3.72a1.42,1.42,0,0,1-.65,1.12l-44.39,25.63c-.36.21-.65,0-.65-.37v-3.72a1.42,1.42,0,0,1,.65-1.12l13.63-7.87v1.3c0,.41.29.58.65.37L392.19,135a1.42,1.42,0,0,0,.65-1.12v-1.3Z" transform="translate(-8.61 -7.57)"/><path class="cls-32" d="M345.92,159.64v1.3a1.43,1.43,0,0,1-.65,1.12l-15.84,9.14c-.36.21-.65,0-.65-.37v-1.3Z" transform="translate(-8.61 -7.57)"/><path class="cls-30" d="M359.55,151.78c.36-.21.65,0,.65.37v3.72a1.42,1.42,0,0,1-.65,1.12l-44.39,25.63c-.36.21-.65,0-.65-.37v-3.72a1.43,1.43,0,0,1,.65-1.12l13.63-7.87v1.3c0,.41.29.58.65.37l15.84-9.14a1.43,1.43,0,0,0,.65-1.12v-1.3Z" transform="translate(-8.61 -7.57)"/><path class="cls-33" d="M314.51,175.16,271.22,150l138.2-79.79a2.56,2.56,0,0,1,2.56,0l42,24.42Z" transform="translate(-8.61 -7.57)"/><path class="cls-34" d="M371.37,123.51a.5.5,0,0,1,.45,0l.36.21a.14.14,0,0,1,0,.26l-.91.52a.5.5,0,0,1-.45,0l-.37-.21a.14.14,0,0,1,0-.26Zm-.43.93a.25.25,0,0,0,.23,0l.91-.52a.07.07,0,0,0,0-.13l-.36-.21a.24.24,0,0,0-.23,0l-.91.52c-.06,0-.06.1,0,.13l.36.21" transform="translate(-8.61 -7.57)"/><g class="cls-2"><path class="cls-34" d="M376,126.2a.49.49,0,0,1,.45,0l.37.21a.14.14,0,0,1,0,.26l-.91.52a.51.51,0,0,1-.45,0l-.36-.21c-.13-.07-.12-.19,0-.26Zm-.43.93a.25.25,0,0,0,.23,0l.91-.52c.06,0,.06-.1,0-.13l-.36-.21a.24.24,0,0,0-.23,0l-.91.52c-.06,0-.06.1,0,.13l.36.21" transform="translate(-8.61 -7.57)"/><path class="cls-34" d="M377.09,126.84a.49.49,0,0,1,.45,0l.36.21a.14.14,0,0,1,0,.26l-.91.52a.5.5,0,0,1-.45,0l-.36-.21c-.13-.07-.12-.19,0-.26Zm-.43.93a.24.24,0,0,0,.23,0l.91-.52a.07.07,0,0,0,0-.13l-.36-.21a.24.24,0,0,0-.23,0l-.91.52c-.06,0-.06.1,0,.13l.36.21" transform="translate(-8.61 -7.57)"/></g><path class="cls-34" d="M378.19,127.47a.5.5,0,0,1,.45,0l.36.21c.12.07.12.19,0,.26l-.91.52a.51.51,0,0,1-.45,0l-.36-.21c-.12-.07-.12-.19,0-.26Zm-.43.93a.24.24,0,0,0,.23,0l.91-.52c.06,0,.06-.09,0-.13l-.36-.21a.25.25,0,0,0-.23,0l-.91.52c-.06,0-.06.1,0,.13l.37.21" transform="translate(-8.61 -7.57)"/><g class="cls-2"><g class="cls-2"><g class="cls-35"><g class="cls-2"><path class="cls-36" d="M370.28,119.94a.05.05,0,0,0,0,0,.05.05,0,0,1,0,0" transform="translate(-8.61 -7.57)"/></g></g></g></g><g class="cls-2"><g class="cls-2"><g class="cls-37"><g class="cls-2"><path class="cls-38" d="M401.73,115.73a0,0,0,0,1,0-.09,0,0,0,0,0,0,.09" transform="translate(-8.61 -7.57)"/></g></g></g><g class="cls-2"><g class="cls-39"><g class="cls-2"><path class="cls-38" d="M401.8,115.75l-.08,0,.08,0" transform="translate(-8.61 -7.57)"/></g></g></g><g class="cls-2"><g class="cls-40"><g class="cls-2"><path class="cls-38" d="M371.08,119.45l.08,0-.08,0" transform="translate(-8.61 -7.57)"/></g></g></g><g class="cls-2"><g class="cls-41"><g class="cls-2"><path class="cls-38" d="M402.65,115.2s0,0,0,0,0,0,0,0" transform="translate(-8.61 -7.57)"/></g></g></g></g><path class="cls-42" d="M382.52,127.06a0,0,0,0,0,0,.09l.82.48.08,0,.08,0,.77-.44s0-.06,0-.09a.16.16,0,0,0-.15,0l-.69.4-.74-.43A.18.18,0,0,0,382.52,127.06Z" transform="translate(-8.61 -7.57)"/><path class="cls-43" d="M454,94.63c.63-.36,1.14-.07,1.14.65l0,7.82a2.49,2.49,0,0,1-1.13,2L314.55,185.59c-.63.36-1.14.07-1.14-.65l0-7.82a2.49,2.49,0,0,1,1.13-2Zm-93.79,61.23v-3.72c0-.41-.29-.58-.65-.37l-13.63,7.87-17.13,9.89-13.63,7.87a1.43,1.43,0,0,0-.65,1.12v3.72c0,.41.29.58.65.37L359.56,157a1.42,1.42,0,0,0,.65-1.12Zm46.91-27.08v-3.72c0-.41-.29-.58-.65-.37l-13.63,7.87-17.13,9.89-13.63,7.87a1.42,1.42,0,0,0-.65,1.12v3.72c0,.41.29.58.65.37l44.39-25.63a1.42,1.42,0,0,0,.65-1.12ZM454,101.7V98c0-.41-.29-.58-.65-.37l-13.63,7.87-17.13,9.89L409,123.24a1.42,1.42,0,0,0-.65,1.12v3.72c0,.41.29.58.65.37l44.39-25.63a1.42,1.42,0,0,0,.64-1.12Z" transform="translate(-8.61 -7.57)"/><path class="cls-44" d="M314.51,175.16,271.22,150a2.49,2.49,0,0,0-1.13,2l0,7.82a.79.79,0,0,0,.33.73l43.29,25.16a.79.79,0,0,1-.33-.73l0-7.82A2.49,2.49,0,0,1,314.51,175.16Z" transform="translate(-8.61 -7.57)"/><g class="cls-2"><g class="cls-2"><g class="cls-2"><path class="cls-45" d="M381.67,98a7.25,7.25,0,0,1,1-.92,1.88,1.88,0,0,1,1.87,0,2.93,2.93,0,0,1,.73.63,4.07,4.07,0,0,0,.33.33,1.84,1.84,0,0,0-.31-.21,3.65,3.65,0,0,0-3.32,0,1.69,1.69,0,0,0-.27.19" transform="translate(-8.61 -7.57)"/></g></g><path class="cls-34" d="M382,99.71a3.66,3.66,0,0,0,3.32,0c.9-.54.88-1.4,0-1.92a3.65,3.65,0,0,0-3.32,0C381,98.33,381.06,99.19,382,99.71Z" transform="translate(-8.61 -7.57)"/><path class="cls-34" d="M383,97.73a1.35,1.35,0,0,0,1.23,0c.33-.2.32-.52,0-.71A1.35,1.35,0,0,0,383,97C382.66,97.22,382.67,97.54,383,97.73Z" transform="translate(-8.61 -7.57)"/><g class="cls-46"><ellipse class="cls-38" cx="375.02" cy="91.22" rx="2.6" ry="1.51"/></g><path class="cls-47" d="M384.46,97.26a.52.52,0,0,0-.24-.25A1.35,1.35,0,0,0,383,97a.48.48,0,0,0-.22.24.31.31,0,0,1,0-.29,1.9,1.9,0,0,1,1.42-.09l.2.08A.31.31,0,0,1,384.46,97.26Z" transform="translate(-8.61 -7.57)"/><g class="cls-2"><path class="cls-47" d="M382.68,97a7.28,7.28,0,0,0-1,.94c-.62.54-.51,1.27.32,1.73.43-.9.69-1.78,1-2-.34-.19-.35-.51,0-.71a1.35,1.35,0,0,1,1.22,0c.34.19.35.51,0,.71a1.35,1.35,0,0,1-1.23,0c-.33.2-.6,1.07-1,2a3.66,3.66,0,0,0,3.32,0c.79-.47.87-1.18.27-1.7-.28-.25-.5-.54-.79-.78a1.77,1.77,0,0,0-.55-.31,1.88,1.88,0,0,0-1.55.15" transform="translate(-8.61 -7.57)"/></g><g class="cls-48"><path class="cls-5" d="M383,97.73a1.19,1.19,0,0,0,.32.11,1.37,1.37,0,0,1-.88-.11.48.48,0,0,1-.25-.29,2.6,2.6,0,0,1,.49-.4,1.6,1.6,0,0,1,.38-.17l.27,0A1,1,0,0,0,383,97C382.66,97.22,382.67,97.54,383,97.73Z" transform="translate(-8.61 -7.57)"/></g><g class="cls-46"><path class="cls-38" d="M384.74,99.68c.79-.47.87-1.18.27-1.7-.19-.17-.35-.36-.53-.54a.4.4,0,0,0-.26-.42,1.24,1.24,0,0,0-.61-.14l-.28-.06a2,2,0,0,1,.9.08,1.77,1.77,0,0,1,.55.31c.29.23.51.53.79.78.6.52.52,1.23-.27,1.7a3.49,3.49,0,0,1-2,.41A3.22,3.22,0,0,0,384.74,99.68Z" transform="translate(-8.61 -7.57)"/></g><path class="cls-34" d="M382,99.49a3.65,3.65,0,0,0,3.32,0,1.23,1.23,0,0,0,.65-.84,1.1,1.1,0,0,1-.65,1.06,3.66,3.66,0,0,1-3.32,0,1.12,1.12,0,0,1-.7-1.08A1.24,1.24,0,0,0,382,99.49Z" transform="translate(-8.61 -7.57)"/></g><path class="cls-49" d="M368.11,105.26c-5.57-3.21-6.49-3.43-6.48-4.82a2.1,2.1,0,0,1,.89-1.92l-10.17,5.91a2.18,2.18,0,0,0,.05,3.54c5.75,3.32,6.06,3.3,6.05,4.09a.36.36,0,0,1-.15.33l10.17-5.91C368.8,106.28,368.53,105.5,368.11,105.26Z" transform="translate(-8.61 -7.57)"/><polygon class="cls-50" points="350.2 91.51 360.38 85.59 361.1 86.84 350.93 92.76 350.2 91.51"/><polygon class="cls-51" points="343.02 95.6 353.19 89.69 360.38 85.59 350.2 91.51 343.02 95.6"/><path class="cls-52" d="M358.81,99.08l.72,1.25-7.19,4.1a2.11,2.11,0,0,0-.89,1.92,2.06,2.06,0,0,0,.94,1.62l5.55,3.2a1.12,1.12,0,0,1,.51.88c0,.33-.23.46-.51.3l-5.55-3.2a4.32,4.32,0,0,1-2-3.39,2.84,2.84,0,0,1,1.19-2.58Z" transform="translate(-8.61 -7.57)"/><polygon class="cls-53" points="371.36 44.97 370.34 44.38 370.42 71.94 326.08 97.53 327.1 98.12 371.44 72.53 371.36 44.97"/><path class="cls-52" d="M333.62,113.16h0v-3.5l-1-.6v3.5h0a1.34,1.34,0,0,0,.56,1.23l1,.59A1.34,1.34,0,0,1,333.62,113.16Z" transform="translate(-8.61 -7.57)"/><path class="cls-54" d="M333.64,109.66l48.67-28.1V85a4.23,4.23,0,0,1-1.92,3.32l-17.27,10-10.44,6-17.14,9.89c-1.06.61-1.92.12-1.93-1.1Z" transform="translate(-8.61 -7.57)"/><polygon class="cls-55" points="370.77 44.6 370.85 72.16 326.51 97.75 326.43 70.2 370.77 44.6"/><polygon class="cls-56" points="327.1 98.12 326.08 97.53 326.01 69.98 327.02 70.57 327.1 98.12"/><polygon class="cls-57" points="327.02 70.57 326.01 69.98 370.34 44.38 371.36 44.97 327.02 70.57"/><path class="cls-58" d="M380.66,49.57a1.36,1.36,0,0,0-1.37.13c-47.8,27.6-45,25.9-45.49,26.4a4.39,4.39,0,0,0-1.25,2.8c.08,31,.07,26.5.06,30.16l1,.61c0-3.69,0,1.39-.08-30.18a4.37,4.37,0,0,1,1.55-3.06c.3-.24,44.86-25.94,45.2-26.14a1.35,1.35,0,0,1,1.37-.13Z" transform="translate(-8.61 -7.57)"/><path class="cls-59" d="M380.31,50.29c1.06-.61,1.92-.12,1.93,1.1l.08,27.72c0,.08,0,.16,0,.24v2.21l-48.68,28.12V106.9l-.07-27.41a4.22,4.22,0,0,1,1.92-3.32ZM380,80.1,380,52.54l-44.33,25.6.08,27.55L380,80.1Z" transform="translate(-8.61 -7.57)"/><path class="cls-60" d="M396,88.59l-.23.11a.15.15,0,0,1-.22-.12l-.09-.82a.18.18,0,0,1,.19-.2l.18,0Z" transform="translate(-8.61 -7.57)"/><path class="cls-61" d="M408.37,89.19l-.31-.18a.13.13,0,0,1-.05-.12.36.36,0,0,1,0-.12l.31.18a.32.32,0,0,0,0,.12.13.13,0,0,0,.05.12Z" transform="translate(-8.61 -7.57)"/><path class="cls-62" d="M409,87.39a2.74,2.74,0,0,1-.89,1.22.56.56,0,0,0-.11.17l.31.18c.07-.2.2-.22.45-.49a2.79,2.79,0,0,0,.55-.9Z" transform="translate(-8.61 -7.57)"/><path class="cls-61" d="M409.33,87.56l-.31-.18a2.07,2.07,0,0,0,.14-.71.82.82,0,0,0-.34-.74l.31.18a.81.81,0,0,1,.34.74,2.07,2.07,0,0,1-.14.71Z" transform="translate(-8.61 -7.57)"/><path class="cls-63" d="M409.09,85.47a1.09,1.09,0,0,0-1.1.11l-7,4,.31.18,7-4a1.09,1.09,0,0,1,1.1-.11Z" transform="translate(-8.61 -7.57)"/><path class="cls-64" d="M408.3,85.75c.85-.49,1.55-.1,1.55.88a3.43,3.43,0,0,1-1.34,2.54h0c-.1.06-.17,0-.17-.11a.48.48,0,0,1,.19-.35,2.59,2.59,0,0,0,1-1.87c0-.73-.52-1-1.16-.66l-7,4v-.44Z" transform="translate(-8.61 -7.57)"/><path class="cls-61" d="M397,83.35l-.31-.18a.13.13,0,0,1-.05-.12.36.36,0,0,1,0-.12l.31.18a.36.36,0,0,0,0,.12.13.13,0,0,0,.05.12Z" transform="translate(-8.61 -7.57)"/><path class="cls-62" d="M397.63,81.54a2.75,2.75,0,0,1-.89,1.22.56.56,0,0,0-.11.17l.31.18a.57.57,0,0,1,.11-.17,2.73,2.73,0,0,0,.89-1.22Z" transform="translate(-8.61 -7.57)"/><path class="cls-61" d="M397.93,81.72l-.31-.18a2.07,2.07,0,0,0,.14-.71.81.81,0,0,0-.34-.74l.31.18a.81.81,0,0,1,.34.74,2.1,2.1,0,0,1-.13.71Z" transform="translate(-8.61 -7.57)"/><polygon class="cls-65" points="381.31 76.81 381.01 76.63 381 76.19 381.31 76.37 381.31 76.81"/><path class="cls-63" d="M397.7,79.62a1.09,1.09,0,0,0-1.1.11l-7,4,.31.18,7-4a1.09,1.09,0,0,1,1.1-.11Z" transform="translate(-8.61 -7.57)"/><path class="cls-64" d="M396.91,79.9c.85-.49,1.55-.1,1.55.88a3.44,3.44,0,0,1-1.34,2.54h0c-.1.06-.18,0-.18-.11a.48.48,0,0,1,.19-.35,2.58,2.58,0,0,0,1-1.87c0-.73-.52-1-1.16-.66l-7,4v-.44Z" transform="translate(-8.61 -7.57)"/><path class="cls-64" d="M390.32,82.91l.31-.18a1.55,1.55,0,0,0-.65,1.42A4.89,4.89,0,0,0,392.19,88l-.31.18a4.89,4.89,0,0,1-2.22-3.84,1.56,1.56,0,0,1,.65-1.43Z" transform="translate(-8.61 -7.57)"/><path class="cls-61" d="M391.89,88.18l.31-.18a1.57,1.57,0,0,0,1.58.15l-.31.18a1.56,1.56,0,0,1-1.58-.15Z" transform="translate(-8.61 -7.57)"/><g class="cls-66"><path class="cls-67" d="M392.05,83a4.9,4.9,0,0,1,2.22,3.84c0,1.41-1,2-2.23,1.27a4.89,4.89,0,0,1-2.22-3.84C389.82,82.85,390.82,82.28,392.05,83Z" transform="translate(-8.61 -7.57)"/></g><g class="cls-2"><path class="cls-61" d="M390,82.44l.31-.18a1.84,1.84,0,0,1,1.86.18l-.31.18a1.84,1.84,0,0,0-1.86-.18Z" transform="translate(-8.61 -7.57)"/></g><path class="cls-61" d="M391.9,82.62l.31-.18a5.74,5.74,0,0,1,2.6,4.51,1.83,1.83,0,0,1-.76,1.67l-.31.18a1.82,1.82,0,0,0,.76-1.67,5.74,5.74,0,0,0-2.6-4.51Z" transform="translate(-8.61 -7.57)"/><path class="cls-63" d="M391.9,82.62a5.74,5.74,0,0,1,2.6,4.51c0,1.65-1.18,2.32-2.62,1.49a5.74,5.74,0,0,1-2.6-4.51C389.29,82.46,390.46,81.79,391.9,82.62Zm0,5.55c1.23.71,2.23.14,2.23-1.27a4.89,4.89,0,0,0-2.22-3.84c-1.23-.71-2.23-.14-2.23,1.27a4.89,4.89,0,0,0,2.22,3.84Z" transform="translate(-8.61 -7.57)"/><path class="cls-68" d="M394.91,86l.22-.13a.35.35,0,0,0-.15.32v.61l-.22.17v-.66a.35.35,0,0,1,.15-.32Z" transform="translate(-8.61 -7.57)"/><path class="cls-61" d="M395.49,85.49a.61.61,0,0,0-.62-.06l-.22.13a.62.62,0,0,1,.62.06,1.92,1.92,0,0,1,.87,1.5l.22-.13A1.92,1.92,0,0,0,395.49,85.49Z" transform="translate(-8.61 -7.57)"/><path class="cls-63" d="M395.27,85.62a1.92,1.92,0,0,1,.87,1.5l-.37-.21a1.11,1.11,0,0,0-.5-.87c-.28-.16-.51,0-.51.29V87l-.27-.19-.09-.68C394.4,85.57,394.79,85.34,395.27,85.62Z" transform="translate(-8.61 -7.57)"/><path class="cls-64" d="M396.6,86.54l.31-.18a1.55,1.55,0,0,0-.65,1.43,4.89,4.89,0,0,0,2.22,3.84l-.31.18A4.89,4.89,0,0,1,396,88a1.56,1.56,0,0,1,.65-1.43Z" transform="translate(-8.61 -7.57)"/><path class="cls-61" d="M398.17,91.8l.31-.18a1.56,1.56,0,0,0,1.58.15l-.31.18a1.57,1.57,0,0,1-1.58-.15Z" transform="translate(-8.61 -7.57)"/><g class="cls-66"><path class="cls-67" d="M398.31,86.62a4.89,4.89,0,0,1,2.22,3.84c0,1.41-1,2-2.23,1.27a4.89,4.89,0,0,1-2.22-3.84C396.08,86.48,397.08,85.91,398.31,86.62Z" transform="translate(-8.61 -7.57)"/></g><path class="cls-61" d="M396.33,86.07l.31-.18a1.85,1.85,0,0,1,1.86.18l-.31.18a1.84,1.84,0,0,0-1.86-.18Z" transform="translate(-8.61 -7.57)"/><path class="cls-61" d="M398.18,86.25l.31-.18a5.74,5.74,0,0,1,2.6,4.51,1.82,1.82,0,0,1-.76,1.67l-.31.18a1.82,1.82,0,0,0,.76-1.67,5.74,5.74,0,0,0-2.6-4.51Z" transform="translate(-8.61 -7.57)"/><path class="cls-63" d="M398.18,86.25a5.74,5.74,0,0,1,2.6,4.51c0,1.65-1.18,2.32-2.62,1.49a5.75,5.75,0,0,1-2.6-4.51C395.57,86.09,396.74,85.42,398.18,86.25Zm0,5.55c1.23.71,2.23.14,2.23-1.27a4.89,4.89,0,0,0-2.22-3.84C397,86,396,86.56,396,88a4.89,4.89,0,0,0,2.22,3.84Z" transform="translate(-8.61 -7.57)"/><path class="cls-69" d="M401.07,90.37v-.55l-.15-.09v.55a.05.05,0,0,0,0,0l.15.09A.06.06,0,0,1,401.07,90.37Z" transform="translate(-8.61 -7.57)"/><path class="cls-70" d="M401.18,89.52a.06.06,0,0,0-.05,0l-.13.07.15.09.13-.07a.05.05,0,0,1,.06,0Z" transform="translate(-8.61 -7.57)"/><path class="cls-71" d="M401,89.6l0,0,0,.06a.15.15,0,0,0,0,.05l.15.09a.12.12,0,0,1,0-.05l0-.06,0,0Z" transform="translate(-8.61 -7.57)"/><path class="cls-72" d="M401.28,89.61s.08,0,.08,0v.55a.17.17,0,0,1-.08.13l-.13.07s-.08,0-.08,0v-.55a.17.17,0,0,1,.08-.13Z" transform="translate(-8.61 -7.57)"/><path class="cls-73" d="M394.59,88l.15-.64-.15-.09c-.2.85-.23.73,0,.89C394.59,88.16,394.57,88.11,394.59,88Z" transform="translate(-8.61 -7.57)"/><path class="cls-74" d="M394.92,87.06h-.06c-.16,0-.1,0-.17.07h0a.35.35,0,0,0-.1.17l.17.1a.33.33,0,0,1,.32-.25Z" transform="translate(-8.61 -7.57)"/><path class="cls-60" d="M395,87.14c.08,0,.13.06.1.16-.18.78-.15.83-.42.89-.08,0-.13-.06-.1-.17C394.77,87.26,394.74,87.2,395,87.14Z" transform="translate(-8.61 -7.57)"/><path class="cls-75" d="M394.94,87.54a.06.06,0,0,0-.06,0l0,0,0,.06a.14.14,0,0,0,0,.06.06.06,0,0,0,0,.06l0,0a.06.06,0,0,1,0-.06.18.18,0,0,1,0-.06l0-.05,0,0a.06.06,0,0,1,.06,0Z" transform="translate(-8.61 -7.57)"/><path class="cls-76" d="M394.91,87.57s.09,0,.09,0a.19.19,0,0,1-.09.15s-.08,0-.09-.05A.19.19,0,0,1,394.91,87.57Z" transform="translate(-8.61 -7.57)"/><path class="cls-77" d="M408.42,96.86a9.77,9.77,0,0,0-4.87-1.39l-4.61,2.68a9.79,9.79,0,0,1,4.87,1.39,18.93,18.93,0,0,1,4,3.26,1.65,1.65,0,0,0,2,.31l2.06-1.2a1.28,1.28,0,0,0,.42-1.81A18.14,18.14,0,0,0,408.42,96.86Z" transform="translate(-8.61 -7.57)"/><path class="cls-78" d="M403.81,99.54a20.67,20.67,0,0,1,4.86,4.23l-.1,0c-.25.1-.78-.17-1.25-.44l-.65-.39-5.73-3.31-.65-.36a3.82,3.82,0,0,1-1.25-1l-.1-.15A9.79,9.79,0,0,1,403.81,99.54Z" transform="translate(-8.61 -7.57)"/><path class="cls-79" d="M399,97.5a.48.48,0,0,0,0,.86c.17.07,1,.24,1.27.31a12.77,12.77,0,0,1,2.9,1.24,18.07,18.07,0,0,1,4.09,3.36,1.71,1.71,0,0,0,1.12.58,2.64,2.64,0,0,0,2-.5l1.47-.92a1.6,1.6,0,0,0,.39-2.43,18.44,18.44,0,0,1-1.33,2.61c-1,.57-1.38.86-2.06.86a2.14,2.14,0,0,1-1.49-.59,18.44,18.44,0,0,0-4.22-3.44,11.16,11.16,0,0,0-3.55-1.35c-.28-.05-.67-.1-.72-.27A.43.43,0,0,1,399,97.5Z" transform="translate(-8.61 -7.57)"/><path class="cls-80" d="M412,99.73a18.21,18.21,0,0,0-3.94-3.14A10.45,10.45,0,0,0,404,95.17a3.1,3.1,0,0,0-1.87.47L399,97.5a.29.29,0,0,0,.13.54c.22,0,.44.05.67.1a10.94,10.94,0,0,1,3.41,1.32,17.93,17.93,0,0,1,3.63,2.83l.43.46a2.19,2.19,0,0,0,2.72.45l.17-.1,1.68-1a1.46,1.46,0,0,0,.36-2.25Z" transform="translate(-8.61 -7.57)"/><path class="cls-57" d="M401.37,97.5a7,7,0,0,1,2.78.64A6.81,6.81,0,0,1,406.3,100a22.68,22.68,0,0,0-2.25-1.5A12.19,12.19,0,0,0,401.37,97.5Z" transform="translate(-8.61 -7.57)"/><path class="cls-81" d="M360.72,124.4,392,107.57a.66.66,0,0,0,.27-.6,1.61,1.61,0,0,0-.08-.49l-31.24,16.83a1.63,1.63,0,0,1,.08.49.66.66,0,0,1-.27.6Z" transform="translate(-8.61 -7.57)"/><path class="cls-69" d="M404.52,113.73a.48.48,0,0,0-.1-.1h0l-12.94-8.15a.8.8,0,0,0-.85-.19l-31.24,16.83c.16-.1.43-.11.79.15h0l0,0,13.11,8.49h0a.4.4,0,0,1,.1.1.48.48,0,0,1,.1.31.15.15,0,0,1-.06.12l31.08-17.16a.14.14,0,0,0,.06-.12A.49.49,0,0,0,404.52,113.73Z" transform="translate(-8.61 -7.57)"/><path class="cls-82" d="M360.06,122.18c-.52-.3-.94-.06-.94.54a2.06,2.06,0,0,0,.93,1.62c.52.3.94.06.94-.54a1.63,1.63,0,0,0-.08-.49l.2.14,12.17,7.84c.14.08.24,0,.26-.09a.52.52,0,0,0-.21-.42l-13.15-8.52,0,0,0,0Z" transform="translate(-8.61 -7.57)"/><path class="cls-83" d="M388.35,108.32a.13.13,0,0,0,0,.24l1.18.73a.46.46,0,0,0,.42,0l1.23-.66a.13.13,0,0,0,0-.24l-1.18-.74a.46.46,0,0,0-.42,0Z" transform="translate(-8.61 -7.57)"/><path class="cls-83" d="M386.21,109.47a.13.13,0,0,0,0,.24l1.17.74a.47.47,0,0,0,.42,0l1.23-.66c.12-.06.12-.17,0-.24l-1.18-.74a.45.45,0,0,0-.42,0Z" transform="translate(-8.61 -7.57)"/><path class="cls-83" d="M384.06,110.62a.13.13,0,0,0,0,.24l1.18.74a.45.45,0,0,0,.42,0l1.23-.66a.13.13,0,0,0,0-.24l-1.18-.73a.46.46,0,0,0-.42,0Z" transform="translate(-8.61 -7.57)"/><path class="cls-83" d="M381.92,111.76a.13.13,0,0,0,0,.24l1.18.73a.45.45,0,0,0,.41,0l1.23-.66a.13.13,0,0,0,0-.24l-1.17-.74a.46.46,0,0,0-.42,0Z" transform="translate(-8.61 -7.57)"/><path class="cls-83" d="M379.77,112.91a.13.13,0,0,0,0,.24l1.18.73a.46.46,0,0,0,.42,0l1.23-.66c.12-.06.12-.17,0-.24l-1.18-.74a.46.46,0,0,0-.42,0Z" transform="translate(-8.61 -7.57)"/><path class="cls-83" d="M377.63,114.06a.13.13,0,0,0,0,.24l1.18.74a.46.46,0,0,0,.42,0l1.23-.66a.13.13,0,0,0,0-.24l-1.18-.73a.46.46,0,0,0-.42,0Z" transform="translate(-8.61 -7.57)"/><path class="cls-83" d="M388.26,110.76a.13.13,0,0,0,0,.24l1.18.73a.46.46,0,0,0,.42,0l3.37-1.8c.12-.06.12-.17,0-.24l-1.18-.73a.45.45,0,0,0-.41,0Z" transform="translate(-8.61 -7.57)"/><path class="cls-83" d="M386.12,111.9c-.12.06-.12.17,0,.24l1.17.74a.46.46,0,0,0,.42,0l1.23-.66a.13.13,0,0,0,0-.24l-1.18-.74a.47.47,0,0,0-.42,0Z" transform="translate(-8.61 -7.57)"/><path class="cls-83" d="M384,113.05a.13.13,0,0,0,0,.24l1.18.73a.46.46,0,0,0,.42,0l1.23-.66a.13.13,0,0,0,0-.24l-1.18-.73a.45.45,0,0,0-.42,0Z" transform="translate(-8.61 -7.57)"/><path class="cls-83" d="M381.83,114.2c-.12.06-.12.17,0,.24l1.17.73a.46.46,0,0,0,.42,0l1.23-.66a.13.13,0,0,0,0-.24l-1.18-.74a.45.45,0,0,0-.42,0Z" transform="translate(-8.61 -7.57)"/><path class="cls-83" d="M379.69,115.34a.13.13,0,0,0,0,.24l1.18.74a.46.46,0,0,0,.42,0l1.23-.66a.13.13,0,0,0,0-.24l-1.17-.74a.46.46,0,0,0-.42,0Z" transform="translate(-8.61 -7.57)"/><path class="cls-83" d="M390.34,112.06a.13.13,0,0,0,0,.24l1.17.74a.46.46,0,0,0,.42,0l3.37-1.8a.13.13,0,0,0,0-.24l-1.18-.74a.46.46,0,0,0-.42,0Z" transform="translate(-8.61 -7.57)"/><path class="cls-83" d="M388.2,113.2c-.12.06-.12.17,0,.24l1.18.74a.45.45,0,0,0,.42,0l1.23-.66a.13.13,0,0,0,0-.24l-1.18-.73a.46.46,0,0,0-.42,0Z" transform="translate(-8.61 -7.57)"/><path class="cls-83" d="M386.06,114.35a.13.13,0,0,0,0,.24l1.18.74a.47.47,0,0,0,.42,0l1.23-.66c.12-.06.12-.17,0-.24l-1.17-.74a.46.46,0,0,0-.42,0Z" transform="translate(-8.61 -7.57)"/><path class="cls-83" d="M383.91,115.5a.13.13,0,0,0,0,.24l1.18.73a.46.46,0,0,0,.42,0l1.23-.66a.13.13,0,0,0,0-.24l-1.18-.74a.46.46,0,0,0-.42,0Z" transform="translate(-8.61 -7.57)"/><path class="cls-83" d="M375.49,115.2a.13.13,0,0,0,0,.24l1.18.74a.46.46,0,0,0,.42,0l1.23-.66a.13.13,0,0,0,0-.24l-1.17-.74a.46.46,0,0,0-.42,0Z" transform="translate(-8.61 -7.57)"/><path class="cls-83" d="M377.54,116.49c-.12.06-.12.17,0,.24l1.18.74a.46.46,0,0,0,.41,0l1.23-.66c.12-.06.12-.17,0-.24l-1.18-.73a.46.46,0,0,0-.42,0Z" transform="translate(-8.61 -7.57)"/><path class="cls-83" d="M381.77,116.64c-.12.06-.12.17,0,.24l1.17.74a.47.47,0,0,0,.42,0l1.23-.66a.13.13,0,0,0,0-.24l-1.18-.74a.46.46,0,0,0-.41,0Z" transform="translate(-8.61 -7.57)"/><path class="cls-83" d="M379.62,117.79c-.12.06-.12.17,0,.24l1.18.74a.46.46,0,0,0,.42,0l1.23-.66a.13.13,0,0,0,0-.24l-1.18-.74a.46.46,0,0,0-.42,0Z" transform="translate(-8.61 -7.57)"/><path class="cls-83" d="M390.18,114.44a.13.13,0,0,0,0,.24l1.18.74a.45.45,0,0,0,.42,0l5.52-3a.13.13,0,0,0,0-.24l-1.18-.74a.45.45,0,0,0-.41,0Z" transform="translate(-8.61 -7.57)"/><path class="cls-83" d="M388,115.59a.13.13,0,0,0,0,.24l1.18.73a.46.46,0,0,0,.42,0l1.23-.66a.13.13,0,0,0,0-.24l-1.18-.74a.46.46,0,0,0-.42,0Z" transform="translate(-8.61 -7.57)"/><path class="cls-83" d="M385.89,116.74c-.12.06-.12.17,0,.24l1.18.74a.46.46,0,0,0,.42,0l1.23-.66a.13.13,0,0,0,0-.24l-1.18-.73a.45.45,0,0,0-.41,0Z" transform="translate(-8.61 -7.57)"/><path class="cls-83" d="M383.75,117.88c-.12.06-.12.17,0,.24l1.18.74a.46.46,0,0,0,.42,0l1.23-.66a.13.13,0,0,0,0-.24l-1.17-.74a.46.46,0,0,0-.42,0Z" transform="translate(-8.61 -7.57)"/><path class="cls-83" d="M381.6,119a.13.13,0,0,0,0,.24l1.18.74a.47.47,0,0,0,.42,0l1.23-.66a.13.13,0,0,0,0-.24l-1.17-.74a.47.47,0,0,0-.42,0Z" transform="translate(-8.61 -7.57)"/><path class="cls-83" d="M373.34,116.35c-.12.06-.12.17,0,.24l1.17.74a.46.46,0,0,0,.42,0l1.23-.66c.12-.06.12-.17,0-.24l-1.18-.74a.47.47,0,0,0-.42,0Z" transform="translate(-8.61 -7.57)"/><path class="cls-83" d="M375.4,117.64a.13.13,0,0,0,0,.24l1.17.74a.46.46,0,0,0,.42,0l1.23-.66c.12-.06.12-.17,0-.24L377,117a.46.46,0,0,0-.41,0Z" transform="translate(-8.61 -7.57)"/><path class="cls-83" d="M377.48,118.94a.13.13,0,0,0,0,.24l1.18.74a.46.46,0,0,0,.42,0l1.23-.66c.12-.06.12-.17,0-.24l-1.17-.74a.46.46,0,0,0-.42,0Z" transform="translate(-8.61 -7.57)"/><path class="cls-83" d="M379.46,120.18a.13.13,0,0,0,0,.24l1.18.73a.45.45,0,0,0,.42,0l1.23-.66a.13.13,0,0,0,0-.24l-1.18-.74a.46.46,0,0,0-.41,0Z" transform="translate(-8.61 -7.57)"/><path class="cls-83" d="M396.41,113.36a.13.13,0,0,0,0,.24l1.18.74a.45.45,0,0,0,.42,0l1.23-.66a.13.13,0,0,0,0-.24l-1.18-.74a.46.46,0,0,0-.42,0Z" transform="translate(-8.61 -7.57)"/><path class="cls-83" d="M394.27,114.51a.13.13,0,0,0,0,.24l1.18.74a.46.46,0,0,0,.42,0l1.23-.66c.12-.06.12-.17,0-.24l-1.17-.74a.46.46,0,0,0-.42,0Z" transform="translate(-8.61 -7.57)"/><path class="cls-83" d="M392.12,115.66a.13.13,0,0,0,0,.24l1.18.74a.46.46,0,0,0,.42,0l1.23-.66a.13.13,0,0,0,0-.24l-1.18-.73a.46.46,0,0,0-.42,0Z" transform="translate(-8.61 -7.57)"/><path class="cls-83" d="M381.41,121.39c-.12.06-.12.17,0,.24l1.18.74a.46.46,0,0,0,.42,0l9.8-5.24a.13.13,0,0,0,0-.24l-1.18-.74a.46.46,0,0,0-.42,0Z" transform="translate(-8.61 -7.57)"/><path class="cls-83" d="M371.2,117.5a.13.13,0,0,0,0,.24l1.18.73a.46.46,0,0,0,.42,0l1.23-.66c.12-.06.12-.17,0-.24l-1.17-.74a.45.45,0,0,0-.42,0Z" transform="translate(-8.61 -7.57)"/><path class="cls-83" d="M369.06,118.65a.13.13,0,0,0,0,.24l1.18.74a.45.45,0,0,0,.42,0l1.23-.66c.12-.06.12-.17,0-.24L370.7,118a.46.46,0,0,0-.42,0Z" transform="translate(-8.61 -7.57)"/><path class="cls-83" d="M364.77,120.94a.13.13,0,0,0,0,.24l1.17.74a.46.46,0,0,0,.42,0l3.37-1.8a.13.13,0,0,0,0-.24l-1.18-.73a.46.46,0,0,0-.42,0Z" transform="translate(-8.61 -7.57)"/><path class="cls-83" d="M373.26,118.79a.13.13,0,0,0,0,.24l1.18.73a.46.46,0,0,0,.42,0l1.23-.66a.13.13,0,0,0,0-.24l-1.18-.73a.45.45,0,0,0-.42,0Z" transform="translate(-8.61 -7.57)"/><path class="cls-83" d="M371.11,119.93c-.12.06-.12.17,0,.24l1.18.74a.46.46,0,0,0,.42,0l1.23-.66a.13.13,0,0,0,0-.24l-1.18-.74a.46.46,0,0,0-.42,0Z" transform="translate(-8.61 -7.57)"/><path class="cls-83" d="M369,121.08a.13.13,0,0,0,0,.24l1.18.74a.46.46,0,0,0,.42,0l1.23-.66a.13.13,0,0,0,0-.24l-1.17-.74a.46.46,0,0,0-.42,0Z" transform="translate(-8.61 -7.57)"/><path class="cls-83" d="M366.83,122.23a.13.13,0,0,0,0,.24l1.17.74a.46.46,0,0,0,.42,0l1.23-.66c.12-.06.12-.17,0-.24l-1.18-.74a.46.46,0,0,0-.42,0Z" transform="translate(-8.61 -7.57)"/><path class="cls-83" d="M375.34,120.08c-.12.06-.12.17,0,.24l1.17.73a.46.46,0,0,0,.42,0l1.23-.66a.13.13,0,0,0,0-.24l-1.17-.74a.46.46,0,0,0-.42,0Z" transform="translate(-8.61 -7.57)"/><path class="cls-83" d="M373.19,121.23a.13.13,0,0,0,0,.24l1.17.74a.46.46,0,0,0,.42,0l1.23-.66c.12-.06.12-.17,0-.24l-1.18-.74a.46.46,0,0,0-.42,0Z" transform="translate(-8.61 -7.57)"/><path class="cls-83" d="M368.91,123.53c-.12.06-.12.17,0,.24l1.18.74a.46.46,0,0,0,.42,0l3.37-1.8a.13.13,0,0,0,0-.24l-1.17-.73a.46.46,0,0,0-.42,0Z" transform="translate(-8.61 -7.57)"/><path class="cls-83" d="M377.32,121.32c-.12.06-.12.17,0,.24l1.17.74a.46.46,0,0,0,.42,0l1.23-.66a.13.13,0,0,0,0-.24l-1.18-.73a.46.46,0,0,0-.42,0Z" transform="translate(-8.61 -7.57)"/><path class="cls-83" d="M375.17,122.47a.13.13,0,0,0,0,.24l1.18.74a.46.46,0,0,0,.41,0l1.23-.66a.13.13,0,0,0,0-.24l-1.18-.74a.46.46,0,0,0-.42,0Z" transform="translate(-8.61 -7.57)"/><path class="cls-83" d="M370.89,124.76a.13.13,0,0,0,0,.24l1.18.73a.46.46,0,0,0,.42,0l3.37-1.8a.13.13,0,0,0,0-.24l-1.18-.74a.47.47,0,0,0-.42,0Z" transform="translate(-8.61 -7.57)"/><path class="cls-83" d="M379.26,122.54a.13.13,0,0,0,0,.24l1.18.74a.46.46,0,0,0,.42,0l1.23-.66c.12-.06.12-.17,0-.24l-1.18-.74a.45.45,0,0,0-.41,0Z" transform="translate(-8.61 -7.57)"/><path class="cls-83" d="M372.83,126a.13.13,0,0,0,0,.24L374,127a.46.46,0,0,0,.42,0l3.37-1.8a.13.13,0,0,0,0-.24l-1.17-.73a.46.46,0,0,0-.42,0Z" transform="translate(-8.61 -7.57)"/><path class="cls-81" d="M389.93,109.31l1.23-.66a.14.14,0,0,0,.09-.12v.24a.15.15,0,0,1-.09.12l-1.23.66Z" transform="translate(-8.61 -7.57)"/><path class="cls-78" d="M388.26,108.44a.14.14,0,0,0,.08.12l1.18.73a.46.46,0,0,0,.42,0v.24a.45.45,0,0,1-.42,0l-1.17-.73a.15.15,0,0,1-.08-.12Z" transform="translate(-8.61 -7.57)"/><path class="cls-81" d="M387.79,110.46l1.23-.66a.14.14,0,0,0,.09-.12v.24a.15.15,0,0,1-.09.12l-1.23.66Z" transform="translate(-8.61 -7.57)"/><path class="cls-78" d="M386.11,109.59a.14.14,0,0,0,.08.12l1.17.74a.47.47,0,0,0,.42,0v.24a.46.46,0,0,1-.42,0l-1.18-.74a.15.15,0,0,1-.08-.12Z" transform="translate(-8.61 -7.57)"/><path class="cls-81" d="M385.64,111.61l1.23-.66a.15.15,0,0,0,.09-.12v.24a.15.15,0,0,1-.09.12l-1.23.66Z" transform="translate(-8.61 -7.57)"/><path class="cls-78" d="M384,110.74a.14.14,0,0,0,.08.12l1.18.74a.45.45,0,0,0,.42,0v.24a.45.45,0,0,1-.42,0L384,111.1A.15.15,0,0,1,384,111Z" transform="translate(-8.61 -7.57)"/><path class="cls-81" d="M383.5,112.75l1.23-.66a.15.15,0,0,0,.09-.12v.24a.15.15,0,0,1-.09.12l-1.23.66Z" transform="translate(-8.61 -7.57)"/><path class="cls-78" d="M381.83,111.88a.15.15,0,0,0,.08.12l1.18.73a.45.45,0,0,0,.41,0V113a.46.46,0,0,1-.42,0l-1.18-.74a.15.15,0,0,1-.08-.12Z" transform="translate(-8.61 -7.57)"/><path class="cls-81" d="M381.36,113.9l1.23-.66a.15.15,0,0,0,.09-.12v.24s0,.09-.09.13l-1.23.66Z" transform="translate(-8.61 -7.57)"/><path class="cls-78" d="M379.68,113a.15.15,0,0,0,.08.12l1.18.73a.46.46,0,0,0,.42,0v.24a.46.46,0,0,1-.42,0l-1.18-.74a.15.15,0,0,1-.08-.12Z" transform="translate(-8.61 -7.57)"/><path class="cls-81" d="M379.21,115l1.23-.66a.14.14,0,0,0,.09-.12v.24a.14.14,0,0,1-.09.12l-1.23.66Z" transform="translate(-8.61 -7.57)"/><path class="cls-78" d="M377.54,114.18a.14.14,0,0,0,.08.12l1.18.74a.46.46,0,0,0,.42,0v.24a.45.45,0,0,1-.42,0l-1.18-.73a.15.15,0,0,1-.08-.12Z" transform="translate(-8.61 -7.57)"/><path class="cls-81" d="M389.85,111.74l3.37-1.8a.15.15,0,0,0,.09-.12v.24a.14.14,0,0,1-.09.12l-3.37,1.8Z" transform="translate(-8.61 -7.57)"/><path class="cls-78" d="M388.17,110.88a.15.15,0,0,0,.08.12l1.18.73a.46.46,0,0,0,.42,0V112a.46.46,0,0,1-.42,0l-1.17-.74a.15.15,0,0,1-.08-.12Z" transform="translate(-8.61 -7.57)"/><path class="cls-81" d="M387.7,112.89l1.23-.66a.15.15,0,0,0,.09-.12v.24a.15.15,0,0,1-.09.12l-1.23.66Z" transform="translate(-8.61 -7.57)"/><path class="cls-78" d="M386,112a.14.14,0,0,0,.08.12l1.17.74a.46.46,0,0,0,.42,0v.24a.46.46,0,0,1-.41,0l-1.18-.74a.15.15,0,0,1-.08-.12Z" transform="translate(-8.61 -7.57)"/><path class="cls-81" d="M385.56,114l1.23-.66a.15.15,0,0,0,.09-.12v.24a.14.14,0,0,1-.09.12l-1.23.66Z" transform="translate(-8.61 -7.57)"/><path class="cls-78" d="M383.89,113.17a.15.15,0,0,0,.08.12l1.18.73a.46.46,0,0,0,.42,0v.24a.46.46,0,0,1-.42,0l-1.17-.74a.15.15,0,0,1-.08-.12Z" transform="translate(-8.61 -7.57)"/><path class="cls-81" d="M383.42,115.19l1.23-.66a.15.15,0,0,0,.09-.12v.24a.15.15,0,0,1-.09.12l-1.23.66Z" transform="translate(-8.61 -7.57)"/><path class="cls-78" d="M381.74,114.32a.14.14,0,0,0,.08.12l1.17.73a.46.46,0,0,0,.42,0v.24a.46.46,0,0,1-.42,0l-1.18-.74a.14.14,0,0,1-.08-.12Z" transform="translate(-8.61 -7.57)"/><path class="cls-81" d="M381.27,116.33l1.23-.66a.14.14,0,0,0,.09-.12v.24a.15.15,0,0,1-.09.12l-1.23.66Z" transform="translate(-8.61 -7.57)"/><path class="cls-78" d="M379.6,115.46a.15.15,0,0,0,.08.12l1.18.74a.46.46,0,0,0,.42,0v.24a.46.46,0,0,1-.42,0l-1.18-.74a.15.15,0,0,1-.08-.12Z" transform="translate(-8.61 -7.57)"/><path class="cls-81" d="M391.93,113l3.37-1.8a.15.15,0,0,0,.09-.12v.24a.15.15,0,0,1-.09.12l-3.37,1.8Z" transform="translate(-8.61 -7.57)"/><path class="cls-78" d="M390.25,112.18a.15.15,0,0,0,.08.12l1.17.74a.46.46,0,0,0,.42,0v.24a.46.46,0,0,1-.42,0l-1.17-.74a.14.14,0,0,1-.08-.12Z" transform="translate(-8.61 -7.57)"/><path class="cls-81" d="M389.78,114.19l1.23-.66a.15.15,0,0,0,.09-.12v.24a.15.15,0,0,1-.09.12l-1.23.66Z" transform="translate(-8.61 -7.57)"/><path class="cls-78" d="M388.11,113.32a.15.15,0,0,0,.08.12l1.18.74a.45.45,0,0,0,.42,0v.24a.46.46,0,0,1-.42,0l-1.17-.74a.15.15,0,0,1-.08-.12Z" transform="translate(-8.61 -7.57)"/><path class="cls-81" d="M387.64,115.34l1.23-.66a.15.15,0,0,0,.09-.12v.24a.15.15,0,0,1-.09.12l-1.23.66Z" transform="translate(-8.61 -7.57)"/><path class="cls-78" d="M386,114.47a.15.15,0,0,0,.08.12l1.18.74a.47.47,0,0,0,.42,0v.24a.46.46,0,0,1-.42,0l-1.18-.73a.15.15,0,0,1-.08-.12Z" transform="translate(-8.61 -7.57)"/><path class="cls-81" d="M385.49,116.49l1.23-.66a.15.15,0,0,0,.09-.12V116a.15.15,0,0,1-.09.12l-1.23.66Z" transform="translate(-8.61 -7.57)"/><path class="cls-78" d="M383.82,115.62a.14.14,0,0,0,.08.12l1.18.73a.46.46,0,0,0,.42,0v.24a.46.46,0,0,1-.42,0L383.9,116a.14.14,0,0,1-.08-.12Z" transform="translate(-8.61 -7.57)"/><path class="cls-81" d="M377.07,116.19l1.23-.66a.15.15,0,0,0,.09-.12v.24a.15.15,0,0,1-.09.12l-1.23.66Z" transform="translate(-8.61 -7.57)"/><path class="cls-78" d="M375.39,115.32a.15.15,0,0,0,.08.12l1.18.74a.46.46,0,0,0,.42,0v.24a.46.46,0,0,1-.42,0l-1.17-.74a.15.15,0,0,1-.08-.12Z" transform="translate(-8.61 -7.57)"/><path class="cls-81" d="M379.13,117.48l1.23-.66a.15.15,0,0,0,.09-.12v.24a.15.15,0,0,1-.09.12l-1.23.66Z" transform="translate(-8.61 -7.57)"/><path class="cls-78" d="M377.45,116.61a.15.15,0,0,0,.08.12l1.18.74a.46.46,0,0,0,.41,0v.24a.45.45,0,0,1-.41,0l-1.18-.74a.15.15,0,0,1-.08-.12Z" transform="translate(-8.61 -7.57)"/><path class="cls-81" d="M383.35,117.63l1.23-.66a.15.15,0,0,0,.09-.12v.24a.15.15,0,0,1-.09.12l-1.23.66Z" transform="translate(-8.61 -7.57)"/><path class="cls-78" d="M381.68,116.76a.15.15,0,0,0,.08.12l1.17.74a.47.47,0,0,0,.42,0v.24a.45.45,0,0,1-.42,0l-1.18-.74a.14.14,0,0,1-.08-.12Z" transform="translate(-8.61 -7.57)"/><path class="cls-81" d="M381.21,118.78l1.23-.66a.15.15,0,0,0,.09-.12v.24a.15.15,0,0,1-.09.12l-1.23.66Z" transform="translate(-8.61 -7.57)"/><path class="cls-78" d="M379.53,117.91a.15.15,0,0,0,.08.12l1.18.74a.46.46,0,0,0,.42,0V119a.46.46,0,0,1-.42,0l-1.18-.74a.14.14,0,0,1-.08-.12Z" transform="translate(-8.61 -7.57)"/><path class="cls-81" d="M391.76,115.43l5.52-3a.15.15,0,0,0,.09-.12v.24a.15.15,0,0,1-.09.12l-5.52,3Z" transform="translate(-8.61 -7.57)"/><path class="cls-78" d="M390.09,114.56a.14.14,0,0,0,.08.12l1.18.74a.45.45,0,0,0,.42,0v.24a.45.45,0,0,1-.42,0l-1.18-.74a.14.14,0,0,1-.08-.12Z" transform="translate(-8.61 -7.57)"/><path class="cls-81" d="M389.62,116.58l1.23-.66a.15.15,0,0,0,.09-.12V116a.14.14,0,0,1-.09.12l-1.23.66Z" transform="translate(-8.61 -7.57)"/><path class="cls-78" d="M387.95,115.71a.15.15,0,0,0,.08.12l1.18.73a.46.46,0,0,0,.42,0v.24a.47.47,0,0,1-.42,0l-1.18-.74a.14.14,0,0,1-.08-.12Z" transform="translate(-8.61 -7.57)"/><path class="cls-81" d="M387.48,117.72l1.23-.66a.14.14,0,0,0,.09-.12v.24a.15.15,0,0,1-.09.12l-1.23.66Z" transform="translate(-8.61 -7.57)"/><path class="cls-78" d="M385.8,116.86a.15.15,0,0,0,.08.12l1.18.74a.46.46,0,0,0,.42,0V118a.46.46,0,0,1-.42,0l-1.18-.74a.15.15,0,0,1-.08-.12Z" transform="translate(-8.61 -7.57)"/><path class="cls-81" d="M385.33,118.87l1.23-.66a.14.14,0,0,0,.09-.12v.24a.15.15,0,0,1-.09.12l-1.23.66Z" transform="translate(-8.61 -7.57)"/><path class="cls-78" d="M383.66,118a.14.14,0,0,0,.08.12l1.18.74a.46.46,0,0,0,.42,0v.24a.46.46,0,0,1-.42,0l-1.18-.74a.15.15,0,0,1-.08-.12Z" transform="translate(-8.61 -7.57)"/><path class="cls-81" d="M383.19,120l1.23-.66a.15.15,0,0,0,.09-.12v.24a.15.15,0,0,1-.09.12l-1.23.66Z" transform="translate(-8.61 -7.57)"/><path class="cls-78" d="M381.52,119.15a.14.14,0,0,0,.08.12l1.18.74a.47.47,0,0,0,.42,0v.24a.46.46,0,0,1-.42,0l-1.18-.74a.14.14,0,0,1-.08-.12Z" transform="translate(-8.61 -7.57)"/><path class="cls-81" d="M374.93,117.34l1.23-.66a.15.15,0,0,0,.09-.12v.24a.14.14,0,0,1-.09.12l-1.23.66Z" transform="translate(-8.61 -7.57)"/><path class="cls-78" d="M373.25,116.47a.14.14,0,0,0,.08.12l1.17.74a.46.46,0,0,0,.42,0v.24a.46.46,0,0,1-.41,0l-1.18-.74a.14.14,0,0,1-.08-.12Z" transform="translate(-8.61 -7.57)"/><path class="cls-81" d="M377,118.63l1.23-.66a.15.15,0,0,0,.09-.12v.24a.15.15,0,0,1-.09.12l-1.23.66Z" transform="translate(-8.61 -7.57)"/><path class="cls-78" d="M375.31,117.76a.15.15,0,0,0,.08.12l1.17.74a.46.46,0,0,0,.42,0v.24a.46.46,0,0,1-.42,0l-1.17-.73a.14.14,0,0,1-.08-.12Z" transform="translate(-8.61 -7.57)"/><path class="cls-81" d="M379.06,119.93l1.23-.66a.15.15,0,0,0,.09-.12v.24a.15.15,0,0,1-.09.12l-1.23.66Z" transform="translate(-8.61 -7.57)"/><path class="cls-78" d="M377.39,119.06a.15.15,0,0,0,.08.12l1.18.74a.46.46,0,0,0,.42,0v.24a.46.46,0,0,1-.42,0l-1.17-.74a.15.15,0,0,1-.08-.12Z" transform="translate(-8.61 -7.57)"/><path class="cls-81" d="M381,121.17l1.23-.66a.14.14,0,0,0,.09-.12v.24a.15.15,0,0,1-.09.12l-1.23.66Z" transform="translate(-8.61 -7.57)"/><path class="cls-78" d="M379.37,120.29a.15.15,0,0,0,.08.12l1.18.73a.45.45,0,0,0,.42,0v.24a.46.46,0,0,1-.42,0l-1.18-.74a.14.14,0,0,1-.08-.12Z" transform="translate(-8.61 -7.57)"/><path class="cls-81" d="M398,114.35l1.23-.66a.15.15,0,0,0,.09-.12v.24a.15.15,0,0,1-.09.12l-1.23.66Z" transform="translate(-8.61 -7.57)"/><path class="cls-78" d="M396.32,113.48a.14.14,0,0,0,.08.12l1.18.74a.45.45,0,0,0,.42,0v.24a.46.46,0,0,1-.42,0l-1.17-.73a.15.15,0,0,1-.08-.12Z" transform="translate(-8.61 -7.57)"/><path class="cls-81" d="M395.85,115.5l1.23-.66a.14.14,0,0,0,.09-.12V115a.15.15,0,0,1-.09.12l-1.23.66Z" transform="translate(-8.61 -7.57)"/><path class="cls-78" d="M394.18,114.63a.14.14,0,0,0,.08.12l1.18.74a.46.46,0,0,0,.42,0v.24a.46.46,0,0,1-.42,0l-1.17-.73a.15.15,0,0,1-.08-.12Z" transform="translate(-8.61 -7.57)"/><path class="cls-81" d="M393.71,116.65l1.23-.66a.15.15,0,0,0,.09-.12v.24a.14.14,0,0,1-.09.12l-1.23.66Z" transform="translate(-8.61 -7.57)"/><path class="cls-78" d="M392,115.78a.15.15,0,0,0,.08.12l1.18.74a.46.46,0,0,0,.42,0v.24a.46.46,0,0,1-.42,0l-1.18-.74A.15.15,0,0,1,392,116Z" transform="translate(-8.61 -7.57)"/><path class="cls-81" d="M383,122.38l9.8-5.24a.14.14,0,0,0,.09-.12v.24a.14.14,0,0,1-.09.12l-9.8,5.25Z" transform="translate(-8.61 -7.57)"/><path class="cls-78" d="M381.32,121.51a.14.14,0,0,0,.08.12l1.18.74a.46.46,0,0,0,.42,0v.24a.46.46,0,0,1-.42,0l-1.18-.74a.14.14,0,0,1-.08-.12Z" transform="translate(-8.61 -7.57)"/><path class="cls-81" d="M372.78,118.49l1.23-.66a.15.15,0,0,0,.09-.12V118a.14.14,0,0,1-.09.12l-1.23.66Z" transform="translate(-8.61 -7.57)"/><path class="cls-78" d="M371.11,117.62a.15.15,0,0,0,.08.12l1.18.73a.46.46,0,0,0,.42,0v.24a.46.46,0,0,1-.42,0l-1.17-.74a.14.14,0,0,1-.08-.12Z" transform="translate(-8.61 -7.57)"/><path class="cls-81" d="M370.64,119.63l1.23-.66a.14.14,0,0,0,.09-.12v.24a.15.15,0,0,1-.09.12l-1.23.66Z" transform="translate(-8.61 -7.57)"/><path class="cls-78" d="M369,118.76a.14.14,0,0,0,.08.12l1.18.74a.45.45,0,0,0,.42,0v.24a.46.46,0,0,1-.41,0l-1.17-.74A.15.15,0,0,1,369,119Z" transform="translate(-8.61 -7.57)"/><path class="cls-81" d="M366.35,121.93l3.37-1.8a.15.15,0,0,0,.09-.12v.24a.14.14,0,0,1-.09.12l-3.37,1.8Z" transform="translate(-8.61 -7.57)"/><path class="cls-78" d="M364.68,121.06a.14.14,0,0,0,.08.12l1.17.74a.46.46,0,0,0,.42,0v.24a.46.46,0,0,1-.41,0l-1.18-.74a.15.15,0,0,1-.08-.12Z" transform="translate(-8.61 -7.57)"/><path class="cls-81" d="M374.84,119.77l1.23-.66a.14.14,0,0,0,.09-.12v.24a.15.15,0,0,1-.09.12l-1.23.66Z" transform="translate(-8.61 -7.57)"/><path class="cls-78" d="M373.17,118.9a.15.15,0,0,0,.08.12l1.18.73a.46.46,0,0,0,.42,0V120a.45.45,0,0,1-.42,0l-1.18-.73a.15.15,0,0,1-.08-.12Z" transform="translate(-8.61 -7.57)"/><path class="cls-81" d="M372.7,120.92l1.23-.66a.15.15,0,0,0,.09-.12v.24a.15.15,0,0,1-.09.12l-1.23.66Z" transform="translate(-8.61 -7.57)"/><path class="cls-78" d="M371,120.05a.15.15,0,0,0,.08.12l1.18.74a.46.46,0,0,0,.42,0v.24a.46.46,0,0,1-.42,0l-1.18-.74a.14.14,0,0,1-.08-.12Z" transform="translate(-8.61 -7.57)"/><path class="cls-81" d="M370.55,122.07l1.23-.66a.15.15,0,0,0,.09-.12v.24a.15.15,0,0,1-.09.12l-1.23.66Z" transform="translate(-8.61 -7.57)"/><path class="cls-78" d="M368.88,121.2a.14.14,0,0,0,.08.12l1.18.74a.46.46,0,0,0,.42,0v.24a.46.46,0,0,1-.42,0l-1.18-.74a.15.15,0,0,1-.08-.12Z" transform="translate(-8.61 -7.57)"/><path class="cls-81" d="M368.41,123.21l1.23-.66a.15.15,0,0,0,.09-.12v.24a.15.15,0,0,1-.09.12l-1.23.66Z" transform="translate(-8.61 -7.57)"/><path class="cls-78" d="M366.74,122.34a.14.14,0,0,0,.08.12l1.17.74a.46.46,0,0,0,.42,0v.24a.46.46,0,0,1-.42,0l-1.17-.73a.15.15,0,0,1-.08-.12Z" transform="translate(-8.61 -7.57)"/><path class="cls-81" d="M376.92,121.07l1.23-.66a.15.15,0,0,0,.09-.12v.24a.14.14,0,0,1-.09.12l-1.23.66Z" transform="translate(-8.61 -7.57)"/><path class="cls-78" d="M375.25,120.2a.15.15,0,0,0,.08.12l1.17.73a.46.46,0,0,0,.42,0v.24a.46.46,0,0,1-.42,0l-1.17-.74a.14.14,0,0,1-.08-.12Z" transform="translate(-8.61 -7.57)"/><path class="cls-81" d="M374.78,122.22l1.23-.66a.15.15,0,0,0,.09-.12v.24a.15.15,0,0,1-.09.12l-1.23.66Z" transform="translate(-8.61 -7.57)"/><path class="cls-78" d="M373.1,121.35a.15.15,0,0,0,.08.12l1.17.74a.46.46,0,0,0,.42,0v.24a.46.46,0,0,1-.42,0l-1.18-.73a.14.14,0,0,1-.08-.12Z" transform="translate(-8.61 -7.57)"/><path class="cls-81" d="M370.49,124.52l3.37-1.8a.15.15,0,0,0,.09-.12v.24a.15.15,0,0,1-.09.12l-3.37,1.8Z" transform="translate(-8.61 -7.57)"/><path class="cls-78" d="M368.82,123.64a.14.14,0,0,0,.08.12l1.18.74a.46.46,0,0,0,.42,0v.24a.46.46,0,0,1-.42,0l-1.18-.74a.15.15,0,0,1-.08-.12Z" transform="translate(-8.61 -7.57)"/><path class="cls-81" d="M378.9,122.31l1.23-.66a.15.15,0,0,0,.09-.12v.24a.15.15,0,0,1-.09.12l-1.23.66Z" transform="translate(-8.61 -7.57)"/><path class="cls-78" d="M377.23,121.44a.14.14,0,0,0,.08.12l1.17.74a.46.46,0,0,0,.42,0v.24a.46.46,0,0,1-.42,0l-1.18-.74a.14.14,0,0,1-.08-.12Z" transform="translate(-8.61 -7.57)"/><path class="cls-81" d="M376.76,123.46l1.23-.66a.15.15,0,0,0,.09-.12v.24a.15.15,0,0,1-.09.12l-1.23.66Z" transform="translate(-8.61 -7.57)"/><path class="cls-78" d="M375.08,122.59a.15.15,0,0,0,.08.12l1.18.74a.46.46,0,0,0,.41,0v.24a.46.46,0,0,1-.42,0l-1.18-.74a.15.15,0,0,1-.08-.12Z" transform="translate(-8.61 -7.57)"/><path class="cls-81" d="M372.47,125.75l3.37-1.8a.15.15,0,0,0,.09-.12v.24a.15.15,0,0,1-.09.12l-3.37,1.8Z" transform="translate(-8.61 -7.57)"/><path class="cls-78" d="M370.8,124.88a.15.15,0,0,0,.08.12l1.18.73a.46.46,0,0,0,.42,0V126a.46.46,0,0,1-.42,0l-1.18-.74a.14.14,0,0,1-.08-.12Z" transform="translate(-8.61 -7.57)"/><path class="cls-81" d="M380.85,123.53l1.23-.66a.15.15,0,0,0,.09-.12V123a.15.15,0,0,1-.09.12l-1.23.66Z" transform="translate(-8.61 -7.57)"/><path class="cls-78" d="M379.17,122.66a.14.14,0,0,0,.08.12l1.18.74a.46.46,0,0,0,.42,0v.24a.47.47,0,0,1-.42,0l-1.18-.74a.14.14,0,0,1-.08-.12Z" transform="translate(-8.61 -7.57)"/><path class="cls-81" d="M378.7,124.68l1.23-.66a.15.15,0,0,0,.09-.12v.24a.15.15,0,0,1-.09.12l-1.23.66Z" transform="translate(-8.61 -7.57)"/><path class="cls-78" d="M377,123.8a.15.15,0,0,0,.08.12l1.18.74a.46.46,0,0,0,.42,0v.24a.46.46,0,0,1-.42,0l-1.18-.74A.14.14,0,0,1,377,124Z" transform="translate(-8.61 -7.57)"/><path class="cls-83" d="M377.12,123.69a.13.13,0,0,0,0,.24l1.18.74a.46.46,0,0,0,.42,0l1.23-.66c.12-.06.12-.17,0-.24l-1.18-.74a.46.46,0,0,0-.42,0Z" transform="translate(-8.61 -7.57)"/><path class="cls-81" d="M374.41,127l3.37-1.8a.14.14,0,0,0,.09-.12v.24a.15.15,0,0,1-.09.12l-3.37,1.8Z" transform="translate(-8.61 -7.57)"/><path class="cls-78" d="M372.74,126.1a.14.14,0,0,0,.08.12L374,127a.46.46,0,0,0,.42,0v.24a.46.46,0,0,1-.42,0l-1.18-.74a.14.14,0,0,1-.08-.12Z" transform="translate(-8.61 -7.57)"/><path class="cls-84" d="M286,146.37c0,1.77,1.2,3.53,3.56,4.86,4.65,2.61,12.08,2.54,16.6-.17,2.22-1.33,3.33-3,3.32-4.76v1.46a4.39,4.39,0,0,1-.21,1.33,7.63,7.63,0,0,1-4.14,4.11,15.5,15.5,0,0,1-2.9,1c-7.07,1.78-16-1-16.24-6.4Z" transform="translate(-8.61 -7.57)"/><path class="cls-85" d="M286.22,145.3h0c2.35-6.29,14.13-7.52,20.13-3.52,3.81,2.39,4.57,6.91-.22,9.77-4.52,2.7-11.95,2.78-16.6.17C287,150.28,285.31,148.05,286.22,145.3Z" transform="translate(-8.61 -7.57)"/><path class="cls-86" d="M290.45,150.09c4.13,2.32,10.72,2.25,14.73-.15s3.92-6.22-.21-8.54-10.72-2.25-14.74.15S286.32,147.78,290.45,150.09Z" transform="translate(-8.61 -7.57)"/><path class="cls-86" d="M296,140.75a3.75,3.75,0,0,0,3.41,0c.93-.56.91-1.44,0-2a3.77,3.77,0,0,0-3.41,0C295.06,139.33,295.08,140.21,296,140.75Z" transform="translate(-8.61 -7.57)"/><path class="cls-85" d="M294.93,142.72a6.25,6.25,0,0,0,5.67-.06c2.09-1.24,1.08-3.55-1.14-4.34C295.41,136.89,291.68,140.9,294.93,142.72Zm1.11-2c-1-.54-1-1.42-.05-2a3.77,3.77,0,0,1,3.41,0c1,.54,1,1.42,0,2A3.75,3.75,0,0,1,296,140.75Z" transform="translate(-8.61 -7.57)"/><path class="cls-84" d="M294.93,142.72a6.25,6.25,0,0,0,5.67-.06,2,2,0,0,0,1.14-1.62v3.54a2,2,0,0,1-1.13,1.63,6.26,6.26,0,0,1-5.67.06,2,2,0,0,1-1.21-1.66v-3.54A2,2,0,0,0,294.93,142.72Z" transform="translate(-8.61 -7.57)"/><path class="cls-87" d="M288.62,113.46a1.27,1.27,0,0,1,1.29.13,4,4,0,0,1,1.8,3.12,1.26,1.26,0,0,1-.53,1.16l-.56.33a1.27,1.27,0,0,0,.53-1.16,4,4,0,0,0-1.8-3.12,1.27,1.27,0,0,0-1.29-.13Z" transform="translate(-8.61 -7.57)"/><path class="cls-86" d="M289.34,113.92a4,4,0,0,1,1.8,3.12c0,1.15-.81,1.61-1.81,1a4,4,0,0,1-1.8-3.12C287.53,113.8,288.34,113.34,289.34,113.92Z" transform="translate(-8.61 -7.57)"/><g class="cls-2"><polygon class="cls-88" points="289.15 132.81 290.89 131.81 281.2 108.72 279.46 109.73 289.15 132.81"/><polygon class="cls-5" points="299.26 104.33 301 103.32 278.97 106.83 277.23 107.84 299.26 104.33"/><polygon class="cls-89" points="300.14 106.41 301.87 105.4 301 103.32 299.26 104.33 300.14 106.41"/><polygon class="cls-54" points="299.26 104.33 277.23 107.84 287.4 132.14 289.15 132.81 279.46 109.73 300.14 106.41 299.26 104.33"/></g><path class="cls-90" d="M306.42,109.94c1.37-1.71,3.52-3.08,4.8-3.05a1.34,1.34,0,0,1,.37.06l9.59,3c3,1,.15,6.8-5.5,11-4,3-8.06,3.83-8.52,1.34l-1.81-9.9A3.63,3.63,0,0,1,306.42,109.94Z" transform="translate(-8.61 -7.57)"/><path class="cls-88" d="M308,114.77a21.52,21.52,0,0,1,8.28-6.34l4.89,1.55c1.63.52,1.55,2.44.26,4.76l-12.08,9c-1.18,0-2-.41-2.19-1.45q-.45-2.44-.89-4.88A14.47,14.47,0,0,1,308,114.77Z" transform="translate(-8.61 -7.57)"/><path class="cls-54" d="M309.57,116.73c3.09-3.85,7.92-6.92,10.79-6.87a2.91,2.91,0,0,1,1.87.7c1.38,1.22,1.59,4-1.94,8.14-1.73,2-6.07,5.9-10.09,6a2.84,2.84,0,0,1-3-2.36C306.93,121,307.74,119,309.57,116.73Z" transform="translate(-8.61 -7.57)"/><path class="cls-91" d="M301.35,108h0l4.18,4.76c-.43-.49-.13-1.6.89-2.87,1.37-1.71,3.52-3.08,4.8-3.05a.94.94,0,0,1,.72.27l-4.2-4.75h0a2.28,2.28,0,0,0-1.72-.76,3.19,3.19,0,0,0-.79.09,6.54,6.54,0,0,0-3.64,2.65,4.14,4.14,0,0,0-.74,1.66h0a2.26,2.26,0,0,0,0,.24c0,.09,0,.18,0,.27A2.27,2.27,0,0,0,301.35,108Z" transform="translate(-8.61 -7.57)"/><path class="cls-92" d="M311.32,118.11c2.68-3.31,6.87-6.14,9.35-6.09s2.34,2.95-.34,6.26-6.87,6-9.36,5.92S308.64,121.42,311.32,118.11Z" transform="translate(-8.61 -7.57)"/><path class="cls-92" d="M320.67,112h.15c.14,1.12-.56,2.82-2.09,4.72-2.68,3.32-6.87,6-9.36,5.92h-.15c-.14-1.12.56-2.82,2.09-4.72C314,114.62,318.19,112,320.67,112Z" transform="translate(-8.61 -7.57)"/><path class="cls-87" d="M286.59,114.1a1.27,1.27,0,0,1,1.28.13,4,4,0,0,1,1.8,3.12,1.26,1.26,0,0,1-.53,1.16l-.56.33a1.26,1.26,0,0,0,.53-1.16,4,4,0,0,0-1.8-3.12,1.27,1.27,0,0,0-1.28-.13Z" transform="translate(-8.61 -7.57)"/><path class="cls-86" d="M287.31,114.56a4,4,0,0,1,1.8,3.12c0,1.15-.82,1.61-1.81,1a4,4,0,0,1-1.8-3.12C285.5,114.45,286.32,114,287.31,114.56Z" transform="translate(-8.61 -7.57)"/><path class="cls-93" d="M286.45,115.32a.75.75,0,0,1,.76.07,2.34,2.34,0,0,1,1.06,1.84.76.76,0,0,1-.31.69l-.56.33a.75.75,0,0,0,.31-.69,2.34,2.34,0,0,0-1.06-1.84.76.76,0,0,0-.76-.07Z" transform="translate(-8.61 -7.57)"/><path class="cls-91" d="M286.64,115.72a2.34,2.34,0,0,1,1.06,1.84c0,.68-.48.95-1.07.61a2.34,2.34,0,0,1-1.06-1.84C285.58,115.66,286.05,115.38,286.64,115.72Z" transform="translate(-8.61 -7.57)"/><path class="cls-94" d="M316.43,118.15a4.6,4.6,0,0,1-.35.31h0a3.37,3.37,0,0,1-.88.47h0a3.4,3.4,0,0,1-.67.15,3.67,3.67,0,0,1-3.19-1.16,20,20,0,0,1,5.25-4.52,3.56,3.56,0,0,1-.1,4.69Z" transform="translate(-8.61 -7.57)"/><path class="cls-95" d="M377,10.71c-6.6,3.81-11.93,13-11.91,20.63s5.39,10.64,12,6.83,11.93-13,11.91-20.62S383.64,6.9,377,10.71Z" transform="translate(-8.61 -7.57)"/><path class="cls-96" d="M374.48,9.21c3.32-1.92,6.33-2.1,8.5-.83l3,1.74c-7.54-4.38-20.46,9.31-20.41,21.46,0,3.77,1.34,6.42,3.48,7.66l-3-1.74C358.59,33.15,363.92,15.31,374.48,9.21Z" transform="translate(-8.61 -7.57)"/><path class="cls-5" d="M377.38,13.76c-5,3.13-9.4,10.68-9.45,16.65,0,5.61,3,7,8.16,4.19s9.44-10.44,9.45-16.41C385.56,12.63,382.24,10.73,377.38,13.76Z" transform="translate(-8.61 -7.57)"/><path class="cls-97" d="M381.6,31.13l.12-.15c5.24-6.43,6.47-15.46,2.1-18a5.52,5.52,0,0,0-1.07-.5c3.71,1.19,3.09,8.2,1.16,12.64l-.08.19c-3.78,8.42-11.47,12.28-14.53,9.78a4.19,4.19,0,0,0,1,.7c1.76.84,4,.78,6.58-.67A17.29,17.29,0,0,0,381.6,31.13Z" transform="translate(-8.61 -7.57)"/><g class="cls-2"><g class="cls-98"><g class="cls-2"><path class="cls-99" d="M377.88,24l-.36-.21a.41.41,0,0,1,0,.3l.36.21a.41.41,0,0,0,0-.3Z" transform="translate(-8.61 -7.57)"/><path class="cls-100" d="M377.84,24.27l-.36-.21a.67.67,0,0,1-.11.17l.36.21a.67.67,0,0,0,.11-.17Z" transform="translate(-8.61 -7.57)"/><path class="cls-99" d="M377.74,24.44l-.36-.21a.45.45,0,0,1-.12.1l.36.21a.47.47,0,0,0,.12-.1Z" transform="translate(-8.61 -7.57)"/></g></g></g><g class="cls-2"><g class="cls-101"><g class="cls-2"><path class="cls-99" d="M377.88,24l-.36-.21a.41.41,0,0,1,0,.3l.36.21a.41.41,0,0,0,0-.3Z" transform="translate(-8.61 -7.57)"/></g></g></g><polygon class="cls-102" points="369.01 16.97 368.65 16.76 368.45 16.88 368.81 17.09 369.01 16.97"/><g class="cls-2"><g class="cls-103"><g class="cls-2"><path class="cls-99" d="M377.89,23.83l-.36-.21a.76.76,0,0,1,0,.15l.36.21a.63.63,0,0,0,0-.14Z" transform="translate(-8.61 -7.57)"/></g></g></g><g class="cls-2"><g class="cls-104"><g class="cls-2"><path class="cls-99" d="M377.81,23.89l-.36-.21a.15.15,0,0,1,.07.08l.36.21a.15.15,0,0,0-.07-.08Z" transform="translate(-8.61 -7.57)"/></g></g></g><g class="cls-2"><g class="cls-105"><g class="cls-2"><path class="cls-99" d="M377.81,23.89l-.36-.21a.19.19,0,0,0-.2,0l.36.21a.19.19,0,0,1,.19,0Z" transform="translate(-8.61 -7.57)"/></g></g></g><g class="cls-2"><g class="cls-106"><g class="cls-2"><path class="cls-99" d="M378.1,23.11a1.86,1.86,0,0,0-.57-.28l.36.21a.48.48,0,0,1,.21.07Z" transform="translate(-8.61 -7.57)"/></g></g></g><polygon class="cls-107" points="369.28 15.48 368.92 15.27 368.93 16.05 369.29 16.26 369.28 15.48"/><polygon class="cls-102" points="369.01 16.34 368.65 16.13 367.96 16.53 368.32 16.74 369.01 16.34"/><polygon class="cls-102" points="368.81 17.09 368.45 16.88 367.37 17.5 367.73 17.71 368.81 17.09"/><g class="cls-2"><g class="cls-108"><g class="cls-2"><path class="cls-99" d="M376.34,25.28l-.36-.21a.63.63,0,0,0,.27.39l.36.21a.62.62,0,0,1-.27-.39Z" transform="translate(-8.61 -7.57)"/></g></g></g><polygon class="cls-102" points="368.32 16.74 367.96 16.53 367.38 16.87 367.74 17.08 368.32 16.74"/><polygon class="cls-107" points="368.32 15.97 367.96 15.76 367.96 16.53 368.32 16.74 368.32 15.97"/><g class="cls-2"><g class="cls-109"><path class="cls-99" d="M376.57,23.33a2.42,2.42,0,0,0-.58,1.11l.36.21a2.44,2.44,0,0,1,.58-1.11Z" transform="translate(-8.61 -7.57)"/></g></g><polygon class="cls-107" points="368.31 12.83 367.95 12.62 367.96 15.76 368.32 15.97 368.31 12.83"/><path class="cls-99" d="M377,19.36a1.06,1.06,0,0,0-.48.83l.36.21c0-.48.53-1,.82-.86C377.45,19.36,377.3,19.2,377,19.36Z" transform="translate(-8.61 -7.57)"/><polygon class="cls-102" points="367.74 17.08 367.38 16.87 363.47 19.13 363.83 19.34 367.74 17.08"/><g class="cls-2"><g class="cls-110"><path class="cls-99" d="M372.43,26.91l-.36-.21c-.22.13-.37.54-.19.65l.36.21C372.06,27.45,372.21,27,372.43,26.91Z" transform="translate(-8.61 -7.57)"/></g></g><path class="cls-111" d="M377.89,23h0c0-3,.16-3.85-.49-3.48s-.48.84-.47,4a2.44,2.44,0,0,0-.58,1.11c-3.73,2.15-4.19,2.21-4.18,2.73,0,.17.12.24.27.16l3.9-2.25c.12.45.53.6,1,.32C378.43,25,378.8,23.14,377.89,23Z" transform="translate(-8.61 -7.57)"/><path class="cls-99" d="M376.51,14.94a1.21,1.21,0,0,0-.09.41c0,.34.21.38.52.56-.51-.29.28-1.62.78-1.33C377.19,14.28,377,14.11,376.51,14.94Z" transform="translate(-8.61 -7.57)"/><path class="cls-111" d="M377.33,14.62c-.74.42-.71,1.67,0,1.25S378,14.21,377.33,14.62Z" transform="translate(-8.61 -7.57)"/><path class="cls-99" d="M377.4,31.38c-.51-.29-1.28,1-.77,1.33l.36.21c-.5-.29.27-1.63.77-1.33Z" transform="translate(-8.61 -7.57)"/><path class="cls-111" d="M376.83,32.58c0,.82,1.1.21,1.09-.63S376.83,31.73,376.83,32.58Z" transform="translate(-8.61 -7.57)"/><path class="cls-99" d="M369.41,28l-.09.09c-.26.27-.47.91-.15,1.09l.36.21c-.5-.29.27-1.62.78-1.33C369.9,27.78,369.77,27.62,369.41,28Z" transform="translate(-8.61 -7.57)"/><path class="cls-111" d="M369.38,29c0,.82,1.1.21,1.1-.63S369.38,28.15,369.38,29Z" transform="translate(-8.61 -7.57)"/><path class="cls-99" d="M384.14,19.48a1.33,1.33,0,0,0-.23.34c-.11.24-.16.63.06.76l.36.21c-.51-.29.27-1.63.77-1.33C384.69,19.22,384.53,19,384.14,19.48Z" transform="translate(-8.61 -7.57)"/><path class="cls-111" d="M384.73,19.5c-.73.42-.71,1.67,0,1.26S385.44,19.09,384.73,19.5Z" transform="translate(-8.61 -7.57)"/><polygon class="cls-112" points="328.03 41.87 328.01 41.91 328.01 35.41 328.03 41.87"/><path class="cls-5" d="M328.16,40.91c.44-.26.8-.05.8.46a1.42,1.42,0,0,1-.07.42l.14-.09c.44-.26.81-.05.81.46a1.78,1.78,0,0,1-.76,1.36l-3.18,1.84c-.44.26-.8.05-.8-.46a1.76,1.76,0,0,1,.8-1.39h0a.78.78,0,0,1-.06-.33,1.77,1.77,0,0,1,.8-1.38c.34-.2.64-.12.75.16A1.77,1.77,0,0,1,328.16,40.91Z" transform="translate(-8.61 -7.57)"/><g class="cls-2"><path class="cls-94" d="M320.88,48.14c1.8-1,3.29-.32,3.46,1.61l-6.91,4a6.29,6.29,0,0,1,.25-1.32l.64-.37a1.78,1.78,0,0,0,.75-1.36.53.53,0,0,0-.29-.54A6.71,6.71,0,0,1,320.88,48.14Z" transform="translate(-8.61 -7.57)"/><path class="cls-5" d="M317.41,49.45c.44-.26.8,0,.81.46a1.41,1.41,0,0,1-.07.42l.14-.09a.6.6,0,0,1,.51-.08.53.53,0,0,1,.29.54,1.77,1.77,0,0,1-.75,1.36l-.64.37-2.53,1.46c-.44.26-.8.05-.81-.46a1.77,1.77,0,0,1,.8-1.39h0a.81.81,0,0,1-.06-.33,1.76,1.76,0,0,1,.8-1.39c.34-.2.64-.12.75.16A1.8,1.8,0,0,1,317.41,49.45Z" transform="translate(-8.61 -7.57)"/><polygon class="cls-96" points="315.74 42.19 328.01 35.41 328.01 41.91 328.01 43.9 320.62 47.86 296.34 61.99 296.31 53.52 308.83 46.17 315.74 42.19"/><path class="cls-113" d="M304.89,51.52l31.72-18.91V43l-12.27,6.78c-.17-1.92-1.66-2.65-3.46-1.61a6.71,6.71,0,0,0-2.08,2,.6.6,0,0,0-.51.08l-.14.09a1.41,1.41,0,0,0,.07-.42c0-.51-.36-.71-.81-.46a1.8,1.8,0,0,0-.75,1c-.11-.28-.41-.36-.75-.16a1.76,1.76,0,0,0-.8,1.39.81.81,0,0,0,.06.33,1.76,1.76,0,0,0-.82,1.4c0,.51.36.71.81.46l2.53-1.46a6.29,6.29,0,0,0-.25,1.32l-12.52,7.35Zm24.2-8a1.78,1.78,0,0,0,.76-1.36c0-.51-.36-.72-.81-.46l-.14.09a1.42,1.42,0,0,0,.07-.42c0-.51-.36-.72-.8-.46a1.77,1.77,0,0,0-.75,1c-.12-.28-.41-.36-.75-.16a1.77,1.77,0,0,0-.8,1.38.78.78,0,0,0,.06.33h0a1.76,1.76,0,0,0-.8,1.39c0,.51.36.72.8.46l3.18-1.84Z" transform="translate(-8.61 -7.57)"/></g><g class="cls-2"><polygon class="cls-114" points="296.76 62.16 293.92 60.52 326.73 41.35 329.56 43 296.76 62.16"/><polygon class="cls-115" points="329.56 43 326.73 41.35 326.75 22.84 329.58 24.48 329.56 43"/><polygon class="cls-115" points="293.56 67.7 290.72 66.06 290.72 40.17 293.56 41.81 293.56 67.7"/><polygon class="cls-116" points="293.56 41.81 290.72 40.17 329.95 17.3 332.78 18.94 293.56 41.81"/><path class="cls-5" d="M302.16,49.38l39.23-22.87V52.4L302.16,75.27Zm36,1.18,0-18.51L305.38,51.22l0,18.51,32.8-19.17Z" transform="translate(-8.61 -7.57)"/></g><polygon class="cls-5" points="408.22 11.74 408.28 35.46 398.77 40.95 396.58 42.21 387.64 47.37 387.58 23.66 396.3 18.62 398.43 17.39 408.22 11.74"/><polygon class="cls-117" points="407.03 13.79 407.1 18.5 389.06 28.79 388.99 24.07 407.03 13.79"/><polygon class="cls-118" points="405.69 22.48 405.74 23.92 390.53 32.6 390.47 31.15 405.69 22.48"/><polygon class="cls-119" points="405.69 25.85 405.74 27.3 390.53 35.98 390.47 34.53 405.69 25.85"/><polygon class="cls-120" points="397.75 33.72 397.8 35.16 390.53 39.35 390.47 37.9 397.75 33.72"/><path class="cls-121" d="M409.83,171.28a7.07,7.07,0,0,1,.95,4.35c-.19,2.74-.6,3.8-1.3,4.31s-1.57.63-3.22.41-4.29-1.83-5.29-2.13-.71-.31-4.26-1.42c-5-1.57-5.86-2.91-6.27-4.24a6,6,0,0,1,0-2.9c4.19.81,9.81,2.17,11.41.48S409.83,171.28,409.83,171.28Z" transform="translate(-8.61 -7.57)"/><path class="cls-91" d="M410.28,169.79a7.1,7.1,0,0,1,.95,4.35c-.2,2.75-.6,3.79-1.3,4.31a5.23,5.23,0,0,1-3.64.49,7.71,7.71,0,0,1-2.87-.8,18.42,18.42,0,0,0-5.53-2.05c-4.36-.93-6.45-2.83-6.78-4.18-.3-1.19,2.21-3,5.52-2.52,4.76.68,4.47-.43,5.67-.73C404.56,168.08,410.28,169.79,410.28,169.79Z" transform="translate(-8.61 -7.57)"/><path class="cls-122" d="M406.94,175.47c1-2.33,3.94-3.78,3.94-3.78l.15-.06a8.35,8.35,0,0,1,.2,2.52c-.2,2.75-.6,3.79-1.3,4.31a5.28,5.28,0,0,1-3.74,1.31l-.25,0A15.4,15.4,0,0,1,406.94,175.47Z" transform="translate(-8.61 -7.57)"/><path class="cls-121" d="M384.62,182.4a7.45,7.45,0,0,1,1.37,4.49c0,2.89-.31,4-1,4.63a5.56,5.56,0,0,1-3.81,1.7,34.64,34.64,0,0,1-5-.89,56.36,56.36,0,0,1-5.71-1c-5.38-1.22-8.66-4.6-9.2-6s.22-3.61.22-3.61c4.46.49,13.16,2,14.69.09S384.62,182.4,384.62,182.4Z" transform="translate(-8.61 -7.57)"/><path class="cls-91" d="M385,180.8a7.44,7.44,0,0,1,1.37,4.48c0,2.89-.3,4-1,4.63a5.56,5.56,0,0,1-3.81,1.7,34.16,34.16,0,0,1-5-.89c-1.07-.23-2.51.4-6.32-.51s-8.06-4.12-8.52-5.51c-.41-1.23-1.52-4.56,2.94-4.07s10.38,1.57,11.9-.34S385,180.8,385,180.8Z" transform="translate(-8.61 -7.57)"/><path class="cls-122" d="M381.95,187c.82-2.52,3.81-4.3,3.81-4.3l.15-.08a8.69,8.69,0,0,1,.43,2.63c0,2.89-.3,4-1,4.63a5.56,5.56,0,0,1-3.81,1.7l-.27,0A16.33,16.33,0,0,1,381.95,187Z" transform="translate(-8.61 -7.57)"/><path class="cls-122" d="M371.85,186.06c.17.21.46,0,.47-.27a8.85,8.85,0,0,1,.12-1.63,3.23,3.23,0,0,1,1.33-2.32c.21-.1.56,0,.51-.25a.34.34,0,0,0-.46-.25,3.46,3.46,0,0,0-2.13,2.69A2.63,2.63,0,0,0,371.85,186.06Z" transform="translate(-8.61 -7.57)"/><path class="cls-122" d="M370.07,185.68c.17.21.46,0,.47-.27a9,9,0,0,1,.12-1.63,3,3,0,0,1,1.31-2.22c.2-.1.57-.13.52-.35A.35.35,0,0,0,372,181a3.46,3.46,0,0,0-2.13,2.69A2.65,2.65,0,0,0,370.07,185.68Z" transform="translate(-8.61 -7.57)"/><path class="cls-122" d="M368.53,185.45c.17.2.46,0,.47-.27a8.87,8.87,0,0,1,.12-1.63,2.93,2.93,0,0,1,1.32-2.21c.2-.1.56-.15.51-.37a.35.35,0,0,0-.46-.25,3.46,3.46,0,0,0-2.13,2.7A2.64,2.64,0,0,0,368.53,185.45Z" transform="translate(-8.61 -7.57)"/><path class="cls-123" d="M375.15,187.81a15.7,15.7,0,0,0,2.33.52l0,.08-5.73,2.11c-.47-.08-1-.17-1.55-.31-.27-.06-.54-.14-.82-.24C370.48,189.54,373.07,188.55,375.15,187.81Z" transform="translate(-8.61 -7.57)"/><path class="cls-123" d="M372.25,186.94a16.3,16.3,0,0,0,2.33.53l0,.08-5.73,2.1-.72-.13c-.42-.18-.84-.37-1.25-.58C368.13,188.46,370.39,187.6,372.25,186.94Z" transform="translate(-8.61 -7.57)"/><path class="cls-124" d="M393,149.32l-6.37,5.21c-3.16,6.87-7.42,19.47-11.17,27.51-.39.83,1.26,5.31,6.24,4.73,2.47-.29,5.18-1.21,5-2l11.55-29Z" transform="translate(-8.61 -7.57)"/><path class="cls-125" d="M404,150.72l-3.39,0s-.07,15.83.35,16.3,4.07,5,7.18,3.88c3.29-1.18,3-1.09,2.84-2.14l2.29-21Z" transform="translate(-8.61 -7.57)"/><path class="cls-126" d="M425.62,137.07l2.51-1.46a.58.58,0,0,0-.24.53l0,9.43a1.82,1.82,0,0,0,.83,1.43L452,160.28a.77.77,0,0,0,.77.07l-2.51,1.46a.76.76,0,0,1-.77-.07l-23.26-13.28a1.82,1.82,0,0,1-.83-1.43l0-9.43A.58.58,0,0,1,425.62,137.07Z" transform="translate(-8.61 -7.57)"/><path class="cls-127" d="M425.46,178.59l0-24.16a1.16,1.16,0,0,1,.48-1.07l2.51-1.46a1.16,1.16,0,0,0-.48,1.07l0,24.16a.85.85,0,0,1-.35.78l-2.51,1.46A.85.85,0,0,0,425.46,178.59Z" transform="translate(-8.61 -7.57)"/><path class="cls-126" d="M423.4,131a.57.57,0,0,1,.58.06l30.29,17.49a1.53,1.53,0,0,0,1.54.15l-2.51,1.46a1.53,1.53,0,0,1-1.54-.15l-30.29-17.49a.57.57,0,0,0-.58-.06Z" transform="translate(-8.61 -7.57)"/><path class="cls-128" d="M451.75,150c1,.56,1.83.3,2.09-.63l5.25-19.13c.15-.54.64-.67,1.18-.36a2.07,2.07,0,0,1,.32.23,2.49,2.49,0,0,1,.85,2.21l-7.95,28.94a22.77,22.77,0,0,0,0,10.4l5.17,25.4c.17.84-.21,1.39-.86,1.21a1.26,1.26,0,0,1-.32-.13,2.72,2.72,0,0,1-1.17-1.71l-5.63-27.66a4.8,4.8,0,0,0-2.08-3l-21.5-12.28c-.91-.52-1.65-.09-1.65,1l0,24.16c0,.77-.54,1.09-1.22.7A2.67,2.67,0,0,1,423,177.2l-.08-41.07a1.7,1.7,0,0,0-.77-1.33l-.73-.42a1.78,1.78,0,0,1-.81-1.4c0-.51.37-.72.81-.46Zm-26.35-3a1.82,1.82,0,0,0,.83,1.43l23.26,13.28c.49.28.92.15,1-.32l2.21-8.06a1.32,1.32,0,0,0-.61-1.27l-25.93-15c-.46-.26-.83-.05-.83.48l0,9.43Z" transform="translate(-8.61 -7.57)"/><path class="cls-32" d="M453.46,171.68a22.77,22.77,0,0,1,0-10.4l7.95-28.94a2.49,2.49,0,0,0-.85-2.21,2.07,2.07,0,0,0-.32-.23.86.86,0,0,0-.87-.08l2.51-1.46a.86.86,0,0,1,.86.08,1.9,1.9,0,0,1,.32.23,2.49,2.49,0,0,1,.85,2.21L456,159.82a22.78,22.78,0,0,0,0,10.4l5.17,25.39c.11.56,0,1-.32,1.17l-2.51,1.46c.3-.17.43-.6.32-1.17Z" transform="translate(-8.61 -7.57)"/><g class="cls-2"><polygon class="cls-129" points="418.52 171.2 418.06 170.94 418.07 173.7 418.52 173.96 418.52 171.2"/><polygon class="cls-130" points="443.52 156.79 443.06 156.53 418.06 170.94 418.52 171.2 443.52 156.79"/><polygon class="cls-32" points="418.52 171.2 418.52 173.96 443.53 159.55 443.52 156.79 418.52 171.2"/></g><path class="cls-33" d="M396.55,161.67a5.65,5.65,0,0,0,2,3.12l23.24,13.5a6.1,6.1,0,0,0,5.54,0l23.39-13.5c1.33-.58,2-2.65,2-3.66,0-.78-1.27-2.38-2-2.82l-23.24-13.5a6.11,6.11,0,0,0-5.54,0l-23.39,13.5A5.85,5.85,0,0,0,396.55,161.67Z" transform="translate(-8.61 -7.57)"/><g class="cls-131"><path d="M398.33,162.43l23.55,13.69a6.19,6.19,0,0,0,5.61,0l23.71-13.69a3.57,3.57,0,0,0,1.55-1.25c0,1-.72,3-2,3.6l-23.39,13.5a6.1,6.1,0,0,1-5.54,0l-23.24-13.5a5.66,5.66,0,0,1-2-3.12,1.45,1.45,0,0,1,.1-.49A3.78,3.78,0,0,0,398.33,162.43Z" transform="translate(-8.61 -7.57)"/></g><path class="cls-132" d="M436.86,149.36l-7.41-3.44-15.67-6.34c-3.94-1.86-13.7-1.79-13.48,6.38l-.77,12.75,16.94-2.27s11.69,5.1,16.75,4.61C442.23,160.2,436.86,149.36,436.86,149.36Z" transform="translate(-8.61 -7.57)"/><path class="cls-124" d="M438.43,163.22c3.86-3,4.12-11.93,4.12-11.93l-2.15-16.53-16.54,8.59-5.37,8.16-22.07-3.61c-5.26-1.61-9.47,1.35-11.21,11l4.5,1.4s1.69,3.81,4.39.72c1.5-1.72,2.32-1,2.32-1l24,6.38C430.57,169.15,434.74,166.09,438.43,163.22Z" transform="translate(-8.61 -7.57)"/><path class="cls-133" d="M399.13,104.71a11.35,11.35,0,0,0-4.93-.87l-1,2,1.56.11s1.82.6,1.57,1.49a.47.47,0,0,1-.07.1l2,3.05.36.07a4.2,4.2,0,0,0,2.63-.47l2.83,1.95,2-3.1S400.22,105.34,399.13,104.71Z" transform="translate(-8.61 -7.57)"/><g class="cls-48"><path class="cls-5" d="M403.57,97.5a0,0,0,0,0,0,0l.79-.31a0,0,0,0,0,0,0,0,0,0,0,0,0,0l-.79.31A0,0,0,0,0,403.57,97.5Z" transform="translate(-8.61 -7.57)"/></g><path class="cls-133" d="M430.42,104.23c2.84-1.48,9.93,7,7.87,11.63-1.12,2.51-9.83,7.55-15.47,7.77-4.21.17-21.44-13.27-21.44-13.27a6.15,6.15,0,0,1-.34-1.93c.09-1.86.69-2.07,1.34-1.77,7.74,3.6,17.86,7.89,17.86,7.89S427.61,105.71,430.42,104.23Z" transform="translate(-8.61 -7.57)"/><path class="cls-134" d="M419.5,113.37l5.84,7.46s9-6.19,10.28-8.37a4.78,4.78,0,0,0-3.08-7.34C429.6,104.65,423.64,110.13,419.5,113.37Z" transform="translate(-8.61 -7.57)"/><polygon class="cls-135" points="414.9 115.34 411.98 113.68 409.73 114.99 412.58 116.64 414.9 115.34"/><path class="cls-133" d="M416.87,83.67,410.59,85l4.17,16.07c1.1,4.63,3.2,5,4.62,4.75,2.95-.49,5.92-2.72,7.39-4,2.86-2.45,1.83-7.9,1.77-8.35l-.89-11.07Z" transform="translate(-8.61 -7.57)"/><path class="cls-133" d="M435.47,107.23s-4.63-3.51-5.15-4.55c-.82-1.65-1.75-7.16-1.75-7.16l-8.09,2.69s1.34,5.4,2,7.18c.4,1.11,2.19,4.38,2.19,4.38.13,1.36-6.17,11.47-5.78,15.7L434,119C433.86,117.19,435.47,107.23,435.47,107.23Z" transform="translate(-8.61 -7.57)"/><path class="cls-34" d="M407.69,85.74c1-1.22,1.4-1.26,1.68-.86-1.12.42-3,4.36.18,6.67a2.27,2.27,0,0,1,2.23-2.31c1.45.09,4.5,4.35,5,6.13a1.35,1.35,0,0,1,.05-1.23c.37-.61,1.63-1,3.44,2.27,0,0,1.84,2.63,4.11,2.54,2.52-.11,3.28,1,3.77,1.93,0,0-.18-1.16.34-1.54s1-.06,1,.14a27.35,27.35,0,0,1,1.93-5.84c3.37-8,.91-13.14-2-14.06-.43-1.27-2.12-4.55-10.81-2-2.32.69-4.21,1.85-6.06,1.11-.17.86-.4,1.25,1,1.66-.83.4-1.56.19-2.46-.62-.56,1.89-.26,2.28.44,2.62C407.56,80.51,407.69,85.74,407.69,85.74Z" transform="translate(-8.61 -7.57)"/><path class="cls-136" d="M416.66,92.37a2.4,2.4,0,0,1,2,1.52,2.76,2.76,0,0,1,0,2.3,2.44,2.44,0,0,1-1,1s-.32-2.61-.41-3.09A16.55,16.55,0,0,0,416.66,92.37Z" transform="translate(-8.61 -7.57)"/><path class="cls-137" d="M416,91.88s-.77.06-.09,1.08a5.47,5.47,0,0,1,1,2.28c.09.56.18,2.27.18,2.27s.57.63.9-.45a6.88,6.88,0,0,0,0-2.67C417.87,93.9,416.76,91.53,416,91.88Z" transform="translate(-8.61 -7.57)"/><path class="cls-91" d="M418.6,115.69c-1.65,2.05-1.39,8.19-.77,14.81L419,148c.11,1.15-1.8,9.93,3.09,12.11,1.72.76,7.62,4,11.68,2.22,1.66-.73,9.2-5.91,9-8.33l-2.36-36.91a16.27,16.27,0,0,0-8.46-12.94l-7,5.21Z" transform="translate(-8.61 -7.57)"/><path class="cls-138" d="M426.76,174.6l6.76-26.69,27.05-15.72-6.76,26.69a.48.48,0,0,1-.22.33l-27.05,15.72A.48.48,0,0,0,426.76,174.6Z" transform="translate(-8.61 -7.57)"/><path class="cls-33" d="M459.23,130.56a.57.57,0,0,1,.57.05l.17.12a1.68,1.68,0,0,1,.61,1.45L433.53,147.9a1.68,1.68,0,0,0-.61-1.45l-.17-.12a.57.57,0,0,0-.57-.06Z" transform="translate(-8.61 -7.57)"/><path class="cls-139" d="M432.75,146.34c-.37-.21-.7-.11-.78.28l-6.76,26.69a1.68,1.68,0,0,0,.61,1.45l.17.12c.37.21.7.11.78-.28l6.76-26.69a1.68,1.68,0,0,0-.61-1.45Z" transform="translate(-8.61 -7.57)"/><path class="cls-133" d="M426.63,119.84c-.15-4.15-3.32-6.74-6.42-4.85-2.9,1.77-12.2,9.36-15.86,11.43-1.35.76-12.27-.09-16.6-.94-.3-.06-1.71-.27-2.74-.49a45.87,45.87,0,0,0-7-2.33c-2.35-.34-5.59.47-8.31.48-.53,0-1.56.65-.64,1.3s4.63-.14,5,.31-.43,2.69-.21,3.07c.4.67.8.87,4.5,1.45.93.15,2.93-.19,4.57.22l.44.11h0c1.38.61,18.57,5.36,20.55,5.14,4.51-.5,13.93-6.44,13.93-6.44S426.74,122.86,426.63,119.84Z" transform="translate(-8.61 -7.57)"/><path class="cls-140" d="M397.5,153.66,400,152.2a.59.59,0,0,0-.24.54l0,9.43a1.81,1.81,0,0,0,.83,1.43l23.26,13.28a.77.77,0,0,0,.77.07l-2.51,1.46a.76.76,0,0,1-.77-.07l-23.26-13.28a1.82,1.82,0,0,1-.83-1.43l0-9.43A.58.58,0,0,1,397.5,153.66Z" transform="translate(-8.61 -7.57)"/><path class="cls-32" d="M397.34,195.18l0-24.16a1.17,1.17,0,0,1,.48-1.07l2.51-1.46a1.17,1.17,0,0,0-.48,1.07l0,24.16a.85.85,0,0,1-.35.78L397,196A.85.85,0,0,0,397.34,195.18Z" transform="translate(-8.61 -7.57)"/><path class="cls-140" d="M395.27,147.59a.57.57,0,0,1,.58.06l30.29,17.49a1.53,1.53,0,0,0,1.54.15l-2.51,1.46a1.52,1.52,0,0,1-1.54-.15l-30.29-17.49a.57.57,0,0,0-.58-.06Z" transform="translate(-8.61 -7.57)"/><path class="cls-30" d="M423.63,166.6c1,.56,1.83.3,2.09-.63L431,146.84c.15-.54.64-.67,1.18-.36a2.06,2.06,0,0,1,.32.23,2.49,2.49,0,0,1,.85,2.21l-7.95,28.94a22.79,22.79,0,0,0,0,10.4l5.17,25.39c.17.85-.21,1.39-.86,1.22a1.27,1.27,0,0,1-.32-.14,2.7,2.7,0,0,1-1.17-1.71l-5.63-27.66a4.8,4.8,0,0,0-2.08-3l-21.5-12.28c-.92-.52-1.65-.09-1.65,1l0,24.16c0,.77-.54,1.09-1.22.7a2.68,2.68,0,0,1-1.21-2.09l-.08-41.07a1.7,1.7,0,0,0-.77-1.33l-.72-.42a1.77,1.77,0,0,1-.81-1.4c0-.51.37-.72.81-.46Zm-26.35-3a1.82,1.82,0,0,0,.83,1.43l23.26,13.28c.49.28.92.15,1-.32l2.21-8.06a1.31,1.31,0,0,0-.61-1.27l-25.93-15c-.46-.26-.83,0-.83.48l0,9.43Z" transform="translate(-8.61 -7.57)"/><path class="cls-32" d="M425.34,188.27a22.79,22.79,0,0,1,0-10.4l7.95-28.94a2.49,2.49,0,0,0-.85-2.21,2.06,2.06,0,0,0-.32-.23.86.86,0,0,0-.86-.08l2.51-1.46a.86.86,0,0,1,.86.08,1.85,1.85,0,0,1,.32.23,2.49,2.49,0,0,1,.86,2.21l-7.95,28.94a22.81,22.81,0,0,0,0,10.4L433,212.2c.11.56,0,1-.32,1.17l-2.51,1.46c.3-.17.43-.6.31-1.17Z" transform="translate(-8.61 -7.57)"/><g class="cls-2"><path class="cls-5" d="M379.28,53,335.65,78.3v26.81l43.77-25.41Z" transform="translate(-8.61 -7.57)"/><path class="cls-91" d="M350.81,94.09l-.14.56Z" transform="translate(-8.61 -7.57)"/></g><path class="cls-133" d="M393.72,107.75c-.49-.09-1.62-.15-2,.25a.82.82,0,0,0,0,1.14,11.42,11.42,0,0,0,2.63.62c1.62.29,2.83.63,3.82.83l-1.94-3C395.9,108.09,394.38,107.88,393.72,107.75Z" transform="translate(-8.61 -7.57)"/><path class="cls-133" d="M392,104.88l-2.38,3.06s-.28.64.77.69,2.25-2,2.25-2l1.39-.66.19-2.15A5.74,5.74,0,0,0,392,104.88Z" transform="translate(-8.61 -7.57)"/><polygon class="cls-141" points="348 61.54 348.06 62.98 332.84 71.66 332.78 70.22 348 61.54"/><polygon class="cls-142" points="352.32 62.64 352.38 64.09 337.17 72.76 337.11 71.32 352.32 62.64"/><polygon class="cls-143" points="348.36 68.03 348.41 69.47 341.14 73.67 341.08 72.22 348.36 68.03"/><line class="cls-141" x1="352.38" y1="64.09" x2="337.17" y2="72.76"/><polygon class="cls-144" points="352.79 68.6 352.85 70.05 337.63 78.73 337.58 77.28 352.79 68.6"/><line class="cls-141" x1="343.71" y1="75.68" x2="358.93" y2="67.01"/><polygon class="cls-145" points="348.66 74.67 348.72 76.11 333.5 84.79 333.44 83.34 348.66 74.67"/><polygon class="cls-146" points="348 61.54 348.06 62.98 332.84 71.66 332.78 70.22 348 61.54"/><polygon class="cls-147" points="348.66 77.79 348.72 79.23 333.5 87.91 333.44 86.47 348.66 77.79"/><polygon class="cls-148" points="344.71 83.57 344.77 85.02 337.63 89.11 337.58 87.67 344.71 83.57"/><path class="cls-149" d="M411.11,121.46l5.38,8.66s9-6.19,10.28-8.37c2-3.32-.63-7.3-3.58-7.78S415.26,118.22,411.11,121.46Z" transform="translate(-8.61 -7.57)"/></g></g></g></svg>