<svg xmlns="http://www.w3.org/2000/svg" xmlns:xlink="http://www.w3.org/1999/xlink" viewBox="0 0 6830 3172"><defs><style>.cls-1{fill:url(#radial-gradient);}.cls-13,.cls-2{opacity:0.7;}.cls-3{fill:url(#linear-gradient);}.cls-4{fill:url(#linear-gradient-2);}.cls-5{fill:url(#linear-gradient-3);}.cls-6{fill:url(#linear-gradient-4);}.cls-7{fill:#272649;}.cls-8{fill:#060613;}.cls-9{fill:#b8e4ea;}.cls-10{fill:#35b3b7;}.cls-11{fill:#073a4c;}.cls-12{fill:#fd992d;}.cls-13{fill:#b05c00;}.cls-14{fill:#2eeef3;}.cls-15{fill:#3ebfd5;}.cls-16{fill:#e9e9e9;}.cls-17{fill:#d1d2d4;}.cls-18{fill:#379ca6;}.cls-19{fill:#0471a6;}</style><radialGradient id="radial-gradient" cx="2135.18" cy="-973.69" fx="2246.793008030478" fy="206.52406229408007" r="5411.94" gradientTransform="translate(-853.75 -51.63) scale(1.25 1.03)" gradientUnits="userSpaceOnUse"><stop offset="0" stop-color="#35b3b7"/><stop offset="0.03" stop-color="#2b9ab5"/><stop offset="0.11" stop-color="#1667b1"/><stop offset="0.15" stop-color="#0e53af"/><stop offset="0.18" stop-color="#124da1"/><stop offset="0.23" stop-color="#184487"/><stop offset="0.29" stop-color="#1d3d75"/><stop offset="0.35" stop-color="#20386a"/><stop offset="0.42" stop-color="#213766"/><stop offset="0.76" stop-color="#213665"/><stop offset="1" stop-color="#272649"/></radialGradient><linearGradient id="linear-gradient" x1="2600.65" y1="2020.73" x2="3630.15" y2="2020.73" gradientTransform="matrix(0, -1, -1, 0, 5374.51, 5151.57)" gradientUnits="userSpaceOnUse"><stop offset="0" stop-color="#096161"/><stop offset="0.38" stop-color="#0a8c6c"/><stop offset="0.47" stop-color="#0e8e6f"/><stop offset="0.56" stop-color="#1c9579"/><stop offset="0.66" stop-color="#31a088"/><stop offset="0.76" stop-color="#50af9f"/><stop offset="0.86" stop-color="#77c3bb"/><stop offset="0.97" stop-color="#a6dbdd"/><stop offset="1" stop-color="#b8e4ea"/></linearGradient><linearGradient id="linear-gradient-2" x1="2898.08" y1="2216.88" x2="3332.73" y2="1782.23" gradientTransform="matrix(0, -1, -1, 0, 5357.73, 5130.85)" gradientUnits="userSpaceOnUse"><stop offset="0" stop-color="#060613"/><stop offset="0.05" stop-color="#0b1c2e"/><stop offset="0.18" stop-color="#154f6c"/><stop offset="0.3" stop-color="#1e79a0"/><stop offset="0.41" stop-color="#249ac8"/><stop offset="0.51" stop-color="#29b2e5"/><stop offset="0.6" stop-color="#2cc0f7"/><stop offset="0.66" stop-color="#2dc5fd"/><stop offset="0.71" stop-color="#37c7fc"/><stop offset="0.79" stop-color="#54cef8"/><stop offset="0.89" stop-color="#81d8f2"/><stop offset="1" stop-color="#b8e4ea"/></linearGradient><linearGradient id="linear-gradient-3" x1="2859.03" y1="2202.86" x2="3371.78" y2="2202.86" gradientTransform="matrix(-0.98, -0.21, -0.21, 0.98, 6821.23, 707.32)" gradientUnits="userSpaceOnUse"><stop offset="0" stop-color="#08639a"/><stop offset="0.17" stop-color="#0a69a0"/><stop offset="0.4" stop-color="#1079b0"/><stop offset="0.65" stop-color="#1b94cc"/><stop offset="0.92" stop-color="#29b9f1"/><stop offset="1" stop-color="#2dc5fd"/></linearGradient><linearGradient id="linear-gradient-4" x1="2796.87" y1="1854.58" x2="3433.94" y2="1854.58" gradientTransform="matrix(-0.98, -0.21, -0.21, 0.98, 6821.23, 707.32)" gradientUnits="userSpaceOnUse"><stop offset="0" stop-color="#08639a"/><stop offset="0.15" stop-color="#117bb2"/><stop offset="0.44" stop-color="#20a3db"/><stop offset="0.67" stop-color="#2abcf4"/><stop offset="0.8" stop-color="#2dc5fd"/><stop offset="0.85" stop-color="#2ec2f3"/><stop offset="0.93" stop-color="#31bbd7"/><stop offset="1" stop-color="#35b3b7"/></linearGradient></defs><title>background main</title><g id="Konktakt"><polygon class="cls-1" points="0 0 0 3172 6830 3172 6830 0.35 0 0"/></g><g id="Program"><g id="Satrun" class="cls-2"><g id="satrun-2" data-name="satrun"><g id="rings"><ellipse id="ring_main" data-name="ring main" class="cls-3" cx="3353.77" cy="2036.16" rx="135.36" ry="514.75" transform="translate(664.82 4893.31) rotate(-78)"/><ellipse id="ring_small" data-name="ring small" class="cls-4" cx="3358.18" cy="2015.45" rx="114.18" ry="419.28" transform="translate(688.57 4881.21) rotate(-78)"/></g><g id="Globe"><path id="glob_bottom_small" data-name="glob bottom small" class="cls-5" d="M3325.63,2168.56c91.31,19.41,178.29,31.22,254.51,35.74a317.21,317.21,0,0,1-126.29,68.64c-153.35,42.53-311.61-34.66-375.26-175.24C3150.05,2124.56,3234.32,2149.16,3325.63,2168.56Z"/><path class="cls-6" d="M3283.56,1658.91c169.56-47,345.13,52.31,392.16,221.87a317.22,317.22,0,0,1,6.23,143.53c-20.54,73.91-171,104.71-340.26,68.74s-294.2-125.33-282.88-201.21C3085,1782.87,3167.91,1691,3283.56,1658.91Z"/></g><g id="Left_side" data-name="Left side"><path class="cls-7" d="M3580.14,2204.3a318.74,318.74,0,0,1-335.58,55,20,20,0,0,1,24-22.56l84.32,17.92a20.09,20.09,0,0,0,8.36-39.31l-49.17-10.45a20.09,20.09,0,0,1,0-39.31c4.48,1,9,2,13.48,2.93C3416.94,2188,3503.93,2199.78,3580.14,2204.3Z"/><path class="cls-7" d="M3306.76,1791.31l169.79,36a20.07,20.07,0,0,0,8.33-39.17l-51.1-10.94a20.09,20.09,0,1,1,8.36-39.31l9.55,2a20.07,20.07,0,0,0,8.33-39.17,20.08,20.08,0,0,1,1.6-39.56A319.89,319.89,0,0,1,3613.56,1762l.09.11q2.3,2.76,4.53,5.57a320.58,320.58,0,0,1,21.8,31.07l.08.13c1.07,1.74,2.11,3.5,3.15,5.26.33.55.66,1.1,1,1.65.74,1.28,1.46,2.57,2.19,3.85.62,1.11,1.25,2.21,1.86,3.33.42.77.83,1.55,1.25,2.32.92,1.71,1.83,3.43,2.72,5.16l.33.65a320.4,320.4,0,0,1,34.12,166.32l0,.66c-.19,2.7-.42,5.39-.68,8.08-.06.6-.11,1.19-.17,1.79-.24,2.38-.52,4.75-.81,7.12-.09.72-.17,1.44-.26,2.15q-.55,4.22-1.22,8.41c-.11.69-.23,1.39-.35,2.08q-.55,3.32-1.16,6.62c-17.24,62-126,93.69-260.58,81a20,20,0,0,0-8.1-3.77l-68.79-14.62a20.09,20.09,0,0,1,8.36-39.31l56.91,12.1a20.09,20.09,0,0,0,8.36-39.31l-99-21a20.09,20.09,0,1,1,8.36-39.31l160,34a20.09,20.09,0,0,0,8.36-39.31l-124.9-26.55a20.09,20.09,0,0,1,8.36-39.31l53.68,11.41a20.09,20.09,0,1,0,8.36-39.31l-142.91-30.38a20.09,20.09,0,0,1,8.36-39.31Z"/></g></g><circle id="moon_1" data-name="moon 1" class="cls-8" cx="3176.95" cy="1734.36" r="40.82" transform="translate(-291.17 698.43) rotate(-12)"/><circle id="moon_2" data-name="moon 2" class="cls-9" cx="3062.85" cy="1696.15" r="52.03" transform="translate(766.97 4339.42) rotate(-78)"/><circle id="moon_3" data-name="moon 3" class="cls-9" cx="3127.29" cy="2269.18" r="26.7" transform="translate(257.49 4856.34) rotate(-78)"/><g id="PLANET"><path class="cls-10" d="M3113.74,1707a52,52,0,0,1-47.84,41.13,3.25,3.25,0,0,0-2.17-4.31h0l-15.82-3.36a3.28,3.28,0,1,1,1.36-6.42l7.56,1.61h0a3.28,3.28,0,0,0,1.36-6.4h0l-13.75-2.92a3.28,3.28,0,1,1,1.36-6.42l22.92,4.87a3.28,3.28,0,0,0,1.36-6.42l-11.23-2.39a3.28,3.28,0,0,1,1.36-6.42l26.36,5.6a3.28,3.28,0,0,0,1.36-6.42l-33.24-7.07a3.28,3.28,0,1,1,1.36-6.42l26.13,5.55a3.28,3.28,0,1,0,1.36-6.42l-13.3-2.83a3.28,3.28,0,1,1,1.36-6.42l7.56,1.61a3.28,3.28,0,1,0,1.36-6.42l-19.94-4.24a3.28,3.28,0,0,1,1.36-6.42l28.2,6h0a3.28,3.28,0,0,0,1.36-6.4h0l-18.11-3.85a3.28,3.28,0,1,1,1.36-6.42l7.11,1.51h0a3.28,3.28,0,0,0,1.36-6.4h0l-13.07-2.78a3.28,3.28,0,0,1,.67-6.49q1.38.22,2.76.51A52,52,0,0,1,3113.74,1707Z"/></g><g id="PLANET-2" data-name="PLANET"><path class="cls-9" d="M3216.88,1742.85a40.84,40.84,0,0,1-37.54,32.27,2.55,2.55,0,0,0-1.7-3.38h0l-12.41-2.64a2.57,2.57,0,0,1,1.07-5l5.94,1.26h0a2.57,2.57,0,0,0,1.07-5h0l-10.79-2.29a2.57,2.57,0,1,1,1.07-5l18,3.82a2.57,2.57,0,1,0,1.07-5l-8.81-1.87a2.57,2.57,0,0,1,1.07-5l20.68,4.4a2.57,2.57,0,1,0,1.07-5l-26.08-5.54a2.57,2.57,0,0,1,1.07-5l20.5,4.36a2.57,2.57,0,0,0,1.07-5l-10.43-2.22a2.57,2.57,0,0,1,1.07-5l5.94,1.26a2.57,2.57,0,1,0,1.07-5l-15.65-3.33a2.57,2.57,0,1,1,1.07-5l22.12,4.7h0a2.57,2.57,0,0,0,1.07-5h0l-14.21-3a2.57,2.57,0,1,1,1.07-5l5.58,1.19h0a2.57,2.57,0,0,0,1.07-5h0l-10.25-2.18a2.57,2.57,0,0,1,.52-5.09q1.08.17,2.17.4A40.82,40.82,0,0,1,3216.88,1742.85Z"/></g><g id="PLANET-3" data-name="PLANET"><path class="cls-11" d="M3153.41,2274.73a26.71,26.71,0,0,1-24.55,21.11,1.67,1.67,0,0,0-1.11-2.21h0l-8.12-1.73a1.68,1.68,0,1,1,.7-3.29l3.88.83h0a1.68,1.68,0,0,0,.7-3.28h0l-7.06-1.5a1.68,1.68,0,1,1,.7-3.29l11.77,2.5a1.68,1.68,0,1,0,.7-3.29l-5.77-1.23a1.68,1.68,0,0,1,.7-3.29l13.53,2.88a1.68,1.68,0,1,0,.7-3.29l-17.06-3.63a1.68,1.68,0,0,1,.7-3.29l13.41,2.85a1.68,1.68,0,0,0,.7-3.29l-6.82-1.45a1.68,1.68,0,0,1,.7-3.29l3.88.83a1.68,1.68,0,0,0,.7-3.29l-10.24-2.18a1.68,1.68,0,1,1,.7-3.29l14.47,3.08h0a1.68,1.68,0,0,0,.7-3.28h0l-9.29-2a1.68,1.68,0,1,1,.7-3.29l3.65.78h0a1.68,1.68,0,0,0,.7-3.28h0l-6.71-1.43a1.68,1.68,0,0,1,.34-3.33q.71.11,1.42.26A26.7,26.7,0,0,1,3153.41,2274.73Z"/></g></g></g><g id="O_nas" data-name="O nas"><g id="planet-4" data-name="planet" class="cls-2"><circle class="cls-12" cx="3295.93" cy="1192.42" r="237.46" transform="translate(1600.23 4259.92) rotate(-80.96)"/><path class="cls-13" d="M3530.44,1229.74C3512,1345.29,3413.2,1428,3300.12,1429.88a14.86,14.86,0,0,0-6.07-26l.06,0-72.48-11.54a14.89,14.89,0,0,1,4.68-29.41l57,9a14.88,14.88,0,0,0,4.67-29.31l-85.39-13.63a14.89,14.89,0,0,1,4.68-29.41L3367,1325.09a14.89,14.89,0,1,0,4.68-29.41l-106.13-17a14.89,14.89,0,1,1,4.68-29.41l78.16,12.47a14.89,14.89,0,1,0,4.68-29.41L3287.7,1222a14.89,14.89,0,0,1,4.68-29.41l75.48,11.85a14.89,14.89,0,0,0,4.68-29.41l-60.93-9.7a14.89,14.89,0,1,1,4.68-29.41l34.67,5.52a14.89,14.89,0,1,0,4.68-29.41l-91.39-14.55a14.89,14.89,0,1,1,4.68-29.41l129.21,20.57v-.05a14.88,14.88,0,0,0,4.67-29.31v-.05l-83-13.21a14.89,14.89,0,0,1,4.68-29.41l32.57,5.18v-.05a14.88,14.88,0,0,0,4.67-29.31v-.05l-59.88-9.53a14.88,14.88,0,0,1-4.54-27.9,239.32,239.32,0,0,1,35.91,3C3462.77,978.52,3551.06,1100.23,3530.44,1229.74Z"/></g></g><g id="Home"><g id="Backg-3" data-name="Backg"><g id="planet-5" data-name="planet" class="cls-2"><circle class="cls-14" cx="3066.07" cy="434" r="195.31" transform="translate(1560.02 3139.73) rotate(-68.96)"/><path class="cls-15" d="M3248.35,504.13c-34.56,89.81-128.23,139.46-219.51,121.62a12.22,12.22,0,0,0-.43-22l.05,0-56.34-21.68a12.25,12.25,0,1,1,8.8-22.86l26.95,10.37,0,0a12.23,12.23,0,0,0,8.76-22.78l0,0-49-18.85a12.25,12.25,0,1,1,8.8-22.86l81.65,31.42a12.25,12.25,0,1,0,8.8-22.86l-40-15.39a12.25,12.25,0,1,1,8.8-22.86l93.9,36.13a12.25,12.25,0,1,0,8.8-22.86L3020,443a12.25,12.25,0,0,1,8.8-22.86L3121.88,456a12.25,12.25,0,0,0,8.8-22.86l-47.36-18.22a12.25,12.25,0,1,1,8.8-22.86l26.95,10.37a12.25,12.25,0,1,0,8.8-22.86l-71-27.33a12.25,12.25,0,1,1,8.8-22.86L3166,368l0,0a12.23,12.23,0,0,0,8.76-22.78l0,0-64.51-24.82a12.25,12.25,0,0,1,8.8-22.86l25.31,9.74,0,0a12.23,12.23,0,0,0,8.76-22.78l0,0L3106.7,266.4a12.24,12.24,0,0,1,1.12-23.22,196.84,196.84,0,0,1,28.38,8.54C3236.87,290.45,3287.08,403.46,3248.35,504.13Z"/></g><g id="planet-6" data-name="planet"><circle class="cls-16" cx="3298.3" cy="421.9" r="73.23" transform="translate(1720.15 3348.71) rotate(-68.96)"/><path class="cls-17" d="M3366.64,448.2a73.25,73.25,0,0,1-82.31,45.6,4.58,4.58,0,0,0-.16-8.24h0l-21.13-8.13a4.59,4.59,0,1,1,3.3-8.57l10.1,3.89v0a4.59,4.59,0,0,0,3.29-8.54v0l-18.37-7.07a4.59,4.59,0,1,1,3.3-8.57l30.62,11.78a4.59,4.59,0,1,0,3.3-8.57l-28-10.77a4.59,4.59,0,1,1,3.3-8.57l48.21,18.55a4.59,4.59,0,1,0,3.3-8.57L3281,425.28a4.59,4.59,0,0,1,3.3-8.57l34.9,13.43a4.59,4.59,0,0,0,3.3-8.57l-17.76-6.83a4.59,4.59,0,1,1,3.3-8.57l10.1,3.89a4.59,4.59,0,1,0,3.3-8.57l-26.64-10.25a4.59,4.59,0,0,1,3.3-8.57l37.66,14.49v0a4.59,4.59,0,0,0,3.29-8.54v0l-24.19-9.31a4.59,4.59,0,0,1,3.3-8.57l2,.79a4.59,4.59,0,0,0,3.29-8.54l-10-3.89a4.59,4.59,0,0,1,.42-8.71,73.29,73.29,0,0,1,52.69,97.85Z"/></g></g></g><g id="Guides"><path class="cls-18" d="M4600.43,3172c-161.59-314.84-489.49-530.26-867.71-530.26S3026.6,2857.16,2865,3172Z"/><path class="cls-19" d="M3948,2782.83l233.23,89.74-.08.21a61.31,61.31,0,0,1-43.92,114.16l-.08.21-126.85-48.8a61.38,61.38,0,0,0-44.08,114.57L4275.8,3172h337.41c-106.22-204.94-284.95-373.33-517.33-462.74a986.39,986.39,0,0,0-142.24-42.78,61.32,61.32,0,0,0-5.61,116.35Z"/><path class="cls-19" d="M3933.94,3172l-191.8-73.79A61.38,61.38,0,0,0,3661,3172Z"/></g></svg>